<?xml version="1.0" encoding="iso-8859-1"?>
<!-- Generator: Adobe Illustrator 19.0.0, SVG Export Plug-In . SVG Version: 6.00 Build 0)  -->
<svg version="1.1" id="Layer_1" xmlns="http://www.w3.org/2000/svg" xmlns:xlink="http://www.w3.org/1999/xlink" x="0px" y="0px"
	 viewBox="0 0 512 512" style="enable-background:new 0 0 512 512;" xml:space="preserve">
<g>
	<g>
		<path d="M442.558,304.906c-27.759,0-60.759-6.518-70.13-24.809c-5.648-11.027,0.089-22.953,5.895-31.016
			c21.101-29.304,32.255-61.982,32.255-94.5C410.579,69.344,341.235,0,256,0S101.42,69.344,101.42,154.579
			c0,32.518,11.154,65.196,32.255,94.5c5.806,8.063,11.543,19.989,5.895,31.016c-9.37,18.292-42.37,24.809-70.13,24.809
			c-29.638,0-53.749,24.111-53.749,53.749s24.111,53.749,53.749,53.749c15.388,0,36.856-3.731,55.168-8.542
			c-4.921,3.748-10.147,7.691-15.036,11.205c-21.068,15.145-27.775,39.507-17.506,63.577c6.052,14.185,17.826,25.26,32.299,30.384
			c13.336,4.72,27.334,3.795,39.418-2.605c36.03-19.085,59.414-51.183,76.49-74.62c5.013-6.882,11.501-15.787,15.726-20.125
			c4.225,4.338,10.713,13.243,15.726,20.125c17.075,23.438,40.459,55.535,76.49,74.62c7,3.707,14.641,5.578,22.424,5.578
			c5.654,0,11.383-0.986,16.994-2.973c14.475-5.124,26.247-16.198,32.299-30.384c10.269-24.071,3.562-48.432-17.506-63.576
			c-4.889-3.515-10.114-7.457-15.036-11.206c18.311,4.811,39.78,8.542,55.168,8.542c29.638,0,53.749-24.111,53.749-53.749
			S472.197,304.906,442.558,304.906z M442.558,381.057c-19.02,0-53.672-7.981-68.7-14.514c-13.473-5.855-28.794-0.817-35.638,11.723
			c-6.773,12.41-2.748,26.929,9.788,35.308c3.658,2.445,9.763,7.109,16.227,12.046c6.204,4.741,13.239,10.113,19.893,14.898
			c11.379,8.179,10.072,18.558,6.971,25.824c-2.582,6.052-7.788,10.962-13.928,13.135c-3.515,1.244-8.849,2.123-14.283-0.755
			c-29.631-15.695-50.552-44.41-65.827-65.378c-14.719-20.204-25.354-34.802-41.062-34.802c-15.709,0-26.343,14.598-41.062,34.802
			c-15.275,20.966-36.195,49.682-65.827,65.378c-5.436,2.88-10.769,2-14.283,0.755c-6.14-2.173-11.346-7.083-13.928-13.135
			c-3.1-7.266-4.407-17.645,6.971-25.824c6.655-4.784,13.689-10.157,19.893-14.898c6.465-4.938,12.569-9.601,16.225-12.045
			c12.538-8.379,16.564-22.898,9.79-35.308c-6.845-12.542-22.17-17.582-35.638-11.723c-15.028,6.534-49.68,14.514-68.7,14.514
			c-12.354,0-22.403-10.05-22.403-22.403s10.05-22.403,22.403-22.403c48.67,0,84.4-15.259,98.029-41.865
			c9.894-19.318,6.849-42.507-8.356-63.623c-17.483-24.279-26.347-49.91-26.347-76.184C132.766,86.628,188.048,31.346,256,31.346
			s123.233,55.282,123.233,123.233c0,26.273-8.864,51.905-26.347,76.184c-15.205,21.116-18.25,44.306-8.356,63.623
			c13.628,26.606,49.359,41.865,98.029,41.865c12.354,0,22.403,10.05,22.403,22.403
			C464.962,371.007,454.913,381.057,442.558,381.057z"/>
	</g>
</g>
<g>
	<g>
		<path d="M203.838,151.569c-11.34,0-20.569,9.323-20.569,20.835c0,11.51,9.228,20.842,20.569,20.842
			c11.355,0,20.582-9.331,20.582-20.842C224.419,160.891,215.193,151.569,203.838,151.569z"/>
	</g>
</g>
<g>
	<g>
		<path d="M308.006,151.406c-11.45,0-20.738,9.401-20.738,20.998c0,11.597,9.288,20.998,20.738,20.998
			c11.436,0,20.724-9.401,20.724-20.998C328.73,160.807,319.442,151.406,308.006,151.406z"/>
	</g>
</g>
<g>
</g>
<g>
</g>
<g>
</g>
<g>
</g>
<g>
</g>
<g>
</g>
<g>
</g>
<g>
</g>
<g>
</g>
<g>
</g>
<g>
</g>
<g>
</g>
<g>
</g>
<g>
</g>
<g>
</g>
</svg>
