<svg id="Capa_1" enable-background="new 0 0 512 512" height="512" viewBox="0 0 512 512" width="512" xmlns="http://www.w3.org/2000/svg"><g><path d="m509.766 225.57c2.444-5.647 1.192-12.213-3.159-16.564l-68.974-68.975 47.72-93.231c2.966-5.794 1.856-12.839-2.746-17.441-4.603-4.603-11.649-5.712-17.44-2.746l-93.231 47.72-68.976-68.974c-4.352-4.352-10.919-5.604-16.564-3.16-5.647 2.444-9.229 8.089-9.034 14.239l2.854 90.45-85.37 57.828c-4.902 3.321-7.392 9.214-6.356 15.044s5.405 10.504 11.151 11.932l43.388 10.782-237.705 237.705c-2.813 2.813-4.394 6.628-4.394 10.606s1.581 7.793 4.394 10.606l45.25 45.25c2.929 2.929 6.768 4.394 10.606 4.394s7.678-1.464 10.606-4.394l237.705-237.704 10.781 43.387c1.429 5.746 6.103 10.115 11.933 11.151.877.156 1.756.232 2.627.232 4.918 0 9.596-2.424 12.417-6.588l57.828-85.37 90.449 2.855c6.144.187 11.795-3.387 14.24-9.034zm-355.783 108.375 16.393 31.681-34.307 34.307-16.387-31.686zm-92.803 140.877-24.037-24.037 60.277-60.277 16.387 31.686zm131.457-131.456-16.393-31.681 100.766-100.766 19.253 4.784 4.784 19.253zm205.129-141.862c-5.14-.146-10.008 2.322-12.893 6.58l-43.598 64.362-18.075-72.74c-1.34-5.391-5.549-9.6-10.94-10.939l-72.74-18.076 64.361-43.598c4.259-2.885 6.743-7.75 6.58-12.892l-1.92-60.834 49.901 49.901c4.602 4.602 11.647 5.712 17.44 2.746l61.598-31.528-31.528 61.597c-2.966 5.794-1.856 12.839 2.746 17.441l49.9 49.901z"/><path d="m465 416.965c-25.916 0-47 21.084-47 47s21.084 47 47 47 47-21.084 47-47-21.084-47-47-47zm0 64c-9.374 0-17-7.626-17-17s7.626-17 17-17 17 7.626 17 17-7.626 17-17 17z"/><path d="m48 58.965h13v13c0 8.284 6.716 15 15 15s15-6.716 15-15v-13h13c8.284 0 15-6.716 15-15s-6.716-15-15-15h-13v-13c0-8.284-6.716-15-15-15s-15 6.716-15 15v13h-13c-8.284 0-15 6.716-15 15s6.716 15 15 15z"/><circle cx="15" cy="119.968" r="15"/><circle cx="128" cy="199.968" r="14.998"/><circle cx="192" cy="63.963" r="15"/><path d="m424.872 327.966c0 8.355 6.773 15.128 15.128 15.128s15.128-6.773 15.128-15.128c0-8.354-6.773-15.127-15.128-15.127s-15.128 6.773-15.128 15.127z"/><path d="m328 400.968c-8.284 0-14.999 6.715-14.999 14.999s6.715 14.999 14.999 14.999 14.999-6.715 14.999-14.999-6.715-14.999-14.999-14.999z"/></g></svg>