<?xml version="1.0" encoding="iso-8859-1"?>
<!-- Generator: Adobe Illustrator 19.0.0, SVG Export Plug-In . SVG Version: 6.00 Build 0)  -->
<svg version="1.1" id="Capa_1" xmlns="http://www.w3.org/2000/svg" xmlns:xlink="http://www.w3.org/1999/xlink" x="0px" y="0px"
	 viewBox="0 0 479.797 479.797" style="enable-background:new 0 0 479.797 479.797;" xml:space="preserve">
<g>
	<g>
		<path d="M382.776,126.237C374.41,60.524,322.441,8.911,256.672,0.997C177.686-8.281,106.134,48.228,96.855,127.214
			c-0.657,5.594-0.985,11.222-0.983,16.855c-0.136,44.513,20.436,86.558,55.664,113.768c10.159,7.585,16.2,19.474,16.336,32.152
			v118.08c0.048,10.298,6.66,19.417,16.432,22.664c3.834,30.689,31.821,52.46,62.51,48.625
			c25.424-3.176,45.449-23.202,48.626-48.625c9.772-3.247,16.384-12.366,16.432-22.664v-118.08
			c0.1-12.607,6.043-24.454,16.088-32.072C368.338,226.887,389.207,176.754,382.776,126.237z M239.872,464.069
			c-19.002-0.021-35.375-13.387-39.2-32h78.4C275.247,450.682,258.874,464.048,239.872,464.069z M295.872,312.069h-56
			c-4.418,0-8,3.582-8,8s3.582,8,8,8h56v8h-56c-4.418,0-8,3.582-8,8s3.582,8,8,8h56v8h-56c-4.418,0-8,3.582-8,8s3.582,8,8,8h56v8
			h-56c-4.418,0-8,3.582-8,8s3.582,8,8,8h56v8c0,4.418-3.582,8-8,8h-96c-4.418,0-8-3.582-8-8v-7.928l23.928,0.232h0.072
			c4.418,0.02,8.016-3.546,8.036-7.964s-3.546-8.016-7.964-8.036l-24.072-0.232v-8l23.928,0.232h0.072
			c4.418,0.02,8.016-3.546,8.036-7.964s-3.546-8.016-7.964-8.036l-24.072-0.232v-8l23.928,0.232h0.072
			c4.418,0.02,8.016-3.546,8.036-7.964s-3.546-8.016-7.964-8.036l-24.072-0.232v-8l23.928,0.232h0.072
			c4.418,0.02,8.016-3.546,8.036-7.964s-3.546-8.016-7.964-8.036l-24.072-0.232v-16.072h112V312.069z M366.94,159.086
			c-4.034,34.119-21.615,65.184-48.788,86.207l0.032-0.04c-11.166,8.572-18.764,20.974-21.328,34.816H182.872
			c-2.611-13.888-10.282-26.314-21.528-34.872c-55.852-43.423-65.927-123.9-22.504-179.752c4.754-6.115,10.053-11.786,15.832-16.944
			c23.325-20.978,53.614-32.537,84.984-32.432c5.079,0.003,10.154,0.294,15.2,0.872C325.059,25.242,375.241,88.882,366.94,159.086z"
			/>
	</g>
</g>
<g>
</g>
<g>
</g>
<g>
</g>
<g>
</g>
<g>
</g>
<g>
</g>
<g>
</g>
<g>
</g>
<g>
</g>
<g>
</g>
<g>
</g>
<g>
</g>
<g>
</g>
<g>
</g>
<g>
</g>
</svg>
