<svg id="Capa_1" enable-background="new 0 0 512 512" height="512" viewBox="0 0 512 512" width="512" xmlns="http://www.w3.org/2000/svg"><g><path d="m389.042 252.543c-20.764-20.761-53.721-25.183-79.249-10.609-28.458-16.244-65.478-8.609-85.217 17.48-18.508 24.462-17.278 59.191 2.476 82.538l82.722 82.761 72.628-72.629c10.868-10.868 20.078-21.305 23.948-36.838 5.562-22.321-1.04-46.419-17.308-62.703zm-18.688 69.163-60.578 60.577-60.541-60.572c-14.491-17.849-7.917-45.694 12.98-55.232 18.786-8.574 33.711 1.604 47.578 13.257 8.052-6.767 15.54-13.983 26.302-15.886 9.718-1.718 20.043.71 27.946 6.628 15.933 11.928 18.845 35.787 6.313 51.228z"/><path d="m411.029 0h-350.902v104.618h-21.382v30h21.383v38.261h-22.915v30h22.915v38.121h-22.915v30h22.915v38.4h-22.915v30h22.915v38.262h-22.915v30h22.915v104.338h350.902c35.156 0 63.758-28.322 63.758-63.478v-384.764c-.001-35.156-28.602-63.758-63.759-63.758zm-320.902 407.662h21.383v-30h-21.383v-38.262h21.383v-30h-21.383v-38.4h21.383v-30h-21.383v-38.121h21.383v-30h-21.383v-38.261h22.915v-30h-22.915v-74.618h53.011v452.279h-53.011zm354.66 40.86c0 18.613-15.144 33.757-33.758 33.757h-237.891v-452.279h237.891c18.614 0 33.758 15.144 33.758 33.758z"/><path d="m386.505 83.618h-153.424v89.963h153.424zm-30 59.963h-93.425v-29.963h93.425z"/></g></svg>