<?xml version="1.0" encoding="UTF-8" standalone="no"?>
<svg
   xmlns:dc="http://purl.org/dc/elements/1.1/"
   xmlns:cc="http://creativecommons.org/ns#"
   xmlns:rdf="http://www.w3.org/1999/02/22-rdf-syntax-ns#"
   xmlns:svg="http://www.w3.org/2000/svg"
   xmlns="http://www.w3.org/2000/svg"
   xmlns:sodipodi="http://sodipodi.sourceforge.net/DTD/sodipodi-0.dtd"
   xmlns:inkscape="http://www.inkscape.org/namespaces/inkscape"
   width="13.433171mm"
   height="15.527903mm"
   viewBox="0 0 13.433171 15.527903"
   version="1.1"
   id="svg8"
   inkscape:version="1.0.1 (c497b03c, 2020-09-10)"
   sodipodi:docname="home-empty.svg">
  <defs
     id="defs2" />
  <sodipodi:namedview
     id="base"
     pagecolor="#ffffff"
     bordercolor="#666666"
     borderopacity="1.0"
     inkscape:pageopacity="0.0"
     inkscape:pageshadow="2"
     inkscape:zoom="5.2503231"
     inkscape:cx="68.086087"
     inkscape:cy="23.41393"
     inkscape:document-units="mm"
     inkscape:current-layer="g91"
     inkscape:document-rotation="0"
     showgrid="false"
     inkscape:window-width="1434"
     inkscape:window-height="788"
     inkscape:window-x="0"
     inkscape:window-y="126"
     inkscape:window-maximized="1"
     fit-margin-top="0.1"
     fit-margin-right="0.1"
     fit-margin-bottom="0.1"
     fit-margin-left="0.1" />
  <metadata
     id="metadata5">
    <rdf:RDF>
      <cc:Work
         rdf:about="">
        <dc:format>image/svg+xml</dc:format>
        <dc:type
           rdf:resource="http://purl.org/dc/dcmitype/StillImage" />
        <dc:title></dc:title>
      </cc:Work>
    </rdf:RDF>
  </metadata>
  <g
     inkscape:label="Calque 1"
     inkscape:groupmode="layer"
     id="layer1"
     transform="translate(-86.688328,-99.559417)">
    <g
       id="g91"
       transform="matrix(0.26458333,0,0,0.26458333,66.568136,98.712529)">
      <g
         id="g1496"
         style="fill:none">
        <path
           style="fill:none;stroke:#000000;stroke-width:1.88976;stroke-linecap:butt;stroke-linejoin:round;stroke-miterlimit:4;stroke-dasharray:none;stroke-opacity:1"
           d="m 93.409496,4.523568 c -2.440401,5.3458131 -6.447649,8.602496 -10.521012,11.771027 l 3.333392,0.104168 0.416673,3.333385 3.125051,2.604214 c -0.004,2.256979 0.09842,4.513958 -1.250021,6.770937 -6.725808,0.838804 -3.055608,-2.777824 -4.583412,-4.166736 l 3.020883,-0.520842 -5.312586,-4.062561 -4.270901,4.270904 2.44031,0.624422 c -1.584857,4.688607 -2.360612,9.667787 -0.04444,13.542472 0.908608,1.519995 3.12505,2.133672 4.687575,2.500042 1.243079,2.577048 0.224398,5.375657 -0.20833,7.39595 -3.560054,0.384604 -3.326971,4.290376 -3.6459,4.06257 -0.55809,2.50004 -2.616648,5.00008 -2.916709,7.50012 l 46.459081,0.312501 c -1.6018,-7.898322 -2.77184,-14.334804 -0.78556,-23.331833 l 2.13974,-0.106046 c -5.88137,-2.653266 -10.25538,-8.77675 -12.81269,-13.646056 -2.8325,4.911261 -4.94542,8.750222 -10.2085,11.771027 -2.31524,-1.095185 -3.333394,-3.02088 -3.333394,-3.02088 -0.809408,-3.125052 -1.456608,-6.250104 -0.625003,-9.375156 l 2.604207,-2.500035 c 0,0 0.4514,-2.32643 0.62501,-3.750065 l 3.22922,-0.416675 C 100.17191,13.073906 96.543416,9.3064423 93.409496,4.523568 Z"
           id="path132"
           sodipodi:nodetypes="cccccccccccaccccccccccccccc" />
        <path
           style="fill:none;stroke:#000000;stroke-width:1.88976;stroke-linecap:butt;stroke-linejoin:round;stroke-miterlimit:4;stroke-dasharray:none;stroke-opacity:1"
           d="m 96.117869,59.83697 c 0.698325,-6.593462 -0.386346,-14.969919 4.687581,-17.18778 5.07025,2.354678 3.8811,10.621012 4.2709,17.39611"
           id="path957"
           sodipodi:nodetypes="ccc" />
        <path
           style="fill:none;stroke:#000000;stroke-width:1.88976;stroke-linecap:butt;stroke-linejoin:round;stroke-miterlimit:4;stroke-dasharray:none;stroke-opacity:1"
           d="m 110.80443,49.537324 c -0.12959,-5.070964 0.75647,-7.7721 2.2917,-8.95848 2.81974,1.919326 3.02679,5.406268 3.12505,8.95848 z"
           id="path959"
           sodipodi:nodetypes="cccc" />
        <path
           style="fill:none;stroke:#000000;stroke-width:1.88976;stroke-linecap:butt;stroke-linejoin:round;stroke-miterlimit:4;stroke-dasharray:none;stroke-opacity:1"
           d="m 91.013621,40.878325 c -0.12959,-5.07096 0.443967,-9.855467 1.979197,-11.041847 2.81974,1.91933 1.880942,7.489637 1.979202,11.041847 z"
           id="path959-8"
           sodipodi:nodetypes="cccc" />
        <path
           style="fill:none;stroke:#000000;stroke-width:1.88976;stroke-linecap:butt;stroke-linejoin:round;stroke-miterlimit:4;stroke-dasharray:none;stroke-opacity:1"
           d="m 92.026456,16.815433 c -0.12959,-5.07096 1.97919,-4.479244 1.97919,-4.479244 2.090561,0.460973 1.97921,4.479244 1.97921,4.479244 z"
           id="path959-8-8"
           sodipodi:nodetypes="cccc" />
      </g>
    </g>
  </g>
</svg>
