<svg xmlns="http://www.w3.org/2000/svg" width="13" height="15" viewBox="0 0 13.2 15.3">
    <g transform="translate(-90.035261 -101.63763)matrix(0.26458333 0 0 0.26458333 66.568136 98.712529)">
      <path d="m105.7 12c-2.4 5.3-6.4 8.6-10.5 11.8l3.3 0.1 0.4 3.3 3.1 2.6c0 2.3 0.1 4.5-1.3 6.8-6.7 0.8-3.1-2.8-4.6-4.2l3-0.5-5.3-4.1-4.3 4.3 2.4 0.6c-1.6 4.7-2.4 9.7 0 13.5 0.9 1.5 3.1 2.1 4.7 2.5 1.2 2.6 0.2 5.4-0.2 7.4-3.6 0.4-3.3 4.3-3.6 4.1-0.6 2.5-2.6 5-2.9 7.5l46.5 0.3c-1.6-7.9-2.8-14.3-0.8-23.3l2.1-0.1c-5.9-2.7-10.3-8.8-12.8-13.6-2.8 4.9-4.9 8.8-10.2 11.8-2.3-1.1-3.3-3-3.3-3-0.8-3.1-1.5-6.3-0.6-9.4l2.6-2.5c0 0 0.5-2.3 0.6-3.8l3.2-0.4c-4.8-3.1-8.4-6.9-11.6-11.7z" class="a"/>
        <path d="m108.4 67.3c0.7-6.6-0.4-15 4.7-17.2 5.1 2.4 3.9 10.6 4.3 17.4" class="a"/>
        <path d="m123.1 57c-0.1-5.1 0.8-7.8 2.3-9 2.8 1.9 3 5.4 3.1 9z" class="a"/>
        <path d="m103.3 48.4c-0.1-5.1 0.4-9.9 2-11 2.8 1.9 1.9 7.5 2 11z" class="a"/>
        <path d="m104.3 24.3c-0.1-5.1 2-4.5 2-4.5 2.1 0.5 2 4.5 2 4.5z" class="a"/>
        <path d="m357.2 386.2c-0.8 0.2-0.9 1.2-1.4 1.7-1.8 2.8-4.3 5.2-6.8 7.3-0.7 0.6-0.2 1.8 0.6 1.8 0.5-0.1 0.7 0.1 0.6 0.6 0.2 1 0.1 2.3 0.8 3.1 0.8 0.8 1.9 1.4 2.6 2.3 0.1 1.4-0.1 2.7-0.3 4.1-0.2 0.9-0.5 1.8-1 2.6-1.1 0.1-2.1 0.1-3.2 0-0.7-0.2-1.1-0.9-1-1.6 0-0.8 0.1-1.8-0.3-2.5 0.7 0 1.5-0.5 1.4-1.2-0.1-0.9-1.1-1.2-1.7-1.8-0.7-0.5-1.5-1.5-2.4-1.1-1 0.7-1.8 1.7-2.7 2.6-0.6 0.7 0.1 1.6 0.9 1.7 0.6 0 0.2 0.6 0.1 1-1.1 3.7-1.9 7.8-0.4 11.4 0.5 1.6 1.9 2.7 3.4 3.2 0.6 0.2 1.3 0.4 1.9 0.6 0.7 1.3 0.5 2.8 0.4 4.2-0.1 1.1-0.4 2.1-0.7 3.1-1.6 0.2-2.9 1.5-3.3 3-0.6 2.6-2 4.8-3 7.3-0.2 0.8 0.6 1.5 1.3 1.3 5.3 0 10.5 0 15.8 0.1 0.8 0 1.1-0.9 1.1-1.6 0.3-3.7 0.2-7.4 0.9-11 0.5-2.1 1.6-4.3 3.7-5.2 1.7 0.8 2.9 2.5 3.3 4.4 0.8 3 0.7 6.1 0.8 9.1 0.1 1.3-0.1 2.6 0.2 3.8 0.6 0.8 1.7 0.4 2.6 0.5 5.1 0 10.2 0.1 15.2 0.1 0.8-0.1 1.1-1 0.8-1.7-1-4.7-1.6-9.5-1.4-14.3 0-2.7 0.5-5.3 1.1-7.9 0-1-1.2-1.4-1.8-2-3.3-2.5-5.8-5.9-7.9-9.4-0.3-0.7-1.4-1-1.9-0.3-1.5 2.5-3.1 5-5.2 7.1-1.2 1.2-2.6 2.3-4.1 3.1-1.3-0.6-2.4-1.6-3.1-2.7-0.7-1.8-1.1-3.7-1.1-5.6 0-1.3-0.1-2.7 0.3-4 0.9-0.9 1.9-1.7 2.6-2.7 0.3-1.2 0.4-2.4 0.6-3.5 0.9 0.1 1.6-1.1 1-1.8-1-1.1-2.3-1.9-3.3-3-1.9-1.8-3.5-3.8-5.1-5.8-0.3-0.3-0.7-0.5-1.1-0.4zm0.7 6.7c1.3 0.2 1.6 1.7 1.9 2.8 0.1 0.5 0.2 1.1 0.1 1.6-1.3 0.1-2.6 0-3.9 0 0-1.4-0.1-3 0.9-4.1 0.3-0.2 0.6-0.3 1-0.3zm-0.9 17.5c1.7 1.3 1.9 3.6 1.9 5.5 0 1.8 0 3.7-0.1 5.4-1.3 0-2.6 0-3.9 0-0.1-3 0-6 0.8-8.9 0.3-0.7 0.5-1.6 1.1-2zm20.1 10.7c1.7 1.1 2.5 3.2 2.8 5.1 0.2 1.3 0.3 2.5 0.3 3.8-1.8 0-3.6 0-5.4 0 0.1-2.9-0.1-6.1 1.8-8.5 0.2-0.1 0.3-0.4 0.5-0.4z" style="stroke-linejoin:round;stroke-width:0.02"/>
    </g>
</svg>
