<?xml version="1.0" encoding="UTF-8" standalone="no"?>
<svg
   xmlns:dc="http://purl.org/dc/elements/1.1/"
   xmlns:cc="http://creativecommons.org/ns#"
   xmlns:rdf="http://www.w3.org/1999/02/22-rdf-syntax-ns#"
   xmlns:svg="http://www.w3.org/2000/svg"
   xmlns="http://www.w3.org/2000/svg"
   xmlns:sodipodi="http://sodipodi.sourceforge.net/DTD/sodipodi-0.dtd"
   xmlns:inkscape="http://www.inkscape.org/namespaces/inkscape"
   width="13.233171mm"
   height="15.327903mm"
   viewBox="0 0 13.23317 15.327903"
   version="1.1"
   id="svg8"
   inkscape:version="1.0.1 (c497b03c, 2020-09-10)"
   sodipodi:docname="home-full.svg">
  <defs
     id="defs2" />
  <sodipodi:namedview
     id="base"
     pagecolor="#ffffff"
     bordercolor="#666666"
     borderopacity="1.0"
     inkscape:pageopacity="0.0"
     inkscape:pageshadow="2"
     inkscape:zoom="10.033193"
     inkscape:cx="24.890224"
     inkscape:cy="29.500386"
     inkscape:document-units="mm"
     inkscape:current-layer="g91"
     inkscape:document-rotation="0"
     showgrid="false"
     inkscape:window-width="1434"
     inkscape:window-height="788"
     inkscape:window-x="0"
     inkscape:window-y="126"
     inkscape:window-maximized="1"
     fit-margin-top="0"
     fit-margin-left="0"
     fit-margin-right="0"
     fit-margin-bottom="0" />
  <metadata
     id="metadata5">
    <rdf:RDF>
      <cc:Work
         rdf:about="">
        <dc:format>image/svg+xml</dc:format>
        <dc:type
           rdf:resource="http://purl.org/dc/dcmitype/StillImage" />
        <dc:title></dc:title>
      </cc:Work>
    </rdf:RDF>
  </metadata>
  <g
     inkscape:label="Calque 1"
     inkscape:groupmode="layer"
     id="layer1"
     transform="translate(-90.035261,-101.63763)">
    <g
       id="g91"
       transform="matrix(0.26458333,0,0,0.26458333,66.568136,98.712529)">
      <path
         style="fill:none;stroke:#000000;stroke-width:1.88976;stroke-linecap:butt;stroke-linejoin:round;stroke-miterlimit:4;stroke-dasharray:none;stroke-opacity:1"
         d="m 105.68137,12.000263 c -2.4404,5.345813 -6.447649,8.602496 -10.521012,11.771027 l 3.333392,0.104168 0.416673,3.333385 3.125047,2.604214 c -0.004,2.256979 0.0984,4.513958 -1.25002,6.770937 -6.725805,0.838804 -3.055605,-2.777824 -4.583409,-4.166736 l 3.020883,-0.520842 -5.312586,-4.062561 -4.270901,4.270904 2.44031,0.624422 c -1.584857,4.688607 -2.360612,9.667787 -0.04444,13.542472 0.908608,1.519995 3.12505,2.133672 4.687575,2.500042 1.243079,2.577048 0.224398,5.375657 -0.20833,7.39595 -3.560054,0.384604 -3.326971,4.290376 -3.6459,4.06257 -0.55809,2.50004 -2.616648,5.00008 -2.916709,7.50012 l 46.459077,0.312501 c -1.6018,-7.898322 -2.77184,-14.334804 -0.78556,-23.331833 l 2.13974,-0.106046 c -5.88137,-2.653266 -10.25538,-8.77675 -12.81269,-13.646056 -2.8325,4.911261 -4.94542,8.750222 -10.2085,11.771027 -2.31524,-1.095185 -3.33339,-3.02088 -3.33339,-3.02088 -0.80941,-3.125052 -1.45661,-6.250104 -0.625,-9.375156 l 2.6042,-2.500035 c 0,0 0.4514,-2.32643 0.62501,-3.750065 l 3.22922,-0.416675 c -4.80027,-3.116516 -8.42876,-6.883979 -11.56268,-11.666854 z"
         id="path132"
         sodipodi:nodetypes="cccccccccccaccccccccccccccc" />
      <g
         id="g2211">
        <path
           style="fill:none;stroke:#000000;stroke-width:1.88976;stroke-linecap:butt;stroke-linejoin:round;stroke-miterlimit:4;stroke-dasharray:none;stroke-opacity:1"
           d="m 108.38974,67.313665 c 0.69833,-6.593462 -0.38634,-14.969919 4.68758,-17.18778 5.07025,2.354678 3.8811,10.621012 4.2709,17.39611"
           id="path957"
           sodipodi:nodetypes="ccc" />
        <path
           style="fill:none;stroke:#000000;stroke-width:1.88976;stroke-linecap:butt;stroke-linejoin:round;stroke-miterlimit:4;stroke-dasharray:none;stroke-opacity:1"
           d="m 123.0763,57.014019 c -0.12959,-5.070964 0.75647,-7.7721 2.2917,-8.95848 2.81974,1.919326 3.02679,5.406268 3.12505,8.95848 z"
           id="path959"
           sodipodi:nodetypes="cccc" />
        <path
           style="fill:none;stroke:#000000;stroke-width:1.88976;stroke-linecap:butt;stroke-linejoin:round;stroke-miterlimit:4;stroke-dasharray:none;stroke-opacity:1"
           d="m 103.28549,48.35502 c -0.12958,-5.07096 0.44397,-9.855467 1.9792,-11.041847 2.81974,1.91933 1.88094,7.489637 1.9792,11.041847 z"
           id="path959-8"
           sodipodi:nodetypes="cccc" />
        <path
           style="fill:none;stroke:#000000;stroke-width:1.88976;stroke-linecap:butt;stroke-linejoin:round;stroke-miterlimit:4;stroke-dasharray:none;stroke-opacity:1"
           d="m 104.29833,24.292128 c -0.12959,-5.07096 1.97919,-4.479244 1.97919,-4.479244 2.09056,0.460973 1.97921,4.479244 1.97921,4.479244 z"
           id="path959-8-8"
           sodipodi:nodetypes="cccc" />
        <path
           style="fill:#000000;fill-opacity:1;stroke-width:0.0195885;stroke-linejoin:round"
           d="m 357.16228,386.19034 c -0.81105,0.18557 -0.91566,1.15806 -1.4252,1.69259 -1.80695,2.83763 -4.26974,5.17052 -6.8417,7.30664 -0.6737,0.57613 -0.23319,1.76068 0.64637,1.76672 0.45026,-0.0623 0.68506,0.0991 0.61419,0.56486 0.21557,1.04274 0.0554,2.30664 0.83639,3.13562 0.84157,0.81467 1.87664,1.44712 2.6241,2.34632 0.0976,1.35599 -0.0686,2.72984 -0.26066,4.07884 -0.17601,0.90311 -0.50699,1.82587 -1.0107,2.5733 -1.06781,0.0549 -2.14377,0.11772 -3.19039,-0.044 -0.70755,-0.20887 -1.10228,-0.9209 -0.98211,-1.63168 -0.0121,-0.82278 0.11217,-1.76551 -0.33267,-2.47208 0.66803,-0.024 1.48407,-0.46204 1.37024,-1.23174 -0.14283,-0.86342 -1.09094,-1.21485 -1.65512,-1.77752 -0.7259,-0.46457 -1.45343,-1.48543 -2.41788,-1.0716 -1.00649,0.74392 -1.84836,1.712 -2.71644,2.60435 -0.58442,0.67631 0.0546,1.63869 0.86179,1.69154 0.61118,-0.002 0.163,0.62517 0.12097,0.96504 -1.12693,3.66123 -1.85882,7.77089 -0.37357,11.44287 0.53,1.55837 1.88209,2.68944 3.42782,3.17041 0.61054,0.24978 1.29433,0.37407 1.88833,0.61624 0.6657,1.29105 0.47611,2.77354 0.44539,4.1719 -0.13511,1.06613 -0.41634,2.10991 -0.70936,3.14211 -1.59933,0.18718 -2.88278,1.48925 -3.25346,3.02317 -0.62594,2.56961 -2.04148,4.83902 -2.98592,7.28439 -0.24628,0.80976 0.57519,1.48688 1.3478,1.31694 5.2768,-0.0163 10.54461,0.0361 15.81645,0.1314 0.8443,-0.0152 1.11119,-0.90637 1.06997,-1.61277 0.30653,-3.6833 0.17638,-7.35219 0.94502,-10.97124 0.48509,-2.09203 1.5593,-4.34457 3.67472,-5.1682 1.7484,0.81511 2.86425,2.54407 3.34177,4.36577 0.82451,2.97126 0.66824,6.10636 0.79745,9.13762 0.1005,1.26492 -0.0943,2.57568 0.21974,3.8079 0.61676,0.79447 1.71886,0.39792 2.57931,0.5063 5.07653,0.023 10.16154,0.0651 15.23276,0.0779 0.8364,-0.0525 1.06919,-1.02434 0.7931,-1.69188 -0.97398,-4.69323 -1.61063,-9.48692 -1.40738,-14.25685 0.0389,-2.65441 0.53746,-5.28062 1.06192,-7.88621 -0.0103,-1.02979 -1.1732,-1.36428 -1.81293,-1.97801 -3.25668,-2.53458 -5.77258,-5.87318 -7.93168,-9.35742 -0.33453,-0.73003 -1.40133,-1.0076 -1.91123,-0.30874 -1.52025,2.49129 -3.05095,5.02749 -5.18362,7.05566 -1.24474,1.18939 -2.62848,2.27932 -4.14402,3.08412 -1.2628,-0.58988 -2.37951,-1.56378 -3.14522,-2.72688 -0.66505,-1.79893 -1.05361,-3.70815 -1.08935,-5.61788 -0.009,-1.33743 -0.0638,-2.70144 0.27019,-4.00818 0.86086,-0.92622 1.91863,-1.69737 2.6464,-2.72848 0.31738,-1.15106 0.35126,-2.39147 0.64132,-3.52498 0.93521,0.075 1.60501,-1.1 0.971,-1.82811 -1.03289,-1.06048 -2.29014,-1.8867 -3.31206,-2.96671 -1.87307,-1.78151 -3.51479,-3.78372 -5.09461,-5.82209 -0.2657,-0.28856 -0.66452,-0.45525 -1.05723,-0.37726 z m 0.68561,6.73078 c 1.26112,0.24133 1.64704,1.69164 1.85323,2.78393 0.0831,0.54093 0.15722,1.10179 0.11407,1.64376 -1.30359,0.0689 -2.59382,0.0435 -3.88087,-0.009 0.0255,-1.38795 -0.0642,-3.0247 0.93713,-4.12439 0.26198,-0.24517 0.63045,-0.30496 0.97644,-0.29434 z m -0.92369,17.53594 c 1.68643,1.27157 1.8821,3.56782 1.94219,5.5184 0.0383,1.75825 0.0215,3.67325 -0.088,5.41892 -1.28669,0.0264 -2.5811,0.0322 -3.86354,-0.0278 -0.11134,-2.97495 -0.007,-6.01522 0.8063,-8.89645 0.25529,-0.71199 0.49988,-1.58581 1.14367,-2.01363 z m 20.074,10.72183 c 1.73376,1.10769 2.49751,3.16523 2.78957,5.11825 0.21056,1.25014 0.30381,2.5201 0.28518,3.78754 -1.79354,-0.008 -3.60042,0.0161 -5.38564,-0.0121 0.0952,-2.86228 -0.12764,-6.08652 1.78548,-8.46662 0.15144,-0.14621 0.3197,-0.39733 0.52541,-0.4271 z"
           id="path2204"
           transform="translate(-251.59611,-373.08673)" />
      </g>
    </g>
  </g>
</svg>
