<svg xmlns="http://www.w3.org/2000/svg" width="16" height="14" viewBox="0 0 16.5 14.4"><style>.a{fill:none;stroke-linejoin:round;stroke-width:4;stroke:#000;}.b{fill:none;}.c{fill:none;stroke-width:4;}.d{fill:none;stroke-width:4;stroke:#000;}</style><g transform="translate(-69.041648 -134.45937)matrix(0.17492104 0 0 0.18580917 71.700742 136.15108)matrix(0.69221612 0 0 0.58130255 10.31076 10.890588)" stroke-width="3"><path d="M5.4-0.3 80.6-17.3l0 89.4-75.5 22z" class="a"/><path d="m14.4 77.6c-1.8 0-3.3 1.6-3.3 3.7 0 2 1.5 3.6 3.3 3.6 1.8 0 3.3-1.6 3.3-3.6 0-2-1.5-3.7-3.3-3.7z" class="c"/><path d="m72.5 61.8c-1.8 0-3.3 1.6-3.3 3.7 0 2 1.5 3.6 3.3 3.6 1.8 0 3.3-1.6 3.3-3.6 0-2-1.5-3.7-3.3-3.7z" class="c"/><path d="M71.1-14.8V10.4l-10.1 2.2" class="b"/><path d="m26.2 87.2 0.3-40 35-10.4v40.6" class="b"/><path d="M2.8 32.5C6 29.7-12.6-27.9-21.1-26.1c-7 1.5-22.4 16.1-20.8 27.3 1.5 11.1 15.9-10.2 17.6 0.9 1.2 8-11.8 15.7-9.5 22.8 3.8 11.3 18-21.3 21.5-9.7 2.2 7.2-9.9 15.6-7.1 22 2.9 6.7 6.8-5.9 11.3-7.8 2.5-1 11 3.2 11 3.2z" style="fill:none;stroke-linejoin:round;stroke-width:5;stroke:#000"/><path d="m61.8-13.8c0 0 6.8-11.1 12-14.7 3.8-2.6 20.6-6.3 23-1 3.2 7.4-11.5 7-10.5 12 0.9 4.5 10.2 0 10.3 3.4 0.2 6.4-7.8 4.8-8.1 8.6-0.4 5.8 5.4 3.5 5.5 7.4 0.1 6.2-12.6 3.5-11.4 4.7" class="a"/><path d="m52.5 7.7c-0.8 0.2-1.7 0.2-2.4 0.6-0.3 0.7-0.1 1.5-0.2 2.3 0 2.6 0 5.2 0 7.8-0.4 0.4-1.1 0.3-1.6 0.5-1.2 0.3-2.4 0.4-3.5 0.8-0.6 0.5-0.1 1.5-0.5 2.1-3.7 1.1-7.4 1.9-11.2 2.8-2.9 0.7-5.7 1.5-8.6 2-0.5-0.1-0.4-0.8-0.4-1.2 0-3.8 0.1-7.7 0.1-11.5-0.2-0.7-1.1-0.2-1.6-0.2-0.9 0.2-1.8 0.2-2.6 0.6-0.3 1-0.1 2.1-0.1 3.2-0.1 11.1-0.2 22.3-0.1 33.4-0.1 0.6 0.6 0.8 1.1 0.6 2.4-0.6 4.7-1.2 7.1-1.9 0.6-0.4 0.2-1.3 0.4-2 0.1-4.9 0-9.7 0.2-14.6 0.9-0.4 1.9-0.6 2.8-0.9 4.6-1.2 9.2-2.5 13.8-3.6 0.7 0.2 0.3 1 0.4 1.5 0 4.8-0.1 9.6 0.1 14.4 0.3 0.7 1.2 0.2 1.7 0.1 1.8-0.5 3.7-0.9 5.5-1.5 0.5-0.5 0.3-1.3 0.4-2 0.1-10.2 0.1-20.5 0-30.7C53.1 9.7 53.3 8.7 53 7.9 52.9 7.8 52.7 7.7 52.5 7.7ZM50.1 39.8c0.8-0.1 1.4 0.9 0.9 1.6-0.5 0.8-1.9 0.5-1.9-0.4-0.1-0.6 0.4-1.2 1-1.2zM23.5 46.2c0.9 0 1.4 1.2 0.7 1.8-0.6 0.7-2 0.1-1.8-0.9 0-0.5 0.5-0.9 1-0.9z"/><path d="M7.3 4C5.9 4.4 4.7 5.2 3.6 6.1 1.3 8-1 10.3-1.6 13.3c0 0.6-0.2 1.5 0.5 1.8 0.8 0 1.5-0.6 2.2-0.9 1.3-0.6 2.7-1.7 4.2-1.2 0.9 0.4 1.2 1.5 1.1 2.5 0 1.5-1.1 2.7-1.9 3.8-0.9 1.2-2.1 2.3-2.5 3.8-0.1 0.5 0.1 1.6 0.9 1.2 2.2-1.6 3.7-3.9 5.9-5.4 0.9-0.6 2.4-0.5 2.9 0.6 0.8 1.5 0 3.2-0.9 4.5-0.8 1.4-2 2.6-2.3 4.2-0.1 0.7 0.8 0.8 1.1 0.3 1.1-1.1 1.9-2.8 3.5-3.2 1.3-0.1 2.5 0.3 3.7 0.6 0.7 0 0.7-0.8 0.5-1.2C15.9 19.3 13.9 14.1 11.3 9.1 10.3 7.3 9.4 5.5 7.8 4.2 7.7 4.1 7.5 4 7.3 4Z"/><path d="m57.6 1.3c-2.2 0.1-4.4 0.4-6.3 1.3-1.7 1-2.9 2.6-4.2 4.1-0.4 0.3-0.3 1.2 0.3 1.1 2.2-0.4 4.4-1 6.6-1.2 0.6 0.4 0.2 1.2 0.3 1.8 0 2.4 0 4.9 0 7.3 0.3 0.7 1.2 0.3 1.8 0.4 1-0.1 2.2 0 3-0.8 0.4-0.4 0.2-1.1-0.4-1.2C57.8 13.9 56.8 13.3 56.8 12.2 56.7 11.3 57.4 10.7 58.1 10.4 58.9 10 60 9.8 60.4 9 60.6 8.2 59.6 8.3 59.1 8.2 58 8.2 56.6 8.4 56 7.4 55.6 6.7 55.9 5.8 56.7 5.5 57.9 4.7 59.4 4.4 60.5 3.5 61.2 2.7 60.5 1.7 59.6 1.5 59 1.3 58.2 1.3 57.6 1.3Z"/></g></svg>