<?xml version="1.0" encoding="UTF-8" standalone="no"?>
<svg
   xmlns:dc="http://purl.org/dc/elements/1.1/"
   xmlns:cc="http://creativecommons.org/ns#"
   xmlns:rdf="http://www.w3.org/1999/02/22-rdf-syntax-ns#"
   xmlns:svg="http://www.w3.org/2000/svg"
   xmlns="http://www.w3.org/2000/svg"
   xmlns:sodipodi="http://sodipodi.sourceforge.net/DTD/sodipodi-0.dtd"
   xmlns:inkscape="http://www.inkscape.org/namespaces/inkscape"
   width="16.455296mm"
   height="14.355799mm"
   viewBox="0 0 16.455296 14.355799"
   version="1.1"
   id="svg8"
   inkscape:version="1.0.1 (c497b03c, 2020-09-10)"
   sodipodi:docname="imaginarium-empty.svg">
  <defs
     id="defs2" />
  <sodipodi:namedview
     id="base"
     pagecolor="#ffffff"
     bordercolor="#666666"
     borderopacity="1.0"
     inkscape:pageopacity="0.0"
     inkscape:pageshadow="2"
     inkscape:zoom="9.9901706"
     inkscape:cx="23.360699"
     inkscape:cy="26.44486"
     inkscape:document-units="mm"
     inkscape:current-layer="g1676"
     inkscape:document-rotation="0"
     showgrid="false"
     inkscape:window-width="1440"
     inkscape:window-height="900"
     inkscape:window-x="0"
     inkscape:window-y="101"
     inkscape:window-maximized="0"
     inkscape:snap-global="false"
     fit-margin-top="0"
     fit-margin-left="0"
     fit-margin-right="0"
     fit-margin-bottom="0" />
  <metadata
     id="metadata5">
    <rdf:RDF>
      <cc:Work
         rdf:about="">
        <dc:format>image/svg+xml</dc:format>
        <dc:type
           rdf:resource="http://purl.org/dc/dcmitype/StillImage" />
        <dc:title></dc:title>
      </cc:Work>
    </rdf:RDF>
  </metadata>
  <g
     inkscape:label="Calque 1"
     inkscape:groupmode="layer"
     id="layer1"
     transform="translate(-69.041648,-134.45937)">
    <g
       id="g1701"
       transform="matrix(0.17492104,0,0,0.18580917,71.700742,136.15108)">
      <g
         id="g1676"
         style="stroke-width:2.77342;stroke-miterlimit:4;stroke-dasharray:none"
         transform="matrix(0.69221612,0,0,0.58130255,10.31076,10.890588)">
        <g
           id="g2106">
          <g
             id="g2019"
             transform="matrix(1.3231045,0,0,1.2833585,2.3548231,9.8801575)"
             style="stroke-width:3.35523;stroke-miterlimit:4;stroke-dasharray:none">
            <path
               style="fill:none;stroke:#000000;stroke-width:3.35523;stroke-linecap:butt;stroke-linejoin:round;stroke-miterlimit:4;stroke-dasharray:none;stroke-opacity:1"
               d="M 2.2962628,-7.9155527 59.165731,-21.156346 59.16573,48.480413 2.0775344,65.644405 Z"
               id="path1729"
               sodipodi:nodetypes="ccccc" />
            <path
               style="fill:none;stroke:#000000;stroke-width:3.35523;stroke-linecap:butt;stroke-linejoin:round;stroke-miterlimit:4;stroke-dasharray:none;stroke-opacity:1"
               d="M 11.264141,15.623634 11.482869,-9.8771536 42.761077,-16.987948 42.979805,6.5512379 Z"
               id="path1731"
               sodipodi:nodetypes="ccccc" />
            <ellipse
               style="fill:none;stroke:#000000;stroke-width:3.35523;stroke-linecap:round;stroke-linejoin:round;stroke-miterlimit:4;stroke-dasharray:none;stroke-opacity:1"
               id="path1744"
               cx="21.981848"
               cy="-0.069158778"
               rx="5.2056212"
               ry="5.7358227" />
            <path
               d="m 9.0761904,52.740785 c -1.389987,0 -2.521244,1.281911 -2.521244,2.857125 0,1.567773 1.131257,2.843723 2.521244,2.843723 1.3913116,0 2.5225686,-1.27595 2.5225686,-2.843723 0,-1.575214 -1.131257,-2.857125 -2.5225686,-2.857125 z"
               id="path1674-8"
               style="stroke-width:3.35523;stroke-miterlimit:4;stroke-dasharray:none" />
            <path
               d="m 53.040666,40.480792 c -1.38999,0 -2.52125,1.281911 -2.52125,2.857125 0,1.567773 1.13126,2.843723 2.52125,2.843723 1.39131,0 2.52257,-1.27595 2.52257,-2.843723 0,-1.575214 -1.13126,-2.857125 -2.52257,-2.857125 z"
               id="path1674-8-8"
               style="stroke-width:3.35523;stroke-miterlimit:4;stroke-dasharray:none" />
            <path
               style="fill:none;stroke:#000000;stroke-width:3.35523;stroke-linecap:butt;stroke-linejoin:round;stroke-miterlimit:4;stroke-dasharray:none;stroke-opacity:1"
               d="M 51.947684,-19.194747 V 0.42124048 L 44.292178,2.1376401"
               id="path1776" />
            <path
               style="fill:none;stroke:#000000;stroke-width:3.35523;stroke-linecap:butt;stroke-linejoin:round;stroke-miterlimit:4;stroke-dasharray:none;stroke-opacity:1"
               d="M 18.04473,60.250007 18.263458,29.109624 44.729636,21.018029 V 52.648812"
               id="path1778" />
            <path
               style="fill:none;stroke:#000000;stroke-width:3.35523;stroke-linecap:round;stroke-linejoin:miter;stroke-miterlimit:4;stroke-dasharray:none;stroke-opacity:1"
               d="M 23.950407,35.975221 38.605231,31.071223"
               id="path1780" />
            <path
               style="fill:none;stroke:#000000;stroke-width:3.35523;stroke-linecap:round;stroke-linejoin:miter;stroke-miterlimit:4;stroke-dasharray:none;stroke-opacity:1"
               d="M 23.950405,44.312016 38.605229,39.408018"
               id="path1780-7" />
            <path
               style="fill:none;stroke:#000000;stroke-width:3.35523;stroke-linecap:round;stroke-linejoin:miter;stroke-miterlimit:4;stroke-dasharray:none;stroke-opacity:1"
               d="M 23.950405,52.158411 38.605229,47.254413"
               id="path1780-7-4" />
          </g>
          <path
             style="fill:none;stroke:#000000;stroke-width:5.24732;stroke-linecap:butt;stroke-linejoin:round;stroke-miterlimit:4;stroke-dasharray:none;stroke-opacity:1"
             d="M 2.7838982,32.526839 C 6.0312821,29.676325 -12.55218,-27.938246 -21.081962,-26.148232 c -7.041789,1.477751 -22.371771,16.098809 -20.848833,27.3086713 1.507675,11.0975037 15.92847,-10.1600195 17.602504,0.8515549 1.220716,8.0297018 -11.803533,15.7187198 -9.452506,22.7887818 3.773291,11.347125 17.970924,-21.3440671 21.46591,-9.745839 2.164374,7.182549 -9.925838,15.645674 -7.129616,21.996985 2.927977,6.650575 6.783523,-5.932227 11.2509095,-7.767632 2.5324383,-1.04044 10.9774917,3.242549 10.9774917,3.242549 z"
             id="path2047"
             sodipodi:nodetypes="csssssssc" />
          <path
             style="fill:none;stroke:#000000;stroke-width:4.37213;stroke-linecap:round;stroke-linejoin:round;stroke-miterlimit:4;stroke-dasharray:none;stroke-opacity:1"
             d="m 61.790476,-13.80035 c 0,0 6.843394,-11.122888 12.030079,-14.711992 3.771994,-2.610159 20.611839,-6.343572 22.966517,-0.980799 3.239278,7.377455 -11.468785,7.044527 -10.498977,12.014793 0.8798,4.50897 10.16348,0.0326 10.280249,3.432798 0.219681,6.3969224 -7.816634,4.759037 -8.092964,8.581994 -0.415627,5.75011118 5.422092,3.4948898 5.468219,7.355997 0.07372,6.1711381 -12.608078,3.4922079 -11.373895,4.6587965"
             id="path2073"
             sodipodi:nodetypes="cssssssc" />
        </g>
      </g>
    </g>
  </g>
</svg>
