<?xml version="1.0" encoding="UTF-8" standalone="no"?>
<svg
   xmlns:dc="http://purl.org/dc/elements/1.1/"
   xmlns:cc="http://creativecommons.org/ns#"
   xmlns:rdf="http://www.w3.org/1999/02/22-rdf-syntax-ns#"
   xmlns:svg="http://www.w3.org/2000/svg"
   xmlns="http://www.w3.org/2000/svg"
   xmlns:sodipodi="http://sodipodi.sourceforge.net/DTD/sodipodi-0.dtd"
   xmlns:inkscape="http://www.inkscape.org/namespaces/inkscape"
   width="16.455296mm"
   height="14.355799mm"
   viewBox="0 0 16.455296 14.355799"
   version="1.1"
   id="svg8"
   inkscape:version="1.0.1 (c497b03c, 2020-09-10)"
   sodipodi:docname="imaginarium-full.svg">
  <defs
     id="defs2" />
  <sodipodi:namedview
     id="base"
     pagecolor="#ffffff"
     bordercolor="#666666"
     borderopacity="1.0"
     inkscape:pageopacity="0.0"
     inkscape:pageshadow="2"
     inkscape:zoom="9.9901706"
     inkscape:cx="25.612913"
     inkscape:cy="26.945352"
     inkscape:document-units="mm"
     inkscape:current-layer="g1676"
     inkscape:document-rotation="0"
     showgrid="false"
     inkscape:window-width="1440"
     inkscape:window-height="788"
     inkscape:window-x="0"
     inkscape:window-y="126"
     inkscape:window-maximized="0"
     inkscape:snap-global="false"
     fit-margin-top="0"
     fit-margin-left="0"
     fit-margin-right="0"
     fit-margin-bottom="0" />
  <metadata
     id="metadata5">
    <rdf:RDF>
      <cc:Work
         rdf:about="">
        <dc:format>image/svg+xml</dc:format>
        <dc:type
           rdf:resource="http://purl.org/dc/dcmitype/StillImage" />
        <dc:title />
      </cc:Work>
    </rdf:RDF>
  </metadata>
  <g
     inkscape:label="Calque 1"
     inkscape:groupmode="layer"
     id="layer1"
     transform="translate(-69.041648,-134.45937)">
    <g
       id="g1701"
       transform="matrix(0.17492104,0,0,0.18580917,71.700742,136.15108)">
      <g
         id="g1676"
         style="stroke-width:2.77342;stroke-miterlimit:4;stroke-dasharray:none"
         transform="matrix(0.69221612,0,0,0.58130255,10.31076,10.890588)">
        <path
           style="fill:none;stroke:#000000;stroke-width:4.37213;stroke-linecap:butt;stroke-linejoin:round;stroke-miterlimit:4;stroke-dasharray:none;stroke-opacity:1"
           d="M 5.3930187,-0.27833434 80.637268,-17.271019 l -1e-6,89.368927 -75.5336488,22.027555 z"
           id="path1729"
           sodipodi:nodetypes="ccccc" />
        <path
           style="fill:none;stroke:#000000;stroke-width:4.37213;stroke-linecap:butt;stroke-linejoin:round;stroke-miterlimit:4;stroke-dasharray:none;stroke-opacity:0"
           d="m 17.258459,29.930881 0.2894,-32.7266525 41.384338,-9.1256985 0.2894,30.209214 z"
           id="path1731"
           sodipodi:nodetypes="ccccc" />
        <ellipse
           style="fill:#000000;stroke:#000000;stroke-width:4.37213;stroke-linecap:round;stroke-linejoin:round;stroke-miterlimit:4;stroke-dasharray:none;stroke-opacity:1;fill-opacity:1"
           id="path1744"
           cx="31.439104"
           cy="9.7914019"
           rx="6.8875809"
           ry="7.3611169" />
        <path
           d="m 14.363571,77.565492 c -1.839098,0 -3.335869,1.645152 -3.335869,3.666716 0,2.012015 1.496771,3.649516 3.335869,3.649516 1.840851,0 3.337622,-1.637501 3.337622,-3.649516 0,-2.021564 -1.496771,-3.666716 -3.337622,-3.666716 z"
           id="path1674-8"
           style="stroke-width:4.37213;stroke-miterlimit:4;stroke-dasharray:none;stroke:none;fill:none" />
        <path
           d="m 72.533167,61.831526 c -1.839102,0 -3.335877,1.645151 -3.335877,3.666716 0,2.012014 1.496775,3.649516 3.335877,3.649516 1.840848,0 3.337624,-1.637502 3.337624,-3.649516 0,-2.021565 -1.496776,-3.666716 -3.337624,-3.666716 z"
           id="path1674-8-8"
           style="stroke-width:4.37213;stroke-miterlimit:4;stroke-dasharray:none;fill:none" />
        <path
           style="fill:none;stroke:#000000;stroke-width:4.37213;stroke-linecap:butt;stroke-linejoin:round;stroke-miterlimit:4;stroke-dasharray:none;stroke-opacity:0"
           d="M 71.087038,-14.753584 V 10.42076 l -10.129035,2.202756"
           id="path1776" />
        <path
           style="fill:none;stroke:#000000;stroke-width:4.37213;stroke-linecap:butt;stroke-linejoin:round;stroke-miterlimit:4;stroke-dasharray:none;stroke-opacity:0"
           d="m 26.229887,87.202516 0.2894,-39.964275 35.017519,-10.384417 v 40.593634"
           id="path1778" />
        <path
           style="fill:none;stroke:#000000;stroke-width:4.37213;stroke-linecap:round;stroke-linejoin:miter;stroke-miterlimit:4;stroke-dasharray:none;stroke-opacity:1"
           d="M 34.043714,56.049263 53.433578,49.755676"
           id="path1780" />
        <path
           style="fill:none;stroke:#000000;stroke-width:4.37213;stroke-linecap:round;stroke-linejoin:miter;stroke-miterlimit:4;stroke-dasharray:none;stroke-opacity:1"
           d="M 34.043712,66.74836 53.433575,60.454772"
           id="path1780-7" />
        <path
           style="fill:none;stroke:#000000;stroke-width:4.37213;stroke-linecap:round;stroke-linejoin:miter;stroke-miterlimit:4;stroke-dasharray:none;stroke-opacity:1"
           d="M 34.043712,76.818098 53.433575,70.52451"
           id="path1780-7-4" />
        <path
           style="fill:none;stroke:#000000;stroke-width:5.24732;stroke-linecap:butt;stroke-linejoin:round;stroke-miterlimit:4;stroke-dasharray:none;stroke-opacity:1"
           d="M 2.7838982,32.526839 C 6.0312821,29.676325 -12.55218,-27.938246 -21.081962,-26.148232 c -7.041789,1.477751 -22.371771,16.098809 -20.848833,27.3086713 1.507675,11.0975037 15.92847,-10.1600195 17.602504,0.8515549 1.220716,8.0297018 -11.803533,15.7187198 -9.452506,22.7887818 3.773291,11.347125 17.970924,-21.3440671 21.46591,-9.745839 2.164374,7.182549 -9.925838,15.645674 -7.129616,21.996985 2.927977,6.650575 6.783523,-5.932227 11.2509095,-7.767632 2.5324383,-1.04044 10.9774917,3.242549 10.9774917,3.242549 z"
           id="path2047"
           sodipodi:nodetypes="csssssssc" />
        <path
           style="fill:none;stroke:#000000;stroke-width:4.37213;stroke-linecap:round;stroke-linejoin:round;stroke-miterlimit:4;stroke-dasharray:none;stroke-opacity:1"
           d="m 61.790476,-13.80035 c 0,0 6.843394,-11.122888 12.030079,-14.711992 3.771994,-2.610159 20.611839,-6.343572 22.966517,-0.980799 3.239278,7.377455 -11.468785,7.044527 -10.498977,12.014793 0.8798,4.50897 10.16348,0.0326 10.280249,3.432798 0.219681,6.3969224 -7.816634,4.759037 -8.092964,8.581994 -0.415627,5.75011118 5.422092,3.4948898 5.468219,7.355997 0.07372,6.1711381 -12.608078,3.4922079 -11.373895,4.6587965"
           id="path2073"
           sodipodi:nodetypes="cssssssc" />
        <path
           style="fill:#000000;fill-opacity:1;stroke:#000000;stroke-width:0.189162;stroke-linecap:round;stroke-linejoin:round;stroke-miterlimit:4;stroke-dasharray:none;stroke-opacity:0"
           d="m 52.509859,7.7329126 c -0.804112,0.1713646 -1.673045,0.2057143 -2.411551,0.5673545 -0.299719,0.7054296 -0.07148,1.5387712 -0.152668,2.2928679 -0.01424,2.615309 -0.006,5.230671 -0.0082,7.846004 -0.382748,0.432734 -1.083948,0.329248 -1.592398,0.51302 -1.159565,0.27324 -2.381178,0.374678 -3.503566,0.75463 -0.5907,0.535224 -0.07321,1.480314 -0.463602,2.089557 -3.681569,1.059094 -7.438101,1.906662 -11.159537,2.84997 -2.873362,0.679255 -5.723968,1.450642 -8.608527,2.02572 -0.537956,-0.10353 -0.401346,-0.81935 -0.397718,-1.232207 0.02133,-3.840704 0.133041,-7.695998 0.09824,-11.527613 -0.224239,-0.740718 -1.117919,-0.215401 -1.641527,-0.189503 -0.864222,0.236406 -1.825942,0.217787 -2.622663,0.630379 -0.261878,1.033138 -0.06307,2.149886 -0.141513,3.216316 -0.09063,11.131722 -0.189861,22.264823 -0.0839,33.396625 -0.105181,0.625107 0.614273,0.841749 1.082373,0.581078 2.354824,-0.604363 4.711749,-1.203411 7.054922,-1.851076 0.621131,-0.426989 0.235685,-1.315231 0.35975,-1.950934 0.073,-4.871856 0.04212,-9.747814 0.196657,-14.616914 0.870572,-0.421019 1.900539,-0.558716 2.837528,-0.866795 4.594488,-1.228551 9.190374,-2.517393 13.809694,-3.605178 0.657367,0.19265 0.268012,1.035683 0.371459,1.542727 0.02677,4.789633 -0.06252,9.584181 0.07937,14.370766 0.298476,0.724319 1.155839,0.175428 1.694272,0.108811 1.84413,-0.492597 3.717178,-0.906739 5.539792,-1.463268 0.525151,-0.499207 0.255532,-1.346841 0.354163,-1.993874 0.06424,-10.239328 0.05126,-20.479501 0.0054,-30.718944 C 53.12047,9.6558422 53.330262,8.7251979 53.001382,7.9288748 52.887169,7.7787502 52.694195,7.7132153 52.509859,7.7329126 Z M 50.054711,39.770653 c 0.821981,-0.09794 1.38335,0.908344 0.895216,1.570881 -0.477626,0.767457 -1.866989,0.54551 -1.920052,-0.418576 -0.106044,-0.599733 0.391618,-1.231874 1.024836,-1.152305 z M 23.45591,46.172649 c 0.884381,-0.03378 1.444554,1.169924 0.721607,1.764626 -0.617073,0.684236 -1.998853,0.0961 -1.764625,-0.864912 0.02418,-0.52809 0.523416,-0.937091 1.043018,-0.899714 z"
           id="path1495"
           transform="matrix(2.1851373,0,0,2.4495884,-36.85618,-34.397138)" />
        <path
           style="fill:#000000;fill-opacity:1;stroke:#000000;stroke-width:0.189162;stroke-linecap:round;stroke-linejoin:round;stroke-miterlimit:4;stroke-dasharray:none;stroke-opacity:0"
           d="M 7.2644085,4.0267306 C 5.9120473,4.4091657 4.7034198,5.2217732 3.5902171,6.0637694 1.31499,7.9735426 -0.99713641,10.280662 -1.5765081,13.313984 c -0.048234,0.608588 -0.1844404,1.527615 0.4836786,1.840676 0.81762963,0.02716 1.49102153,-0.618461 2.2207375,-0.917112 1.3010736,-0.64709 2.6986131,-1.685426 4.2234873,-1.152891 0.9412321,0.409546 1.1951852,1.519296 1.0879165,2.450837 0.048461,1.49558 -1.0736334,2.666288 -1.8871456,3.806298 -0.8829424,1.214908 -2.0791807,2.311079 -2.4881818,3.797671 -0.1232139,0.546614 0.1444569,1.581148 0.8731238,1.219949 2.1678198,-1.589496 3.7146564,-3.899121 5.9404097,-5.419585 0.9159393,-0.648485 2.4081991,-0.501198 2.8610151,0.638127 0.822118,1.501077 0.02319,3.20729 -0.869801,4.467868 -0.808487,1.381691 -2.0161426,2.612575 -2.3497699,4.219773 -0.1155409,0.664788 0.8253747,0.824226 1.093262,0.277617 1.0574839,-1.138664 1.8810829,-2.755396 3.4825249,-3.189268 1.27727,-0.0936 2.489717,0.345685 3.708919,0.63715 0.685637,0.04921 0.660571,-0.780305 0.479185,-1.229077 C 15.88049,19.337506 13.878413,14.058793 11.314875,9.0762252 10.334149,7.3409234 9.405631,5.4590925 7.8118216,4.1993612 7.6512706,4.0914838 7.463122,4.0035628 7.2644085,4.0267306 Z"
           id="path1497"
           transform="matrix(2.1851373,0,0,2.4495884,-36.85618,-34.397138)" />
        <path
           style="fill:#000000;fill-opacity:1;stroke:#000000;stroke-width:0.189162;stroke-linecap:round;stroke-linejoin:round;stroke-miterlimit:4;stroke-dasharray:none;stroke-opacity:0"
           d="m 57.552315,1.3393234 c -2.15421,0.1155396 -4.355107,0.4480922 -6.334156,1.341553 -1.709589,0.9765719 -2.909246,2.6098188 -4.177543,4.0723623 -0.435589,0.316507 -0.319201,1.1507114 0.309874,1.0639364 2.220598,-0.3966881 4.426662,-0.9697784 6.649505,-1.2240548 0.640621,0.3692265 0.223495,1.2324114 0.341742,1.8318789 0.02258,2.4418538 -0.04507,4.8993288 0.03365,7.3314638 0.257964,0.723807 1.211075,0.265792 1.786612,0.352791 0.992242,-0.105801 2.218511,0.0252 2.970187,-0.755179 0.374936,-0.418685 0.163015,-1.08094 -0.408875,-1.165766 C 57.816344,13.88131 56.758912,13.2849 56.844588,12.17165 56.686133,11.298036 57.38985,10.67111 58.13707,10.407807 58.926173,10.025683 60.006529,9.840754 60.425451,8.9860975 60.556276,8.1944704 59.574845,8.2599088 59.059656,8.233991 58.007932,8.171415 56.622878,8.3857283 55.959734,7.352656 55.584651,6.6543601 55.94381,5.7749183 56.661596,5.466427 57.877181,4.6646621 59.4164,4.428231 60.515579,3.4505783 61.229379,2.7476116 60.455607,1.6677619 59.63092,1.5272034 58.956967,1.3396237 58.246882,1.3274907 57.552315,1.3393234 Z"
           id="path1499"
           transform="matrix(2.1851373,0,0,2.4495884,-36.85618,-34.397138)" />
      </g>
    </g>
  </g>
</svg>
