<?xml version="1.0" encoding="UTF-8" standalone="no"?>
<svg
   xmlns:dc="http://purl.org/dc/elements/1.1/"
   xmlns:cc="http://creativecommons.org/ns#"
   xmlns:rdf="http://www.w3.org/1999/02/22-rdf-syntax-ns#"
   xmlns:svg="http://www.w3.org/2000/svg"
   xmlns="http://www.w3.org/2000/svg"
   xmlns:sodipodi="http://sodipodi.sourceforge.net/DTD/sodipodi-0.dtd"
   xmlns:inkscape="http://www.inkscape.org/namespaces/inkscape"
   width="16.455296mm"
   height="14.355799mm"
   viewBox="0 0 16.455296 14.355799"
   version="1.1"
   id="svg8"
   inkscape:version="1.0.1 (c497b03c, 2020-09-10)"
   sodipodi:docname="modernworld-full.svg">
  <defs
     id="defs2" />
  <sodipodi:namedview
     id="base"
     pagecolor="#ffffff"
     bordercolor="#666666"
     borderopacity="1.0"
     inkscape:pageopacity="0.0"
     inkscape:pageshadow="2"
     inkscape:zoom="10.672796"
     inkscape:cx="15.486829"
     inkscape:cy="27.889318"
     inkscape:document-units="mm"
     inkscape:current-layer="g1676"
     inkscape:document-rotation="0"
     showgrid="false"
     inkscape:window-width="1440"
     inkscape:window-height="788"
     inkscape:window-x="0"
     inkscape:window-y="126"
     inkscape:window-maximized="0"
     inkscape:snap-global="false"
     fit-margin-top="0"
     fit-margin-left="0"
     fit-margin-right="0"
     fit-margin-bottom="0" />
  <metadata
     id="metadata5">
    <rdf:RDF>
      <cc:Work
         rdf:about="">
        <dc:format>image/svg+xml</dc:format>
        <dc:type
           rdf:resource="http://purl.org/dc/dcmitype/StillImage" />
        <dc:title />
      </cc:Work>
    </rdf:RDF>
  </metadata>
  <g
     inkscape:label="Calque 1"
     inkscape:groupmode="layer"
     id="layer1"
     transform="translate(-69.041648,-134.45937)">
    <g
       id="g1701"
       transform="matrix(0.17492104,0,0,0.18580917,71.700742,136.15108)">
      <g
         id="g1676"
         style="stroke-width:2.77342;stroke-miterlimit:4;stroke-dasharray:none"
         transform="matrix(0.69221612,0,0,0.58130255,10.31076,10.890588)">
        <path
           style="fill:none;stroke:#000000;stroke-width:4.37213;stroke-linecap:butt;stroke-linejoin:round;stroke-miterlimit:4;stroke-dasharray:none;stroke-opacity:1"
           d="M 3.9353531,-29.36674 C -29.364736,-29.703735 -23.727395,-18.314869 -24.839085,22.342073 l -6.94029,0.225137 0.203436,19.447638 6.326074,0.226598 C -21.14903,59.460141 -35.85865,95.326224 3.1190031,93.263167 L 2.9142641,74.72776 C -19.503666,81.341423 0.73832574,51.812542 -13.007196,32.405789 -7.4915216,27.700251 -7.7569466,16.51397 -8.1116904,5.22756 -8.0897577,-5.5579604 -10.430038,-12.029983 3.9353531,-10.14862 Z"
           id="path875"
           sodipodi:nodetypes="ccccccccccc" />
        <path
           style="fill:none;stroke:#000000;stroke-width:4.38838;stroke-linecap:butt;stroke-linejoin:round;stroke-miterlimit:4;stroke-dasharray:none;stroke-opacity:1"
           d="m 57.85976,-29.357699 c 33.552767,-0.336949 27.872651,11.05032 28.992776,51.701557 l 6.992952,0.225111 -0.20498,19.444907 -6.374076,0.226555 c -4.131951,17.21628 10.689285,53.077325 -28.584127,51.014566 l 0.2063,-18.53281 C 81.476632,81.334937 61.081047,51.810191 74.930869,32.406159 69.373342,27.701282 69.64078,16.516571 69.998217,5.231746 69.97612,-5.5522617 72.334156,-12.023375 57.85976,-10.142275 Z"
           id="path875-7"
           sodipodi:nodetypes="ccccccccccc" />
        <path
           style="fill:none;stroke:#000000;stroke-width:4.37213;stroke-linecap:butt;stroke-linejoin:round;stroke-miterlimit:4;stroke-dasharray:none;stroke-opacity:1"
           d="m 20.218179,-10.068334 23.954461,10e-7 V 16.785159 L 20.218179,16.555643 Z"
           id="path892"
           sodipodi:nodetypes="ccccc" />
        <path
           style="fill:none;stroke:#000000;stroke-width:4.37213;stroke-linecap:butt;stroke-linejoin:round;stroke-miterlimit:4;stroke-dasharray:none;stroke-opacity:1"
           d="m 20.77784,27.228184 23.954461,1e-6 V 54.081676 C 44.527885,72.701705 33.985329,76.612251 19.657847,75.137466 30.036119,70.888019 35.46856,64.328409 32.761667,53.966976 L 20.77784,53.852149 Z"
           id="path892-0"
           sodipodi:nodetypes="ccccccc" />
        <path
           style="opacity:1;fill:#000000;stroke:#000000;stroke-width:0.177064;stroke-linecap:round;stroke-linejoin:round;stroke-opacity:0"
           d="M 16.283247,2.5117497 C 13.803228,2.6793082 11.139614,2.7666347 8.9762271,4.1386225 7.067865,5.3953244 6.5211987,7.8148023 6.3511535,9.9491059 6.0308006,14.415566 6.2370744,18.92837 5.979597,23.374334 5.7592607,23.706477 5.2002749,23.532617 4.8680531,23.618823 4.2677938,23.715993 3.520851,23.467065 3.0304637,23.857494 2.7346248,24.485661 2.9802771,25.256 2.9000678,25.939998 c 0.029355,1.48339 -0.064902,2.978279 0.1237082,4.453131 0.2614342,0.715608 1.1632869,0.341614 1.745823,0.434259 0.431642,0.0045 1.0834521,-0.03115 1.1135568,0.565471 0.5333125,2.195894 0.2036453,4.478557 0.2621226,6.712073 0.056289,2.729182 -0.2684952,5.561916 0.6729674,8.18447 0.659494,2.086712 2.3177818,3.790263 4.3764942,4.525646 1.964723,0.725835 4.103261,0.947352 6.179837,0.875394 0.709693,-0.206112 0.298658,-1.093794 0.347235,-1.632466 -0.08143,-1.447256 -0.0065,-2.915585 -0.07938,-4.362247 -0.238423,-0.714819 -1.141173,-0.274645 -1.70377,-0.336835 -1.296783,0.09995 -2.806775,-0.44644 -3.194819,-1.814082 -0.559643,-1.938565 -0.118566,-3.934264 -0.06623,-5.909597 0.290365,-3.271566 0.05266,-6.814574 -1.869918,-9.59913 -0.17692,-0.319141 -0.698331,-0.767147 -0.244671,-1.102028 0.847416,-0.784577 1.429933,-1.807608 1.67427,-2.936789 0.691287,-3.127701 0.353751,-6.368179 0.337318,-9.533929 0.0059,-1.469071 -0.223054,-3.260233 1.014139,-4.338044 1.17521,-0.9189487 2.763028,-0.7006027 4.142243,-0.7873395 0.696223,-0.2280983 0.312293,-1.1381776 0.410805,-1.687008 -0.0208,-1.5951023 0.04149,-3.2042956 -0.03089,-4.7906508 -0.205313,-0.7415534 -1.289833,-0.2575426 -1.82766,-0.348547 z"
           id="path1495"
           transform="matrix(2.1851373,0,0,2.4495884,-36.85618,-34.397138)" />
        <path
           style="opacity:1;fill:#000000;stroke:#000000;stroke-width:0.177064;stroke-linecap:round;stroke-linejoin:round;stroke-opacity:0"
           d="m 26.887566,10.445362 c -0.396621,0.599378 -0.09457,1.395098 -0.188674,2.077786 0.02059,2.459875 -0.04119,4.933718 0.03089,7.384863 0.24754,0.680943 1.16653,0.386418 1.733042,0.474273 2.541686,0.01424 5.096953,0.07125 7.6302,0.01224 0.699266,-0.22524 0.314763,-1.138373 0.413221,-1.687428 -0.02076,-2.651204 0.04135,-5.316461 -0.03089,-7.958935 -0.227348,-0.697033 -1.138219,-0.31304 -1.687117,-0.411499 -2.55754,0.02057 -5.129036,-0.04116 -7.677847,0.03089 -0.07428,0.02594 -0.14855,0.05188 -0.222825,0.07781 z"
           id="path1521"
           transform="matrix(2.1851373,0,0,2.4495884,-36.85618,-34.397138)" />
        <path
           style="opacity:1;fill:#000000;stroke:#000000;stroke-width:0.177064;stroke-linecap:round;stroke-linejoin:round;stroke-opacity:0"
           d="m 27.074958,25.717836 c -0.396621,0.599378 -0.09457,1.395098 -0.188673,2.077786 0.02057,2.463844 -0.04115,4.941643 0.03089,7.396758 0.227348,0.697033 1.138219,0.31304 1.687117,0.411499 1.206115,0.06039 2.455113,-0.134656 3.634386,0.162688 0.374656,0.405205 0.306712,1.044377 0.415776,1.557515 0.185696,1.519112 -0.160988,3.110834 -1.141921,4.310023 -0.534297,0.793877 -1.388922,1.286577 -2.03341,1.953989 -0.322931,0.553829 0.447613,0.89702 0.90137,0.666759 2.015207,-0.300361 4.101376,-1.214414 5.160974,-3.046589 1.077442,-1.738842 1.261099,-3.842218 1.216641,-5.841354 0.02232,-3.11359 0.06261,-6.241097 -0.0016,-9.34611 -0.227048,-0.697341 -1.138255,-0.313154 -1.687163,-0.411666 -2.58874,0.02076 -5.191534,-0.04135 -7.771543,0.03089 -0.07428,0.02594 -0.148551,0.05187 -0.222826,0.07781 z"
           id="path1523"
           transform="matrix(2.1851373,0,0,2.4495884,-36.85618,-34.397138)" />
        <path
           style="opacity:1;fill:#000000;stroke:#000000;stroke-width:0.177064;stroke-linecap:round;stroke-linejoin:round;stroke-opacity:0"
           d="m 44.449923,2.4797247 c -0.702144,0.2654963 -0.414955,1.189613 -0.502054,1.7672039 0.0031,1.5684806 -0.04655,3.1507943 0.02201,4.7105267 0.232263,0.6954906 1.137573,0.3162921 1.693339,0.4125971 1.336887,-0.042048 2.92121,0.3532909 3.518547,1.6834196 0.459753,0.899841 0.148036,1.952752 0.239721,2.92526 0.05329,2.929533 -0.117604,5.872141 0.157221,8.792858 0.198418,1.544909 0.75679,3.092561 1.936678,4.162649 0.450826,0.337798 -0.10947,0.823061 -0.295363,1.150889 -1.953641,2.733762 -2.040789,6.27353 -1.849013,9.499762 0.08981,2.006102 0.437651,4.040869 -0.07743,6.014273 -0.399878,1.334663 -1.920332,1.856507 -3.199365,1.756291 -0.58444,0.05714 -1.405662,-0.350928 -1.759395,0.280685 -0.02801,1.895409 -0.04841,3.811643 0.0098,5.700895 0.232798,0.714779 1.153581,0.280404 1.707613,0.349461 2.470988,-0.112806 5.099041,-0.559903 7.065825,-2.167638 1.11921,-0.910076 1.860609,-2.1836 2.268473,-3.554232 0.88688,-2.800201 0.513517,-5.779939 0.550182,-8.665912 0.03715,-2.02723 -0.203726,-4.102111 0.317788,-6.047313 0.160275,-0.586865 0.944334,-0.359341 1.389704,-0.426025 0.534235,-0.03221 1.533311,0.216897 1.536494,-0.59347 -0.0355,-2.05959 0.07594,-4.114746 0.09527,-6.160971 C 59.064674,23.349391 58.126515,23.73938 57.568078,23.640965 57.11763,23.572875 56.44101,23.757769 56.135001,23.329316 55.935403,20.408127 56.024202,17.441755 55.9457,14.495994 55.86661,11.790829 55.9815,8.9715889 54.971373,6.4098806 54.24406,4.5401216 52.365215,3.4409319 50.473593,3.0637585 48.500181,2.6229934 46.462095,2.5473097 44.449923,2.4797247 Z"
           id="path1525"
           transform="matrix(2.1851373,0,0,2.4495884,-36.85618,-34.397138)" />
      </g>
    </g>
  </g>
</svg>
