<?xml version="1.0" encoding="utf-8"?>
<!-- Generator: Adobe Illustrator 23.0.2, SVG Export Plug-In . SVG Version: 6.00 Build 0)  -->
<svg version="1.1" id="Calque_1" xmlns="http://www.w3.org/2000/svg" xmlns:xlink="http://www.w3.org/1999/xlink" x="0px" y="0px"
	 viewBox="0 0 846.7 769.2" style="enable-background:new 0 0 846.7 769.2;" xml:space="preserve">
<!-- <style type="text/css">
	.st0{fill-rule:evenodd;clip-rule:evenodd;}
</style> -->
<g>
	<path class="st0" d="M139.2,60.4c22.6,0,545.6,0,568.2,0c27.4,0,49.8,22.4,49.8,49.8v432c0,27.4-22.4,49.8-49.8,49.8H516.1
		l50.2,89.3c12,21.4-3.8,47.5-27.8,47.4l-230.2,0c-25.4,0-40.2-28.1-26.9-49l49.3-87.7H139.2c-27.4,0-49.8-22.4-49.8-49.8v-432
		C89.4,82.8,111.8,60.4,139.2,60.4L139.2,60.4z M317.7,169.9c28.8,0,28.8,43.8,0,43.8c-11.3,0-22.6,4.1-22.6,17.1v62
		c0,8.7-5.1,16.3-12.5,19.8l-23.3,13.6l24.9,14.6c6.9,4,10.8,11.3,10.8,18.8l0.1,62c0,13,11.3,17.1,22.6,17.1
		c28.8,0,28.8,43.8,0,43.8c-35.8,0-66.4-23.3-66.4-60.9v-49.5l-45.9-26.9c-14.4-8.1-14.9-29.2-0.3-37.8l46.2-27.1v-49.5
		C251.3,193.2,281.9,169.9,317.7,169.9L317.7,169.9z M529,169.9c-28.8,0-28.8,43.8,0,43.8c11.3,0,22.6,4.1,22.6,17.1v62
		c0,8.7,5.1,16.3,12.5,19.8l23.3,13.6l-24.9,14.6c-6.9,4-10.8,11.3-10.8,18.8l-0.1,62c0,13-11.3,17.1-22.6,17.1
		c-28.8,0-28.8,43.8,0,43.8c35.8,0,66.4-23.3,66.4-60.9v-49.5l45.9-26.9c14.4-8.1,14.9-29.2,0.3-37.8l-46.2-27.1v-49.5
		C595.4,193.2,564.8,169.9,529,169.9L529,169.9z M443.5,166.4c7.4-27.8,49.7-16.5,42.2,11.3L403.1,486
		c-7.4,27.8-49.7,16.5-42.3-11.3L443.5,166.4L443.5,166.4z"/>
</g>
</svg>
