<?xml version="1.0" encoding="UTF-8" standalone="no"?>
<svg
   xmlns:dc="http://purl.org/dc/elements/1.1/"
   xmlns:cc="http://creativecommons.org/ns#"
   xmlns:rdf="http://www.w3.org/1999/02/22-rdf-syntax-ns#"
   xmlns:svg="http://www.w3.org/2000/svg"
   xmlns="http://www.w3.org/2000/svg"
   xmlns:sodipodi="http://sodipodi.sourceforge.net/DTD/sodipodi-0.dtd"
   xmlns:inkscape="http://www.inkscape.org/namespaces/inkscape"
   width="16.455296mm"
   height="14.355799mm"
   viewBox="0 0 16.455296 14.355799"
   version="1.1"
   id="svg8"
   inkscape:version="1.0.1 (c497b03c, 2020-09-10)"
   sodipodi:docname="dessin.svg">
  <defs
     id="defs2" />
  <sodipodi:namedview
     id="base"
     pagecolor="#ffffff"
     bordercolor="#666666"
     borderopacity="1.0"
     inkscape:pageopacity="0.0"
     inkscape:pageshadow="2"
     inkscape:zoom="9.9901706"
     inkscape:cx="28.515766"
     inkscape:cy="27.445844"
     inkscape:document-units="mm"
     inkscape:current-layer="layer1"
     inkscape:document-rotation="0"
     showgrid="false"
     inkscape:window-width="1440"
     inkscape:window-height="900"
     inkscape:window-x="0"
     inkscape:window-y="101"
     inkscape:window-maximized="0"
     inkscape:snap-global="false"
     fit-margin-top="0"
     fit-margin-left="0"
     fit-margin-right="0"
     fit-margin-bottom="0" />
  <metadata
     id="metadata5">
    <rdf:RDF>
      <cc:Work
         rdf:about="">
        <dc:format>image/svg+xml</dc:format>
        <dc:type
           rdf:resource="http://purl.org/dc/dcmitype/StillImage" />
        <dc:title></dc:title>
      </cc:Work>
    </rdf:RDF>
  </metadata>
  <g
     inkscape:label="Calque 1"
     inkscape:groupmode="layer"
     id="layer1"
     transform="translate(-69.041648,-134.45937)">
    <g
       id="g855"
       transform="matrix(0.26458333,0,0,0.26458333,32.978269,121.04785)">
      <text
         x="0"
         y="120"
         fill="#000000"
         font-size="5px"
         font-weight="bold"
         font-family="'Helvetica Neue', Helvetica, Arial-Unicode, Arial, Sans-serif"
         id="text842" />
      <path
         style="fill:none;stroke:#000000;stroke-width:1.88976;stroke-linecap:round;stroke-linejoin:round;stroke-miterlimit:4;stroke-dasharray:none;stroke-opacity:1"
         d="m 146.98318,74.175289 c -4.02087,-3.410377 -6.76394,-12.91973 -6.85232,-16.618028 -2.10578,-0.895608 -2.97846,-2.466355 -2.87556,-3.834081 0.59197,-1.721798 1.58478,-1.840279 2.68386,-1.53363 l 2.87555,1.72534 c 11.87248,-2.263659 18.16068,-2.71618 27.22196,-1.917041 7.2896,0.642889 17.83703,3.613117 21.27913,5.367711 0.18248,-0.244028 0.36496,-0.469468 0.54744,-0.676673 1.22335,-1.389101 2.4467,-1.958686 3.67005,-1.815487 1.02052,0.586953 2.42232,1.673302 1.91704,2.68386 l -1.15022,2.300446 c 0.64696,6.965482 -3.49027,24.979692 -6.33865,26.057611 l -7.35716,-1.457382 c 0,0 -2.64503,-7.175916 -3.67951,-6.527566 -0.96892,0.607258 -0.94761,4.770522 -1.40988,4.562816 -2.70957,-1.217481 -6.85534,-4.398784 -7.66829,-3.076901 -1.07965,1.755568 4.49169,4.18325 4.21903,5.169099 -0.32296,1.1677 -6.2128,-1.916998 -6.47851,-0.352469 -0.29612,1.743542 5.86449,2.52 6.04232,4.152448 0,0 -4.41778,0.440194 -4.20934,1.976161 0.23786,1.752743 11.40797,-0.44866 11.40797,-0.44866 l 8.48558,2.046229 c 2.15802,2.433332 6.43778,4.772318 6.32407,8.023263 -0.55485,2.021455 -1.81324,1.471705 -3.39018,1.448985 l -3.35058,1.62221 c -1.81712,1.196 -9.52167,1.32864 -14.09035,0.0111 -4.16839,-0.92445 -10.97648,-2.18492 -16.6556,-2.7574 -5.38961,-0.644644 -10.06447,1.00217 -14.12973,-3.354704 l -2.87556,0.439766 c -1.48641,-0.902489 -1.94152,-1.782754 -1.4096,-3.388659 0.32936,-1.29532 1.38407,-1.752864 2.86834,-1.866362 -0.85019,-4.620898 2.29748,-7.795066 5.77391,-11.760536 5.86841,-2.214778 11.22793,-4.357398 17.11985,-6.50937 0,0 11.43372,2.832999 11.39174,0.32459 -0.0309,-1.845478 -3.1576,-0.902465 -3.20317,-2.004274 -0.0737,-1.782907 4.98769,-1.577558 5.29683,-4.908064 0.19084,-2.056016 -6.55844,2.787835 -6.63785,0.724509 -0.0667,-1.734281 2.76677,-2.81601 2.44727,-4.914811 -0.28999,-1.904873 -5.73359,3.954272 -6.46982,3.252626 -1.29832,-1.23733 -0.0411,-4.513471 -1.49012,-4.222569 -1.27092,0.255149 -2.57152,6.252498 -2.57152,6.252498 z"
         id="path3379"
         sodipodi:nodetypes="cccccscscscccscssssscccccccccccccssssssscc" />
    </g>
    <path
       style="fill:none;stroke:#000000;stroke-width:0.5;stroke-linecap:round;stroke-linejoin:miter;stroke-miterlimit:4;stroke-dasharray:none;stroke-opacity:1"
       d="m 82.93897,142.01654 c 0.447646,-0.88302 1.098996,-3.19922 0.877164,-4.29304"
       id="path3381"
       sodipodi:nodetypes="cc" />
  </g>
</svg>
