<?xml version="1.0" encoding="UTF-8" standalone="no"?>
<svg
   xmlns:dc="http://purl.org/dc/elements/1.1/"
   xmlns:cc="http://creativecommons.org/ns#"
   xmlns:rdf="http://www.w3.org/1999/02/22-rdf-syntax-ns#"
   xmlns:svg="http://www.w3.org/2000/svg"
   xmlns="http://www.w3.org/2000/svg"
   xmlns:sodipodi="http://sodipodi.sourceforge.net/DTD/sodipodi-0.dtd"
   xmlns:inkscape="http://www.inkscape.org/namespaces/inkscape"
   width="16.455296mm"
   height="14.355799mm"
   viewBox="0 0 16.455296 14.355799"
   version="1.1"
   id="svg8"
   inkscape:version="1.0.1 (c497b03c, 2020-09-10)"
   sodipodi:docname="safespace-full.svg">
  <defs
     id="defs2" />
  <sodipodi:namedview
     id="base"
     pagecolor="#ffffff"
     bordercolor="#666666"
     borderopacity="1.0"
     inkscape:pageopacity="0.0"
     inkscape:pageshadow="2"
     inkscape:zoom="9.3820404"
     inkscape:cx="52.744539"
     inkscape:cy="31.086006"
     inkscape:document-units="mm"
     inkscape:current-layer="layer1"
     inkscape:document-rotation="0"
     showgrid="false"
     inkscape:window-width="1440"
     inkscape:window-height="900"
     inkscape:window-x="0"
     inkscape:window-y="101"
     inkscape:window-maximized="0"
     inkscape:snap-global="false"
     fit-margin-top="0"
     fit-margin-left="0"
     fit-margin-right="0"
     fit-margin-bottom="0" />
  <metadata
     id="metadata5">
    <rdf:RDF>
      <cc:Work
         rdf:about="">
        <dc:format>image/svg+xml</dc:format>
        <dc:type
           rdf:resource="http://purl.org/dc/dcmitype/StillImage" />
        <dc:title></dc:title>
      </cc:Work>
    </rdf:RDF>
  </metadata>
  <g
     inkscape:label="Calque 1"
     inkscape:groupmode="layer"
     id="layer1"
     transform="translate(-69.041648,-134.45937)">
    <g
       id="g855"
       transform="matrix(0.26458333,0,0,0.26458333,32.978269,121.04785)">
      <text
         x="0"
         y="120"
         fill="#000000"
         font-size="5px"
         font-weight="bold"
         font-family="'Helvetica Neue', Helvetica, Arial-Unicode, Arial, Sans-serif"
         id="text842" />
      <path
         style="fill:none;stroke:#000000;stroke-width:0.37795276;stroke-linecap:round;stroke-linejoin:round;stroke-miterlimit:4;stroke-dasharray:none;stroke-opacity:1"
         d="m 146.98318,74.175289 c -4.02087,-3.410377 -6.76394,-12.91973 -6.85232,-16.618028 -2.10578,-0.895608 -2.97846,-2.466355 -2.87556,-3.834081 0.59197,-1.721798 1.58478,-1.840279 2.68386,-1.53363 l 2.87555,1.72534 c 11.87248,-2.263659 18.16068,-2.71618 27.22196,-1.917041 7.2896,0.642889 17.83703,3.613117 21.27913,5.367711 0.18248,-0.244028 0.36496,-0.469468 0.54744,-0.676673 1.22335,-1.389101 2.4467,-1.958686 3.67005,-1.815487 1.02052,0.586953 2.42232,1.673302 1.91704,2.68386 l -1.15022,2.300446 c 0.64696,6.965482 -3.39017,23.678413 -6.23855,24.756332 l -8.05785,-1.55748 c 0,0 -1.19066,-5.243425 -3.07892,-5.126189 -3.2192,0.19987 -0.94848,4.769981 -1.40988,4.562816 -2.70957,-1.217481 -6.09453,-5.123633 -7.66829,-3.076901 -1.74917,2.274854 5.05834,4.584468 4.21903,5.169099 -0.32296,0.22496 -6.25603,-2.983157 -6.47851,-0.352469 -0.28371,3.354659 5.86449,2.52 6.04232,4.152448 0,0 -4.53533,-0.987036 -4.20934,1.976161 0.30186,2.743846 11.40797,-0.44866 11.40797,-0.44866 l 8.48558,2.046229 c 2.15802,2.433332 6.43778,4.772318 6.32407,8.023263 -0.55485,2.021455 -1.81324,1.471705 -3.39018,1.448985 l -3.35058,1.62221 c -1.81712,1.196 -9.52167,1.32864 -14.09035,0.0111 -4.16839,-0.92445 -10.97648,-2.18492 -16.6556,-2.7574 -5.38961,-0.644644 -10.06447,1.00217 -14.12973,-3.354704 l -2.87556,0.439766 c -1.48641,-0.902489 -1.94152,-1.782754 -1.4096,-3.388659 0.32936,-1.29532 1.38407,-1.752864 2.86834,-1.866362 -0.85019,-4.620898 2.49768,-6.193492 5.97411,-10.158962 5.86841,-2.214778 11.62832,-4.457496 17.52024,-6.609468 0,0 11.59475,2.224532 11.39174,-1.176886 -0.17015,-2.850755 -3.75819,-0.902465 -3.80376,-2.004274 -0.0737,-1.782907 7.08981,-2.625452 5.89742,-5.408556 -1.30623,-3.048817 -6.72183,2.269485 -7.23844,1.225001 -0.28228,-0.57071 4.13056,-2.783751 2.44727,-4.914811 -1.77573,-2.248088 -5.73359,3.954271 -6.46982,3.252626 -1.29832,-1.23733 0.44028,-3.602796 -1.49012,-4.222569 -4.20033,-1.348551 -2.57152,6.252498 -2.57152,6.252498 z"
         id="path3379"
         sodipodi:nodetypes="cccccscscscccscssssscccccccccccccssssssscc" />
    </g>
    <path
       style="fill:none;stroke:#000000;stroke-width:0.5;stroke-linecap:round;stroke-linejoin:miter;stroke-miterlimit:4;stroke-dasharray:none;stroke-opacity:1"
       d="m 82.93897,142.01654 c 0.471164,-1.41733 1.154283,-2.84039 0.877164,-4.29304"
       id="path3381"
       sodipodi:nodetypes="cc" />
    <path
       style="fill:#000000;stroke-width:0.0378325;stroke-linecap:round;stroke-linejoin:round;stroke-miterlimit:4;stroke-dasharray:none"
       d="M 24.726494,0.77353263 C 19.307326,0.71659942 13.94436,1.6611676 8.621867,2.5727524 7.943872,2.6651349 7.2579996,2.8980236 6.5803373,2.8926077 5.2642966,2.3710406 4.1658694,1.2086572 2.7015246,1.1201624 1.2205098,1.2324219 0.28267287,3.0450503 0.89388847,4.366322 1.364782,5.5951452 2.4453822,6.4682426 3.5902888,7.0459089 c 0.2432674,3.1537891 1.1618756,6.2268091 2.2924878,9.1689731 1.1064293,2.682273 2.4135304,5.423034 4.5928404,7.396998 0.605151,0.27146 1.243322,-0.298955 1.855203,-0.394919 5.17127,-1.741093 10.342526,-3.482229 15.513778,-5.223377 0.653831,-0.372475 0.08434,-1.162048 0.168908,-1.739911 -0.05408,-1.416096 -0.29961,-3.030134 0.54488,-4.270881 0.639743,-0.696263 1.902339,-0.506416 2.511843,0.138222 0.391325,1.173363 -0.204389,2.661453 0.75719,3.658871 0.656159,0.479296 1.234739,-0.403412 1.709279,-0.751878 1.179204,-1.012365 2.22013,-2.349514 3.752339,-2.828791 1.087521,-0.224166 1.670613,1.267991 1.085834,2.063552 -0.601432,1.042983 -1.710707,1.683226 -2.331394,2.702266 -0.163203,0.571145 0.566496,0.848822 0.962524,0.512616 1.555379,-0.67456 2.958905,-1.848079 4.686779,-2.03853 0.633973,-0.150719 1.222419,0.26875 1.367165,0.88114 0.374732,1.096565 -0.891633,1.789977 -1.655534,2.228557 -1.357871,0.797687 -3.001049,1.211738 -4.092304,2.398647 -0.434383,0.489017 0.01051,1.235811 0.637541,1.160711 0.823261,0.144162 1.805877,-0.186548 2.522206,0.340765 0.811754,0.649734 0.468056,2.021868 -0.528645,2.256319 -2.039115,0.633623 -4.284598,0.405561 -6.369715,0.246875 -1.31913,-0.08985 -2.622042,-0.423148 -3.932013,-0.49458 -5.820982,2.199752 -11.665897,4.354445 -17.453836,6.630209 -1.672454,1.673762 -3.383193,3.337219 -4.908574,5.152858 -1.108048,1.394338 -1.5427786,3.227701 -1.3001061,4.980872 -1.2886474,0.103867 -2.6338606,0.911074 -2.85124,2.274502 -0.1729853,0.916183 -0.1994063,2.024765 0.6177947,2.654954 0.4963875,0.482782 1.131458,1.002351 1.8653022,0.70146 0.6838399,-0.05101 1.4309904,-0.317319 2.0754664,-0.234081 1.7831629,1.751462 4.1904448,2.902741 6.7104638,2.93763 3.942828,0.135376 7.87988,0.238348 11.754742,0.849366 4.746172,0.688079 9.457904,1.563756 14.132829,2.632175 3.339741,0.590279 6.776496,0.70009 10.139305,0.247415 2.009543,-0.321761 3.736437,-1.521942 5.586347,-2.249279 0.90985,-0.115404 1.991031,0.240076 2.778906,-0.354452 1.045,-0.825301 0.887099,-2.363481 0.293298,-3.409511 -1.322424,-2.435279 -3.721656,-3.980906 -5.657217,-5.879136 -0.690824,-0.715959 -1.804324,-0.609729 -2.691241,-0.933618 -2.100157,-0.472754 -4.185402,-1.077625 -6.294868,-1.467896 -3.038724,0.773658 -6.12234,1.557866 -9.246408,1.506127 -0.67888,-0.07525 -1.832044,-0.11842 -1.804117,-1.048101 -0.135711,-0.971326 0.846925,-1.588003 1.711253,-1.582806 0.605732,-0.152813 1.25011,0.08175 1.835202,-0.103226 0.545409,-0.384446 0.03903,-1.036593 -0.470384,-1.104211 -1.404048,-0.542738 -3.005313,-0.637397 -4.267281,-1.505385 -0.576458,-0.43328 -0.750752,-1.295024 -0.566572,-1.949182 0.778376,-0.808073 1.997221,-0.292189 2.923186,-0.07644 0.818957,0.193964 1.605062,0.644625 2.447684,0.67029 0.623261,-0.178257 0.372623,-0.949151 -0.114336,-1.122493 -1.148607,-0.843323 -2.619615,-1.463856 -3.287802,-2.793761 -0.306499,-0.821926 0.574901,-1.691023 1.397663,-1.399031 1.67355,0.362955 2.939773,1.645614 4.363364,2.5122 0.54668,0.278116 1.038703,0.900647 1.698454,0.801017 0.648413,-0.402695 0.139372,-1.229118 0.136071,-1.819171 -0.134365,-0.837448 -0.114321,-2.138077 0.923564,-2.372058 0.690212,-0.229932 1.414127,0.128317 1.73569,0.761687 0.9051,1.208534 1.037425,2.784629 1.788869,4.062195 0.588237,0.483313 1.464169,0.378548 2.166973,0.610757 1.990118,0.371857 3.982183,0.813991 5.975199,1.118584 0.632026,-0.163026 0.986228,-0.871881 1.375129,-1.36886 1.649663,-2.805784 2.482536,-5.997615 3.301826,-9.122444 1.056503,-4.467924 1.901797,-9.037563 1.849392,-13.644436 C 60.064501,9.0332042 60.837562,8.2461777 61.172627,7.3724897 61.499088,6.8651401 61.743866,6.2384563 61.278633,5.7252748 60.814699,4.9437632 60.052032,4.3059687 59.214691,3.9669059 57.597188,3.7143927 56.265317,4.8994044 55.258211,6.0060092 54.938106,6.6335343 54.38381,6.0404192 53.913777,5.9155009 48.905055,3.9423927 43.646588,2.657672 38.36017,1.6846075 34.224471,0.91426909 30.0117,0.72040884 25.812719,0.77253269 Z"
       id="path977"
       transform="matrix(0.26458333,0,0,0.26458333,69.041648,134.45937)"
       sodipodi:nodetypes="cccccccccccccccccccccccccccccccccccccccccccccccccccccccccccccccccccccccccccc" />
  </g>
</svg>
