<svg xmlns="http://www.w3.org/2000/svg" width="16" height="14" viewBox="0 0 16.5 14.4"><g transform="translate(-69.041648 -134.45937)"><g transform="matrix(0.26458333 0 0 0.26458333 32.978269 121.04785)"><text y="120" font-size="5px" font-family="'Helvetica Neue', Helvetica, Arial-Unicode, Arial, Sans-serif" font-weight="bold"/><path d="m147 74.2c-4-3.4-6.8-12.9-6.9-16.6-2.1-0.9-3-2.5-2.9-3.8 0.6-1.7 1.6-1.8 2.7-1.5l2.9 1.7c11.9-2.3 18.2-2.7 27.2-1.9 7.3 0.6 17.8 3.6 21.3 5.4 0.2-0.2 0.4-0.5 0.5-0.7 1.2-1.4 2.4-2 3.7-1.8 1 0.6 2.4 1.7 1.9 2.7l-1.2 2.3c0.6 7-3.4 23.7-6.2 24.8l-8.1-1.6c0 0-1.2-5.2-3.1-5.1-3.2 0.2-0.9 4.8-1.4 4.6-2.7-1.2-6.1-5.1-7.7-3.1-1.7 2.3 5.1 4.6 4.2 5.2-0.3 0.2-6.3-3-6.5-0.4-0.3 3.4 5.9 2.5 6 4.2 0 0-4.5-1-4.2 2 0.3 2.7 11.4-0.4 11.4-0.4l8.5 2c2.2 2.4 6.4 4.8 6.3 8-0.6 2-1.8 1.5-3.4 1.4l-3.4 1.6c-1.8 1.2-9.5 1.3-14.1 0-4.2-0.9-11-2.2-16.7-2.8-5.4-0.6-10.1 1-14.1-3.4l-2.9 0.4c-1.5-0.9-1.9-1.8-1.4-3.4 0.3-1.3 1.4-1.8 2.9-1.9-0.9-4.6 2.5-6.2 6-10.2 5.9-2.2 11.6-4.5 17.5-6.6 0 0 11.6 2.2 11.4-1.2-0.2-2.9-3.8-0.9-3.8-2-0.1-1.8 7.1-2.6 5.9-5.4-1.3-3-6.7 2.3-7.2 1.2-0.3-0.6 4.1-2.8 2.4-4.9-1.8-2.2-5.7 4-6.5 3.3-1.3-1.2 0.4-3.6-1.5-4.2-4.2-1.3-2.6 6.3-2.6 6.3z"/></g><path d="m82.9 142c0.5-1.4 1.2-2.8 0.9-4.3" style="fill:none;stroke-width:0.5;stroke:#000"/><path d="M24.7 0.8C19.3 0.7 13.9 1.7 8.6 2.6 7.9 2.7 7.3 2.9 6.6 2.9 5.3 2.4 4.2 1.2 2.7 1.1 1.2 1.2 0.3 3 0.9 4.4 1.4 5.6 2.4 6.5 3.6 7c0.2 3.2 1.2 6.2 2.3 9.2 1.1 2.7 2.4 5.4 4.6 7.4 0.6 0.3 1.2-0.3 1.9-0.4 5.2-1.7 10.3-3.5 15.5-5.2 0.7-0.4 0.1-1.2 0.2-1.7-0.1-1.4-0.3-3 0.5-4.3 0.6-0.7 1.9-0.5 2.5 0.1 0.4 1.2-0.2 2.7 0.8 3.7 0.7 0.5 1.2-0.4 1.7-0.8 1.2-1 2.2-2.3 3.8-2.8 1.1-0.2 1.7 1.3 1.1 2.1-0.6 1-1.7 1.7-2.3 2.7-0.2 0.6 0.6 0.8 1 0.5 1.6-0.7 3-1.8 4.7-2 0.6-0.2 1.2 0.3 1.4 0.9 0.4 1.1-0.9 1.8-1.7 2.2-1.4 0.8-3 1.2-4.1 2.4-0.4 0.5 0 1.2 0.6 1.2 0.8 0.1 1.8-0.2 2.5 0.3 0.8 0.6 0.5 2-0.5 2.3-2 0.6-4.3 0.4-6.4 0.2-1.3-0.1-2.6-0.4-3.9-0.5-5.8 2.2-11.7 4.4-17.5 6.6-1.7 1.7-3.4 3.3-4.9 5.2-1.1 1.4-1.5 3.2-1.3 5-1.3 0.1-2.6 0.9-2.9 2.3-0.2 0.9-0.2 2 0.6 2.7 0.5 0.5 1.1 1 1.9 0.7 0.7-0.1 1.4-0.3 2.1-0.2 1.8 1.8 4.2 2.9 6.7 2.9 3.9 0.1 7.9 0.2 11.8 0.8 4.7 0.7 9.5 1.6 14.1 2.6 3.3 0.6 6.8 0.7 10.1 0.2 2-0.3 3.7-1.5 5.6-2.2 0.9-0.1 2 0.2 2.8-0.4 1-0.8 0.9-2.4 0.3-3.4-1.3-2.4-3.7-4-5.7-5.9-0.7-0.7-1.8-0.6-2.7-0.9-2.1-0.5-4.2-1.1-6.3-1.5-3 0.8-6.1 1.6-9.2 1.5-0.7-0.1-1.8-0.1-1.8-1-0.1-1 0.8-1.6 1.7-1.6 0.6-0.2 1.3 0.1 1.8-0.1 0.5-0.4 0-1-0.5-1.1-1.4-0.5-3-0.6-4.3-1.5-0.6-0.4-0.8-1.3-0.6-1.9 0.8-0.8 2-0.3 2.9-0.1 0.8 0.2 1.6 0.6 2.4 0.7 0.6-0.2 0.4-0.9-0.1-1.1-1.1-0.8-2.6-1.5-3.3-2.8-0.3-0.8 0.6-1.7 1.4-1.4 1.7 0.4 2.9 1.6 4.4 2.5 0.5 0.3 1 0.9 1.7 0.8 0.6-0.4 0.1-1.2 0.1-1.8-0.1-0.8-0.1-2.1 0.9-2.4 0.7-0.2 1.4 0.1 1.7 0.8 0.9 1.2 1 2.8 1.8 4.1 0.6 0.5 1.5 0.4 2.2 0.6 2 0.4 4 0.8 6 1.1 0.6-0.2 1-0.9 1.4-1.4 1.6-2.8 2.5-6 3.3-9.1 1.1-4.5 1.9-9 1.8-13.6C60.1 9 60.8 8.2 61.2 7.4 61.5 6.9 61.7 6.2 61.3 5.7 60.8 4.9 60.1 4.3 59.2 4 57.6 3.7 56.3 4.9 55.3 6 54.9 6.6 54.4 6 53.9 5.9 48.9 3.9 43.6 2.7 38.4 1.7 34.2 0.9 30 0.7 25.8 0.8Z" style="stroke-linejoin:round;stroke-width:0.04"/></g></svg>