<svg xmlns="http://www.w3.org/2000/svg" viewBox="0 0 309 200"><defs><style>.cls-1{fill:#fff;}.cls-2{font-size:15px;font-family:MarqueeMoon-Regular, Marquee Moon;}.cls-3{letter-spacing:-0.01em;}.cls-4{letter-spacing:0em;}</style></defs><title>mansion</title><g id="background"><path d="M179.4,44.11c1.46,11.13,4.6,21.4,14.51,27.7,3.37,2.14,6.44,4,8.77,7.36a59.77,59.77,0,0,1,4.92,8.94,71.83,71.83,0,0,1,6.65,22.36c.22,1.74.31,5.09,1.57,6.44s4.63,1.74,6.39,2.78c7.34,4.35,7.46,11.18,4.42,18.39-2.46,5.82-2.09,11-1.76,17.3.27,5,2.25,17.89-2.63,20.32l1.82.24c-5.2-4.23-13.51-2.42-19.74-2.42-8.44,0-16.88-.09-25.3-.62a168.33,168.33,0,0,1-26.45-3.57,124.23,124.23,0,0,1-12.39-3.43c-3.64-1.22-7.52-3.61-11.38-3.81a13,13,0,0,0-8,2.67c-2,1.39-4.06,4.68-6.27,4.38-3.32-.46-6.43-6.08-8.74-8.25a62.28,62.28,0,0,0-7.53-6A76.08,76.08,0,0,0,79.86,146c-3.31-1.13-6.44-2.76-9.72-3.84-1.51-.5-3.23-.16-4.64-.61-4.19-1.35-4.13-5.42-2.83-8.81.69-1.81-2.21-2.59-2.9-.8C58.2,136,58.7,142.55,63.6,144.45c2.07.79,4.32.05,6.64,1,1.49.59,2.84,1.47,4.36,2,3.78,1.39,7.63,2.41,11.33,4.06a61.92,61.92,0,0,1,19.92,13.71c2.64,2.78,6.32,8.78,11.06,7,1.09-.42,2.44-2.4,3.34-3.18,2.17-1.9,4.8-3.9,7.83-3.95,4-.08,9.23,3.1,13.07,4.31a140.84,140.84,0,0,0,25.3,5.38,251.4,251.4,0,0,0,27,1.7c4.22.07,8.44.08,12.67.08,4.43,0,12.11-1.47,15.81,1.54a1.59,1.59,0,0,0,1.82.24c4.66-2.34,4.25-8.83,4.37-13.55.23-8.31-2.21-17.29,1.09-25.16,2-4.8,3.7-9.68,1.6-14.77-1.75-4.27-5.58-7.26-9.74-9-1.25-.53-2.28-.67-3.15-1.73-1.29-1.55-.86-5.68-1.09-7.72a34.81,34.81,0,0,0-2-8.35c-2.59-7-5.4-14.12-9.58-20.34-3.68-5.48-9.61-7.32-14.21-11.72-5.87-5.63-7.65-14.09-8.66-21.83-.24-1.89-3.24-1.91-3,0Z"/><path d="M62.39,132.78c-1.15-20,2.28-40.46,12.29-58a80.38,80.38,0,0,1,8.85-12.57c3.18-3.7,7.43-6.52,10.53-10.17a21.47,21.47,0,0,0,2.09-3.9c2-3.63,5.07-2.83,8.34-1.19,4.93,2.47,8.89,6.48,12.81,10.27a1.51,1.51,0,0,0,2.12,0,63.69,63.69,0,0,0,8.34-12.34l-2.05.54,8.34,5.42a1.5,1.5,0,0,0,2.2-.89c.87-6,7.29-4.57,10.94-1.81,2.68,2,4.22,6.08,7.58,7.16,6.11,2,6.69-8.58,7-12.29.18-1.92-2.82-1.91-3,0a39.36,39.36,0,0,1-.81,5.6c-.16.62-.4,2.62-1,3-1.85,1.27-3.15-.65-4.09-1.71-2.16-2.44-3.83-4.5-6.87-5.87-5.42-2.46-11.71-1.6-12.68,5.1l2.2-.9-8.34-5.42a1.51,1.51,0,0,0-2,.54,60.92,60.92,0,0,1-7.87,11.73h2.12c-4.1-4-8.26-8.16-13.42-10.74-3-1.49-6.89-3.44-9.91-1.18-1.44,1.07-2.22,2.85-3,4.4C91.73,50.33,89.42,52,87.23,54A82.72,82.72,0,0,0,76.09,67c-13.3,19.06-18,42.91-16.7,65.82.11,1.92,3.11,1.93,3,0Z"/></g><g id="sign"><path class="cls-1" d="M5.73,105.09C5,114.54,9.49,123.7,9.44,133.17"/><path d="M4.23,105.09c-.39,9.58,3.49,18.56,3.71,28.08,0,1.93,3,1.93,3,0-.22-9.52-4.1-18.52-3.71-28.08.08-1.93-2.92-1.92-3,0Z"/><path class="cls-1" d="M7.3,103q11.06,2.4,22.27,4a55.41,55.41,0,0,0,7.39.64c2.72,0,5.44-.38,8.15-.61,9.91-.81,19.86.46,29.65,2.15q12.9,2.24,25.62,5.43"/><path d="M6.91,104.44c7.5,1.61,15.05,3,22.66,4s14.57-.23,22-.22c16.24,0,32.67,3.87,48.36,7.78,1.87.46,2.67-2.43.79-2.89C86,109.43,70.63,106,55.33,105.32c-7.38-.31-14.73,1.23-22.08.58A217.08,217.08,0,0,1,7.7,101.55c-1.88-.4-2.68,2.49-.79,2.89Z"/><path d="M100.08,112.34a102.25,102.25,0,0,0-1.27,17.21c0,1.93,3,1.93,3,0A96.9,96.9,0,0,1,103,113.14c.3-1.89-2.59-2.7-2.89-.8Z"/><path class="cls-1" d="M98.54,130.39c-12.82.6-25.79-.64-38.41,1.73-8.67,1.63-16.94,4.93-25.48,7.18s-17,3.4-25.62,4.59a20.91,20.91,0,0,0,1.09-10.07"/><path d="M98.54,128.89c-15.2.61-30.38-.71-45.25,3.28-7.3,2-14.39,4.6-21.75,6.35-7.54,1.8-15.24,2.86-22.91,3.92l1.84,1.85a24.8,24.8,0,0,0,1.15-10.47c-.18-1.91-3.18-1.93-3,0a23.28,23.28,0,0,1-1,9.67c-.39,1.21.8,2,1.84,1.85,7.37-1,14.76-2,22-3.71,7.06-1.63,13.87-4.09,20.83-6.06,15.24-4.33,30.65-3.06,46.27-3.68,1.92-.08,1.93-3.08,0-3Z"/><path d="M43.43,136.35c-1.07,6.3,0,12.28,1.15,18.49a176.18,176.18,0,0,1,2.49,23.6c.1,1.92,3.1,1.93,3,0-.34-6.36-.69-12.72-1.64-19C47.3,152,45,144.71,46.32,137.15c.32-1.89-2.57-2.7-2.89-.8Z"/><path d="M50.11,135c-.32,7.37-.61,14.8.69,22.11.64,3.63,2.07,7.06,2.67,10.68.68,4,.11,8.19.45,12.28.16,1.91,3.17,1.92,3,0-.3-3.6.11-7.21-.19-10.8-.28-3.22-1.42-6.18-2.23-9.28-2.14-8.15-1.75-16.66-1.39-25,.09-1.94-2.91-1.93-3,0Z"/><path d="M44.31,179.39A42.93,42.93,0,0,1,61.58,181c5,1.59,9.4,4.74,14.47,6.09,4.29,1.13,8.57.15,12.92.11,7-.08,12.85,4.33,13.49,11.6.17,1.91,3.17,1.93,3,0a15.86,15.86,0,0,0-6.26-11.66c-4.35-3.25-9.25-3-14.41-2.65a23.16,23.16,0,0,1-12.38-2c-2.78-1.29-5.44-2.76-8.33-3.79a45.31,45.31,0,0,0-19.77-2.29c-1.91.18-1.93,3.18,0,3Z"/><path d="M44.77,176.36c-7.56,1.75-13.3,6.73-19.83,10.57-5,2.91-11.41,5.17-10.27,12.07.32,1.9,3.21,1.09,2.89-.8-.85-5.16,10.45-9.59,14.1-12,4.39-2.93,8.69-5.7,13.91-6.91,1.88-.44,1.08-3.33-.8-2.9Z"/><path d="M35.05,123H56.13a1.5,1.5,0,0,0,0-3H35.05a1.5,1.5,0,0,0,0,3Z"/><path class="cls-1" d="M41.33,121.69a213.65,213.65,0,0,1,30.15.15v-3H33.26c-2,0-1.9,2.84,0,3a170.17,170.17,0,0,1,26.52,4.36l.79-2.89a143.09,143.09,0,0,0-29.78-2.7,1.5,1.5,0,0,0,0,3c10.72.22,21.38-.74,32-1.78,1.88-.18,2-3,0-3a219,219,0,0,0-37.22,3.24l.8,2.89q14.65-2.85,29.49-4.56l-.4-3a96.34,96.34,0,0,0-25.14,7.43c-1.37.61-.67,2.86.76,2.79,6.87-.33,13.68-1,20.49-2,1.66-.24,1.28-3.09-.4-2.94A41.41,41.41,0,0,0,30,130.5c-1.27.92-.57,3.39,1.15,2.75q6.69-2.49,13.51-4.53c1.57-.47,1.35-3-.4-3A91.18,91.18,0,0,0,32,127.24l1.9,1.44.62-6.56c.13-1.37-1.69-1.88-2.56-1.06-2.59,2.44-2,7.06-4.63,9.07l2.21.9A43.44,43.44,0,0,1,27,120.92l-2.79.76a35.78,35.78,0,0,1,3.14,12.78c.12,1.91,3.07,1.94,3,0l-.47-13c-.07-1.92-3.07-1.93-3,0l.47,13h3a40,40,0,0,0-3.55-14.29c-.59-1.32-3-.7-2.8.75a46.71,46.71,0,0,0,2.7,10.91c.31.79,1.36,1.54,2.21.89,3.31-2.51,2.41-6.87,5.23-9.54l-2.56-1.06-.62,6.56c-.1,1,1,1.61,1.9,1.45a86,86,0,0,1,11.42-1.36l-.39-3q-6.84,2.06-13.52,4.53l1.16,2.75a38.58,38.58,0,0,1,19.71-7.39l-.4-2.95c-6.54,1-13.09,1.58-19.69,1.9l.76,2.8a93.29,93.29,0,0,1,24.42-7.12c1.65-.25,1.28-3.14-.4-3q-15.24,1.74-30.29,4.67c-1.9.37-1.08,3.22.8,2.89a214.75,214.75,0,0,1,36.42-3.13v-3c-10.67,1-21.32,2-32,1.78v3a139.68,139.68,0,0,1,29,2.59c1.87.37,2.69-2.42.79-2.89a174.15,174.15,0,0,0-27.31-4.47v3H71.48c2,0,1.91-2.85,0-3a213.65,213.65,0,0,0-30.15-.15c-1.92.13-1.93,3.13,0,3Z"/><path class="cls-1" d="M26.53,120.51a1.5,1.5,0,0,0,0-3,1.5,1.5,0,0,0,0,3Z"/><path class="cls-1" d="M27.13,130.44l0-1.54h-3l.62,8.48,3-.4c-2.68-7.07-2.85-14.43-2.85-21.9l-2.79.76a14.94,14.94,0,0,1-1.5,15.66l2.74.36c-1.46-6.65-2.67-13.35-3.85-20.05l-2.9.8a56.25,56.25,0,0,1,3.08,15.83c.11,2.8-1,6.25,1.17,8.38a1.51,1.51,0,0,0,2.51-1.46l-7.5-26.24c-.45-1.57-3.08-1.34-2.94.4l1.92,24.81c.15,1.89,3,1.95,3,0l-.16-10.44-2.79.76c.84,1.2,2.74,4.1,2.18,5.65-1.23,3.43-2.63-.27-2.89-2s-2.8-1.15-2.94.4a18.11,18.11,0,0,0,.62,6.87c.47,1.72,2.78,1.21,2.94-.4a75.33,75.33,0,0,0-.66-18c-.61-4.41-.82-9.07-4.36-12.17-.88-.77-2.71-.34-2.56,1.06.75,7.35.9,15.12,2.82,22.29,1.47,5.48,4.71,7.39,10.14,8.68s11.43,1.23,16.51-1.34c2.68-1.36,4.78-3.44,7.12-5.27a25.58,25.58,0,0,1,12.56-5.26c1.66-.24,1.29-3.09-.39-2.95-9.38.8-17.29,6.49-26.58,7.59a1.51,1.51,0,0,0-.39,3c11.63,4,23-3.23,33.54-7.62,1.38-.58,1.45-3.17-.4-3l-18.51,2.21c-1.86.23-2,3.08,0,3A109.24,109.24,0,0,0,79.49,120a1.52,1.52,0,0,0,0-2.9,158.05,158.05,0,0,0-30.88-5.63c-1.82-.15-1.84,2.37-.4,3a79.76,79.76,0,0,0,28.24,5.69,1.5,1.5,0,0,0,.4-2.94c-19.56-5.29-39.6,0-59.45-.58v3C32,118.27,46.59,117,61.25,118.08l-.4-2.94c-12.49,1.81-25.27,1.59-37.86,2-1.61,0-2.13,2.64-.4,2.94a132.62,132.62,0,0,0,31.52,1.76c1.91-.12,2-3.08,0-3a178,178,0,0,0-25,3.25,1.51,1.51,0,0,0,0,2.89c13.47,2.47,29.11-1.41,42.07-5.05,1.91-.54,1-3.15-.8-2.9a262.22,262.22,0,0,0-26,5.15c-4,1-9.18,1.45-12.88,3.27-1.56.76-2.11,1.21-2,3,.25,4.77,5.9,5.71,9.37,4.39,3.2-1.23,5.95-3.6,9-5.22A38.29,38.29,0,0,1,61.7,123l-.4-3a63.53,63.53,0,0,1-13.18,3.67c-2.56.48-4.56,1-5.89,3.35-.5.9.11,2.39,1.29,2.26a70,70,0,0,0,12.07-2.43,1.51,1.51,0,0,0-.4-3l-15.71-.7-7.86-.35c-2.45-.11-7.19.52-8.65-1.38s-.46-5.49-2.17-8c-2.31-3.41-6.38-5.09-9-8.17L10,107.66a58.78,58.78,0,0,0,18.46,5c2.12.24,22.48.2,22.71,1.13l1.45-1.9a174.15,174.15,0,0,0-18.7-.66c-5.6.12-12.59,1.92-18,.18l.36,2.74c7.43-5.56,17.33,2.94,25.72,1.71,1.71-.25,1.23-2.92-.4-2.95a105.19,105.19,0,0,0-22.87,2.19c-1.91.39-1.07,3.21.8,2.89,6.28-1.06,12.3-3,18.4-4.76,2.75-.8,5.51-1.57,8.32-2.13,2.3-.45,10.34-2.46,12.27-.28l1.06-2.56-23.41-.08c-7.39,0-14.92.4-22-2l-.4,3A124.2,124.2,0,0,1,32,112.84a1.5,1.5,0,0,0,.79-2.89,128,128,0,0,0-19-3.84c-1.76-.22-1.9,2.43-.4,3,6.76,2.32,13.81,2.11,20.86,2.13l25.36.09a1.52,1.52,0,0,0,1.06-2.56c-3.46-3.91-13.4-1-17.69.07-8.13,1.94-15.95,4.94-24.22,6.33l.8,2.89a101,101,0,0,1,22.07-2.08l-.4-2.94c-8.94,1.31-18-7.73-26.44-1.41a1.52,1.52,0,0,0,.36,2.74c5.31,1.72,11.45.16,16.91,0a174.32,174.32,0,0,1,20.57.61A1.52,1.52,0,0,0,54,113c-1.16-4.6-12.09-2.57-15.43-2.67-9.32-.26-18.59-1.29-27.13-5.27a1.51,1.51,0,0,0-1.82,2.35c3.49,4.06,9.27,5.81,9.64,11.81.16,2.56-.44,4.71,2.4,5.91,4,1.69,10.5.75,14.84,1l18.66.83-.4-3a64.44,64.44,0,0,1-11.27,2.33l1.3,2.25c1.32-2.37,6.81-2.34,9.16-2.91a52.59,52.59,0,0,0,8.11-2.73c1.39-.57,1.46-3.16-.39-2.94a40.5,40.5,0,0,0-12.47,3.51A58.9,58.9,0,0,0,42.75,127c-1.28.79-2.67,2.16-4.14,2.49Q37,131.09,35.7,129q-3.27-1.52.27-1.66c2.33-1.22,5.73-1.46,8.28-2.09,2.77-.68,5.54-1.34,8.32-2,6.17-1.38,12.38-2.54,18.65-3.41l-.8-2.9C58,120.49,42.9,124.42,30,122v2.89a174,174,0,0,1,24.16-3.14v-3a129,129,0,0,1-30.72-1.65l-.4,3c12.87-.37,25.89-.21,38.66-2.06,1.76-.26,1.18-2.83-.4-3-14.66-1-29.26.19-43.85,1.54a1.5,1.5,0,0,0,0,3c19.56.56,39.39-4.74,58.65.47l.4-3A77.54,77.54,0,0,1,49,111.56l-.4,2.94A153.68,153.68,0,0,1,78.69,120v-2.9a106.58,106.58,0,0,1-35.13,7.31v3l18.51-2.21-.4-2.94c-9.83,4.11-21.1,11.39-31.95,7.62l-.4,2.94c9.29-1.1,17.25-6.8,26.58-7.59l-.4-3a27.51,27.51,0,0,0-12.37,4.86c-5.37,3.85-9.24,7.75-16.33,7.75a25.73,25.73,0,0,1-8.2-1.4c-3.79-1.28-5.32-3.8-6.14-7.56-1.4-6.47-1.65-13.28-2.32-19.85l-2.56,1.06c3.55,3.11,3.56,10,4,14.36a64.58,64.58,0,0,1,.13,13.69l2.95-.4a16.35,16.35,0,0,1-.51-6.07l-2.95.4c.43,2.81,3,8.8,6.81,6.33,4-2.59,1.4-9.47-.62-12.35a1.52,1.52,0,0,0-2.8.76l.16,10.44h3l-1.92-24.81-2.95.4,7.5,26.24,2.5-1.46c-1-1-.23-4.9-.29-6.26-.07-1.85-.25-3.68-.5-5.51a60.68,60.68,0,0,0-2.68-11.12,1.51,1.51,0,0,0-2.9.8c1.19,6.7,2.4,13.4,3.86,20,.3,1.37,2.05,1.32,2.74.36a17.91,17.91,0,0,0,1.5-18.7c-.67-1.38-2.79-.66-2.8.76,0,7.74.18,15.38,3,22.7.55,1.46,3.08,1.42,2.94-.4l-.62-8.48c-.14-1.91-3-2-3,0l0,1.54c0,1.93,3,1.94,3,0Z"/><path class="cls-1" d="M42.87,116.43a210.14,210.14,0,0,0,33.07,1.75,1.51,1.51,0,0,0,.4-3A124.91,124.91,0,0,0,53.12,110v3a184,184,0,0,1,27.06,1.28c4.72.58,10.37.94,14.88,2.51,2.48.86,2.32.2,2.2,3-.1,2.32-1.2,5-1.74,7.27L97,126a275.59,275.59,0,0,0-28.16.76c-4,.27-8.05.37-12,1-4.53.73-8.69,2.74-13.35,2.47l.4,2.95c8.52-1.17,16.56-2.71,24.51-6.11,9-3.85,17.72-8.37,27.84-7.3l-.4-3a365.33,365.33,0,0,1-41.55,8.69c-1.67.25-1.28,3,.4,3,13.55-.82,26.5-4.94,39.78-7.44l-.8-2.89a270,270,0,0,1-27.89,5.79c-1.68.25-1.27,3,.4,2.94a161.26,161.26,0,0,0,30.87-4l-.8-2.9c-10.22,2.51-20.3,5.68-30.88,6.2a1.5,1.5,0,0,0,0,3,91.1,91.1,0,0,0,32.94-4.47l-1.69-2.21c-3-.34-3.07-1-.28-1.86.87.7,2.73.38,2.56-1.06-.52-4.41-4.3-4.71-8.11-5-7.28-.64-15.32-.31-22.2-3l-.8,2.89a176.53,176.53,0,0,1,19.2,5l.4-3a25,25,0,0,1-8.23-.45l.9,2.2.71-1c1.11-1.58-1.49-3.09-2.59-1.51l-.71,1a1.51,1.51,0,0,0,.9,2.2,26.8,26.8,0,0,0,9,.56,1.5,1.5,0,0,0,.4-2.94,174.27,174.27,0,0,0-19.2-5,1.5,1.5,0,0,0-.8,2.89c4,1.54,8.09,1.85,12.33,2.2,2.22.18,15.43,0,15.78,2.91l2.56-1.06c-4.48-3.59-7.68-.63-7.13,4.73.6,5.73,5.4,4.41,7.88.77a1.52,1.52,0,0,0-1.7-2.21,88.71,88.71,0,0,1-32.14,4.37v3c10.85-.53,21.19-3.73,31.68-6.3,1.88-.46,1.08-3.32-.8-2.9a156.21,156.21,0,0,1-30.07,3.86l.4,3A270.59,270.59,0,0,0,94.44,121c1.89-.5,1.08-3.24-.8-2.89-13,2.44-25.71,6.53-39,7.33l.4,2.95a370.18,370.18,0,0,0,41.55-8.69c1.73-.47,1.21-2.78-.4-3-8.88-.94-16.93,2.24-24.91,5.76a101.59,101.59,0,0,1-28.24,7.75c-1.75.24-1.19,2.86.4,3,3.78.22,7-.93,10.6-1.82,4.82-1.19,9.81-1.32,14.75-1.66A275.59,275.59,0,0,1,97,129a1.52,1.52,0,0,0,1.44-1.1c.71-3,3.65-8.93,2-11.87S92,113.06,89.2,112.57A186.36,186.36,0,0,0,53.12,110c-2,0-1.86,2.75,0,3a119.72,119.72,0,0,1,22.42,5.17l.4-2.95a210.14,210.14,0,0,1-33.07-1.75c-1.91-.25-1.89,2.75,0,3Z"/><path class="cls-1" d="M46.57,138.52c0,5.54-1.24,12.54.5,17.86,1.08,3.27,1.93,5.75,2,9.26a84.49,84.49,0,0,0,1,9.93,1.47,1.47,0,0,0,1,1.05,2.84,2.84,0,0,0,3.75-2.32c.21-1.25-.61-2.36-1.08-3.43a17.83,17.83,0,0,1-1.73-9.81l-2.95.4a70,70,0,0,0,3.08,11.46c.65,1.81,3.55,1,2.89-.79A70.11,70.11,0,0,1,52,160.66c-.32-1.81-2.77-1.14-2.94.4-.32,2.73-.5,7.19,1.27,9.58a14.25,14.25,0,0,0,.87,1.75c1.42-.52,1.8-1.5,1.12-2.92.3-1.93-.17-4.48-.23-6.46-.1-3.33-1.66-5.69-2.21-8.88-.87-5-.32-10.49-.3-15.61a1.5,1.5,0,0,0-3,0Z"/><path d="M23.39,111.54c-2.36.08-4.72.15-7.08.24-.9,0-2.12-.1-2.87.57a2.51,2.51,0,0,0-.67,2c0,2.3,1.29,4.82,1.43,7.21.15,2.54-1,7.18.69,9.35s6.66,2.07,9.18,2.25c1.92.15,1.91-2.85,0-3a25.24,25.24,0,0,1-5.13-.7c-1.86-.53-1.57-.2-1.68-2.07-.15-2.37.07-4.74-.15-7.11-.09-1-1.57-5.6-1.28-6-.21.28,6.91.26,7.56.24,1.93-.07,1.94-3.07,0-3Z"/><path d="M14,121.29l3.58.47a1.5,1.5,0,0,0,1.5-1.5,1.54,1.54,0,0,0-1.5-1.5L14,118.29a1.51,1.51,0,0,0-1.5,1.5,1.53,1.53,0,0,0,1.5,1.5Z"/><path d="M25.25,114.24c-1.06,5.34-2,10.84.13,16,.71,1.77,3.61,1,2.89-.8-1.91-4.73-1.09-9.6-.13-14.46.37-1.88-2.52-2.69-2.89-.79Z"/><path d="M32.51,125c.76-1.84,3.56-7.17-.67-7.19-3,0-4.43,3.74-4.09,6.21.44,3.23,3.42,6.32,6.47,7.32,2.88.94,6.33-.65,6.24-4-.05-1.93-3.05-1.94-3,0,0,1.71-2.11,1.32-3.07.8a8.64,8.64,0,0,1-2.68-2.35,4.33,4.33,0,0,1-1-2.86c0-.34.61-2.42,1.15-2l-.69-.89c.31.91-1.2,3.34-1.54,4.17-.74,1.78,2.16,2.56,2.89.79Z"/><path d="M41.67,118.1C40,120,38.17,123.87,40,126.27s5.67,1.86,7.77.28c1.52-1.14,0-3.75-1.52-2.59a4,4,0,0,1-1.86.87c-.49.07-1.73.1-2-.43s.07-1.54.22-2a5.89,5.89,0,0,1,1.23-2.18c1.27-1.44-.84-3.57-2.12-2.12Z"/><path d="M45.14,117.61h-2a1.5,1.5,0,0,0,0,3h2a1.5,1.5,0,0,0,0-3Z"/><path d="M46.05,114q9.51-.81,19-.92a1.5,1.5,0,0,0,0-3q-9.55.1-19,.92c-1.91.17-1.93,3.17,0,3Z"/><path d="M55.08,112.16a111.23,111.23,0,0,0-.45,12.11c0,1.93,3,1.93,3,0a111.23,111.23,0,0,1,.45-12.11c.18-1.92-2.82-1.91-3,0Z"/><path d="M64,124a19.78,19.78,0,0,1,.55-2.65c.21-.7.44-1.89,1.33-1.35,1.33.81,2,3,2.37,4.42.45,1.88,3.34,1.09,2.9-.79-.61-2.54-2.35-6.49-5.33-6.87-3.42-.44-4.36,3.94-4.71,6.44-.27,1.89,2.62,2.7,2.89.8Z"/><path d="M68,121.18a26.35,26.35,0,0,1-5.67-.5c-1.89-.39-2.69,2.51-.8,2.89a30.58,30.58,0,0,0,6.47.61c1.93,0,1.94-3,0-3Z"/><path d="M72.79,118.44v3.38a5.75,5.75,0,0,0,.28,2.8c1.05,1.87,3.52.39,4.94-.14,1.79-.67,1-3.57-.8-2.89l-1.81.67c-.65.25-1,0-.16.76s.55.38.55-.36v-4.22a1.5,1.5,0,0,0-3,0Z"/><path d="M80.75,119.68l3.35-.54a1.5,1.5,0,0,0,1-1.84,1.52,1.52,0,0,0-1.84-1l-3.35.53a1.52,1.52,0,0,0-1,1.85,1.54,1.54,0,0,0,1.85,1.05Z"/><path d="M78.11,119.58c-.52,2.3-.32,5,1.58,6.64a4.51,4.51,0,0,0,6,0c1.41-1.33-.72-3.45-2.12-2.12a1.57,1.57,0,0,1-2.12-.34,3.93,3.93,0,0,1-.46-3.39c.42-1.88-2.47-2.68-2.89-.8Z"/><path d="M77.88,123.56a24,24,0,0,0,5.13-.68c1.87-.45,1.08-3.35-.8-2.89a19.78,19.78,0,0,1-4.33.57c-1.93,0-1.93,3,0,3Z"/><path d="M91.78,116.64c-1.64-.15-8.16-1-6.75,2.61.83,2.11,7,2.15,6.12,5l1-1a6.68,6.68,0,0,1-3.67-.42c-1.8-.7-2.58,2.2-.8,2.89a9.57,9.57,0,0,0,5.27.42,1.47,1.47,0,0,0,1-1c.75-2.43-.92-4.69-3-5.74-.59-.29-1.21-.52-1.81-.77-.3-.12-.6-.23-.89-.36-.75-.35-.77-.83-.85.45-.08,1.1-.13.86.67.87l1.22,0c.82,0,1.63.09,2.44.16,1.93.17,1.92-2.83,0-3Z"/></g><g id="ancientWorld"><path d="M149.85,162.62a173.39,173.39,0,0,1,24.26,2.54c6.89,1.24,13.61,3.11,20.65,3.13a1.52,1.52,0,0,0,1.45-1.9c-1.26-8-5-14.52-9.73-20.95-3.58-4.82-7.54-10.19-13.78-11.47-13.17-2.7-20,16.55-23.73,25.72-.73,1.79,2.17,2.57,2.89.8C155.5,151.6,163.61,130,176.52,139c4.34,3,7.55,8,10.42,12.3a39.55,39.55,0,0,1,6.38,15.94l1.44-1.9c-8,0-15.75-2.42-23.62-3.66a178.71,178.71,0,0,0-21.29-2c-1.94-.07-1.93,2.93,0,3Z"/></g><g id="modernWorld"><path d="M162.32,41.38c-1-6.09-9.59-3.51-13.49-3.06-4.79.55-10,1.2-14.37-1.32-2.66-1.53-6.82-5-3-8.45,1.36-1.22,4.26-1.11,6.1-1.25,6.5-.49,13.13-.84,19.43-2.64a32.56,32.56,0,0,0,7.71-3.21c2.25-1.33,5-5,7.38-4.78,4.21.45,6.58,7.49,10.52,9.38,7,3.36,15.94,1.46,23.32,1.27,4.68-.12,11.4.12,13.2,5.55,2.42,7.27-8.75,6-12.42,5.84-9.46-.29-18.83-1.7-28.17-3.16-1.34-.21-2.69,1.4-1.46,2.51a6.15,6.15,0,0,0,5.53,1.57c1.28-.18,1.45-2.2.36-2.74a14.4,14.4,0,0,0-4.43-1.34,1.52,1.52,0,0,0-1.69,2.2,40.24,40.24,0,0,1,1.76,5.16,1.5,1.5,0,0,0,2.89-.8,46.38,46.38,0,0,0-2.06-5.87l-1.7,2.2a11.61,11.61,0,0,1,3.72,1l.35-2.74-2.61-.8-1.46,2.5c8.4,1.31,16.81,2.61,25.3,3.1a113.11,113.11,0,0,0,13,.08c2.65-.15,4.5-1,5.72-3.53,2-4.25-.46-9.15-4.15-11.5-6-3.81-13.93-2.08-20.56-1.8-4.47.19-10.27.57-14.18-2-2.31-1.51-3.6-4.15-5.45-6.13-3-3.17-6.7-4.49-9.89-1.22-5.31,5.44-13.13,7.17-20.42,8-5.67.67-13.63-.48-18.33,3.3s-1,9.27,2.91,12a17.8,17.8,0,0,0,10,3c2.45.06,17.18-3,17.71.34.3,1.91,3.19,1.1,2.89-.79Z"/></g><g id="imaginarium"><path d="M86.76,102.07l1.87-31-2.56,1.06c4,3.42,5.4,8.19,6.56,13.16,1.26,5.4,2.43,10.82,3.64,16.23a1.51,1.51,0,0,0,3-.4,138.24,138.24,0,0,1,.49-17c.34-3.64.85-7.27,1.5-10.86.23-1.24.47-2.48.74-3.72.31-1.47,0-3.84,1.6-3.19s2.4,5.85,2.83,7.47c.71,2.63,1.34,5.29,1.89,8a142.28,142.28,0,0,1,2.51,18.5l1.5-1.5a186,186,0,0,0-27.91,1.68c-1.91.26-1.1,3.15.79,2.9a180.9,180.9,0,0,1,27.12-1.58,1.51,1.51,0,0,0,1.5-1.5,146.26,146.26,0,0,0-3.61-23.73c-.72-3-2.11-15.24-6.81-15.12-4.87.13-5,10.82-5.52,13.83a138.5,138.5,0,0,0-1.62,25.89l2.94-.4C97,90.89,96.38,76.93,88.2,70A1.53,1.53,0,0,0,85.63,71l-1.87,31.05c-.12,1.93,2.88,1.92,3,0Z"/></g><g id="slack"><text class="cls-2" transform="translate(181.26 115.63) rotate(23.8)">Sl<tspan class="cls-3" x="11.63" y="0">a</tspan><tspan class="cls-4" x="17.7" y="0">ck</tspan></text></g><g id="news"><path d="M287.34,197.29a34,34,0,0,1-4.8,6.15c-1.26,1.33-5,5.52-6.1,2.21-.61-1.82-3.51-1-2.89.8,3.33,9.83,14-3.59,16.38-7.64a1.5,1.5,0,0,0-2.59-1.52Z"/><path d="M274.67,205.34c-13.05-4.69-26.86-7.51-38.91-14.64l.3,2.36c2.42-2.91,2.79-6,2.82-9.7.05-6.11-.07-12.22.1-18.33a177.58,177.58,0,0,1,1.39-18.72c.79-5.95,1.39-12.37,4.92-17.37,2.47-3.5,4.55-4.51,8.74-4.27,3.12.18,6.26.66,9.35,1,6.58.82,13.13,1.82,19.68,2.77a302.12,302.12,0,0,0,35.5,3.48l-.4-2.95a5.89,5.89,0,0,1-4.64,0l-.39,2.94a27.37,27.37,0,0,1,5.43.05l-1.06-2.56a30.37,30.37,0,0,1-3.8,3.89c-1.47,1.26.66,3.37,2.12,2.12a30.37,30.37,0,0,0,3.8-3.89,1.52,1.52,0,0,0-1.06-2.56,27.37,27.37,0,0,0-5.43-.05,1.51,1.51,0,0,0-.4,3,10,10,0,0,0,6.23,0,1.5,1.5,0,0,0-.4-2.94c-13.49-.35-26.8-2.22-40.14-4.17-5.93-.86-11.87-1.72-17.82-2.42-4.53-.54-10.12-2-14.3.66-3,1.87-5.51,6.14-6.38,9.45a117.37,117.37,0,0,0-3.08,18.35c-.66,6.6-.9,13.24-1,19.87-.06,5.57,1.85,15.66-1.94,20.23a1.53,1.53,0,0,0,.3,2.36c12.28,7.26,26.33,10.16,39.64,14.93,1.82.66,2.6-2.24.79-2.89Z"/><path d="M282.56,208.47c4.91-1,9.84-1.84,14.73-2.91,3.63-.79,4.83-1.42,5.91-4.9,3.09-9.86,6-19.72,9.53-29.45C316,162,319.92,153,323.3,143.76c1-2.6,4.07-8.57,3.13-11.3s-6.23-3.81-8.54-4.84c-1.75-.78-3.28,1.8-1.51,2.59,1.55.69,5,1.49,6.15,2.75,1.07.12,1.25.68.55,1.65-.29,1.13-.62,2.25-1,3.37-1.05,3.36-2.32,6.65-3.62,9.92-3.09,7.77-6.18,15.52-9,23.4q-4.09,11.49-7.62,23.17c-.54,1.79-.81,4.77-1.85,6.29-1.26,1.85-3.41,1.88-5.4,2.27l-12.89,2.55c-1.89.37-1.09,3.26.8,2.89Z"/><path d="M248.3,131.74c21.82,2.25,43,8.73,65.07,9.17,1.93,0,1.93-3,0-3-22-.44-43.25-6.92-65.07-9.17-1.91-.2-1.9,2.8,0,3Z"/><path d="M246.61,131.3q-2.33,26.17-6.33,52.14c-.62,4.08-.8,7.46,4.06,8a173.43,173.43,0,0,1,25.75,4.68c3.86,1,7.73,2,11.64,2.79,1.62.32,3.52,1,4.89-.34,1.21-1.16,1-3,1.15-4.56a41.75,41.75,0,0,1,3.34-12.65c2.91-6.57,7.84-11.92,10.4-18.68,3-7.82,4.83-16.17,7.12-24.21a1.5,1.5,0,0,0-2.9-.79c-1.91,6.73-3.7,13.51-5.76,20.19s-5.69,11.62-9.16,17.49a44.47,44.47,0,0,0-5.8,16.56c-.12.86.1,2.2-.29,2.94-1,1.84-2.89,1-4.89.57-3.3-.74-6.57-1.59-9.84-2.43A153.23,153.23,0,0,0,251.67,189c-1.51-.2-3.09-.19-4.57-.47-3.69-.7-4.4-1-3.92-4.31.55-3.88,1.17-7.76,1.72-11.65q2.9-20.58,4.71-41.29c.17-1.93-2.83-1.91-3,0Z"/><path d="M284.15,132.32a1.5,1.5,0,0,0,0-3,1.5,1.5,0,0,0,0,3Z"/><path d="M296.19,134.34a1.5,1.5,0,0,0,0-3,1.5,1.5,0,0,0,0,3Z"/><path d="M308.48,135.91a1.5,1.5,0,0,0,0-3,1.5,1.5,0,0,0,0,3Z"/><path d="M253,176.5l2.28-7.41-2.2.89a49.78,49.78,0,0,0,14.59,7.2,1.52,1.52,0,0,0,1.7-.69l5.12-10.88h-2.59q5,8.88,9.46,18.07l1.29-2.26c-6.13.66-12.22,1.59-18.27,2.83l1.85,1.85c.54-2.1,2.76-6.45.09-8-1.54-.9-4.65-.44-6.31-.65a51.34,51.34,0,0,1-9.92-2.36c-1.83-.62-2.62,2.28-.79,2.89a53.94,53.94,0,0,0,10.11,2.42c4.32.58,5.08.4,3.93,4.9a1.51,1.51,0,0,0,1.84,1.84c5.79-1.18,11.6-2.09,17.47-2.72a1.52,1.52,0,0,0,1.3-2.25q-4.43-9.21-9.46-18.07a1.51,1.51,0,0,0-2.59,0L266.81,175l1.69-.69a47.42,47.42,0,0,1-13.88-6.89,1.51,1.51,0,0,0-2.2.9l-2.28,7.41c-.57,1.85,2.33,2.64,2.89.8Z"/></g></svg>