<svg id="footprints" xmlns="http://www.w3.org/2000/svg" viewBox="0 0 206.54 628.51">
  <defs>
    <style>
      .cls-1 {
        fill: #666;
      }
    </style>
  </defs>
  <title>footstepsOnly</title>
  <g id="footprint1" class="footprint">
    <g>
      <path class="cls-1" d="M285,61.86c3.78.54,7.68-5.37,6-9.17-1.19-2.67-5.08-2-7.24,1.27C281.48,57.49,282.07,61.4,285,61.86Z" transform="translate(-151.73 -22.79)"/>
      <path class="cls-1" d="M280.7,52.73c1.62.43,4.33-1.34,5.74-3.75s1.65-5.57.42-7a2.3,2.3,0,0,0-2.78-.87c-3.12.74-6.19,6-5.43,9.27A3.69,3.69,0,0,0,280.7,52.73Z" transform="translate(-151.73 -22.79)"/>
      <path class="cls-1" d="M293.61,65.09a3.23,3.23,0,0,0,3.29-.38c2.7-1.9,3.24-7.09,1-9.74a2.47,2.47,0,0,0-2-1.08c-1.18-.15-1.32-.09-2.38.8a7.51,7.51,0,0,0-1.94,7.37A5.83,5.83,0,0,0,293.61,65.09Z" transform="translate(-151.73 -22.79)"/>
      <path class="cls-1" d="M293.24,52.13c1.75.62,2.67.27,5.19-2.07a40,40,0,0,1,5.15-3.93l2.93-1.93L307,43a4.65,4.65,0,0,0-.19-4.5c-.91-1.38-1.45-1.67-3.59-2a13.19,13.19,0,0,1-6-2.06c-3.08-2-4.18-2.31-6.25-1.44a6.29,6.29,0,0,0-2.91,2.92c-.82,2-.3,5,2,11.59C291.15,50.71,291.79,51.61,293.24,52.13Z" transform="translate(-151.73 -22.79)"/>
      <path class="cls-1" d="M302.51,60.31c1.79.76,3.87-.44,4.9-2.8s.67-6-.77-7.73a3.86,3.86,0,0,0-3.16-1c-3.44.82-4.88,7.39-2.33,10.43A4.39,4.39,0,0,0,302.51,60.31Z" transform="translate(-151.73 -22.79)"/>
      <path class="cls-1" d="M335.29,52.13c3.78.54,7.69-5.36,6-9.16-1.18-2.68-5.08-2-7.24,1.27C331.75,47.76,332.34,51.67,335.29,52.13Z" transform="translate(-151.73 -22.79)"/>
      <path class="cls-1" d="M331,43c1.62.44,4.33-1.33,5.74-3.74s1.65-5.58.42-7a2.26,2.26,0,0,0-2.77-.87c-3.13.74-6.19,6-5.43,9.26A3.68,3.68,0,0,0,331,43Z" transform="translate(-151.73 -22.79)"/>
      <path class="cls-1" d="M343.89,55.37a3.24,3.24,0,0,0,3.28-.39c2.7-1.89,3.24-7.08,1-9.74a2.51,2.51,0,0,0-2-1.08c-1.18-.15-1.33-.09-2.38.8a7.49,7.49,0,0,0-1.94,7.37A5.8,5.8,0,0,0,343.89,55.37Z" transform="translate(-151.73 -22.79)"/>
      <path class="cls-1" d="M343.52,42.4c1.74.62,2.66.27,5.18-2.06a39.8,39.8,0,0,1,5.15-3.94l2.94-1.93.51-1.22a4.68,4.68,0,0,0-.2-4.5c-.9-1.37-1.45-1.67-3.59-2a13,13,0,0,1-6-2.06c-3.09-2.05-4.19-2.3-6.26-1.44a6.27,6.27,0,0,0-2.91,2.93c-.82,2-.3,4.95,2,11.59C341.43,41,342.06,41.89,343.52,42.4Z" transform="translate(-151.73 -22.79)"/>
      <path class="cls-1" d="M352.79,50.59c1.78.75,3.86-.45,4.89-2.8s.68-6-.77-7.74a3.83,3.83,0,0,0-3.15-1c-3.45.81-4.88,7.39-2.34,10.43A4.6,4.6,0,0,0,352.79,50.59Z" transform="translate(-151.73 -22.79)"/>
    </g>
  </g>
  <g id="footprint2" class="footprint">
    <g>
      <path class="cls-1" d="M192.84,158.87c3.82,0,6.82-6.43,4.64-10-1.56-2.48-5.32-1.24-7,2.31C188.71,155.06,189.86,158.84,192.84,158.87Z" transform="translate(-151.73 -22.79)"/>
      <path class="cls-1" d="M187.24,150.46c1.67.2,4.09-2,5.13-4.54s.82-5.75-.61-7a2.27,2.27,0,0,0-2.87-.46c-3,1.19-5.25,6.81-4,10A3.67,3.67,0,0,0,187.24,150.46Z" transform="translate(-151.73 -22.79)"/>
      <path class="cls-1" d="M201.82,160.82A3.25,3.25,0,0,0,205,160c2.4-2.27,2.17-7.48-.44-9.79a2.49,2.49,0,0,0-2.17-.76c-1.19,0-1.32.1-2.23,1.13a7.48,7.48,0,0,0-.85,7.58A5.82,5.82,0,0,0,201.82,160.82Z" transform="translate(-151.73 -22.79)"/>
      <path class="cls-1" d="M199.56,148c1.82.37,2.68-.12,4.83-2.79a39.76,39.76,0,0,1,4.52-4.65l2.63-2.33.32-1.28a4.68,4.68,0,0,0-.85-4.43c-1.09-1.23-1.67-1.44-3.84-1.44a13.12,13.12,0,0,1-6.26-1.17c-3.35-1.58-4.48-1.66-6.39-.51a6.26,6.26,0,0,0-2.46,3.32c-.52,2.08.43,5,3.67,11.17C197.29,146.94,198.05,147.75,199.56,148Z" transform="translate(-151.73 -22.79)"/>
      <path class="cls-1" d="M209.93,154.79c1.87.48,3.75-1,4.43-3.48s-.21-6.07-1.89-7.54a3.81,3.81,0,0,0-3.26-.54c-3.3,1.31-3.76,8-.8,10.66A4.3,4.3,0,0,0,209.93,154.79Z" transform="translate(-151.73 -22.79)"/>
      <path class="cls-1" d="M241.16,141.92c3.82,0,6.82-6.42,4.64-9.95-1.56-2.47-5.32-1.24-7,2.32C237,138.11,238.17,141.9,241.16,141.92Z" transform="translate(-151.73 -22.79)"/>
      <path class="cls-1" d="M235.56,133.52c1.67.19,4.09-2,5.13-4.54s.82-5.76-.61-7a2.27,2.27,0,0,0-2.87-.45c-3,1.18-5.25,6.8-4,10A3.72,3.72,0,0,0,235.56,133.52Z" transform="translate(-151.73 -22.79)"/>
      <path class="cls-1" d="M250.14,143.87a3.22,3.22,0,0,0,3.19-.86c2.4-2.27,2.17-7.48-.44-9.78a2.49,2.49,0,0,0-2.17-.77c-1.19,0-1.32.1-2.24,1.14a7.48,7.48,0,0,0-.84,7.57A5.82,5.82,0,0,0,250.14,143.87Z" transform="translate(-151.73 -22.79)"/>
      <path class="cls-1" d="M247.88,131.1c1.82.36,2.68-.12,4.83-2.8a39.72,39.72,0,0,1,4.52-4.64l2.63-2.34.32-1.28a4.68,4.68,0,0,0-.85-4.43c-1.09-1.22-1.67-1.44-3.84-1.44a13.25,13.25,0,0,1-6.26-1.16c-3.35-1.58-4.48-1.67-6.39-.52a6.29,6.29,0,0,0-2.46,3.32c-.52,2.08.43,5,3.67,11.18C245.61,130,246.37,130.8,247.88,131.1Z" transform="translate(-151.73 -22.79)"/>
      <path class="cls-1" d="M258.25,137.84c1.87.49,3.75-1,4.43-3.48s-.21-6.06-1.89-7.54a3.81,3.81,0,0,0-3.26-.53c-3.3,1.31-3.76,8-.8,10.66A4.41,4.41,0,0,0,258.25,137.84Z" transform="translate(-151.73 -22.79)"/>
    </g>
  </g>
  <g id="footprint3" class="footprint">
    <g>
      <path class="cls-1" d="M163.56,283.89c3.66-1.08,4.75-8.08,1.67-10.85-2.2-1.94-5.46.3-6,4.18C158.52,281.4,160.69,284.71,163.56,283.89Z" transform="translate(-151.73 -22.79)"/>
      <path class="cls-1" d="M155.83,277.4c1.65-.28,3.37-3,3.65-5.8s-.83-5.76-2.56-6.56a2.26,2.26,0,0,0-2.88.37c-2.53,2-3.13,8-1.06,10.68A3.69,3.69,0,0,0,155.83,277.4Z" transform="translate(-151.73 -22.79)"/>
      <path class="cls-1" d="M172.72,283.24a3.24,3.24,0,0,0,2.83-1.72c1.66-2.85,0-7.79-3.18-9.26a2.46,2.46,0,0,0-2.29-.13c-1.13.35-1.24.47-1.83,1.72a7.51,7.51,0,0,0,1.31,7.5A5.87,5.87,0,0,0,172.72,283.24Z" transform="translate(-151.73 -22.79)"/>
      <path class="cls-1" d="M167,271.61c1.85-.16,2.54-.86,3.86-4a39.61,39.61,0,0,1,3-5.72l1.86-3,0-1.32a4.68,4.68,0,0,0-2.06-4c-1.4-.87-2-.91-4.1-.31a13.08,13.08,0,0,1-6.33.64c-3.66-.57-4.77-.34-6.28,1.3a6.25,6.25,0,0,0-1.42,3.88c.07,2.14,1.79,4.63,6.65,9.7C164.48,271.2,165.44,271.76,167,271.61Z" transform="translate(-151.73 -22.79)"/>
      <path class="cls-1" d="M178.81,275.18c1.94-.06,3.33-2,3.28-4.58s-1.9-5.77-3.92-6.71a3.86,3.86,0,0,0-3.29.4c-2.79,2.18-1.35,8.75,2.23,10.45A4.44,4.44,0,0,0,178.81,275.18Z" transform="translate(-151.73 -22.79)"/>
      <path class="cls-1" d="M205.18,254.06c3.66-1.08,4.75-8.08,1.67-10.85-2.2-1.94-5.46.3-6,4.18C200.14,251.57,202.31,254.88,205.18,254.06Z" transform="translate(-151.73 -22.79)"/>
      <path class="cls-1" d="M197.45,247.57c1.65-.28,3.37-3,3.65-5.8s-.83-5.76-2.56-6.56a2.27,2.27,0,0,0-2.88.37c-2.53,2-3.13,8-1.06,10.68A3.69,3.69,0,0,0,197.45,247.57Z" transform="translate(-151.73 -22.79)"/>
      <path class="cls-1" d="M214.34,253.41a3.24,3.24,0,0,0,2.83-1.72c1.66-2.85,0-7.79-3.18-9.26a2.46,2.46,0,0,0-2.29-.13c-1.13.35-1.24.47-1.83,1.72a7.51,7.51,0,0,0,1.31,7.5A5.87,5.87,0,0,0,214.34,253.41Z" transform="translate(-151.73 -22.79)"/>
      <path class="cls-1" d="M208.59,241.78c1.85-.16,2.54-.86,3.86-4a39.61,39.61,0,0,1,3-5.72l1.86-3,0-1.32a4.68,4.68,0,0,0-2.06-4c-1.4-.87-2-.91-4.1-.3a13.19,13.19,0,0,1-6.33.63c-3.66-.57-4.77-.34-6.28,1.3a6.25,6.25,0,0,0-1.42,3.88c.07,2.14,1.79,4.63,6.65,9.7C206.1,241.37,207.06,241.93,208.59,241.78Z" transform="translate(-151.73 -22.79)"/>
      <path class="cls-1" d="M220.43,245.35c1.94-.06,3.33-2,3.28-4.58s-1.9-5.77-3.92-6.71a3.86,3.86,0,0,0-3.29.4c-2.79,2.18-1.35,8.75,2.23,10.45A4.44,4.44,0,0,0,220.43,245.35Z" transform="translate(-151.73 -22.79)"/>
    </g>
  </g>
  <g id="footprint4" class="footprint">
    <g>
      <path class="cls-1" d="M218,403.23c2.11-3.19-1.57-9.24-5.71-9.38-2.93-.07-4,3.75-1.94,7.1C212.54,404.56,216.32,405.7,218,403.23Z" transform="translate(-151.73 -22.79)"/>
      <path class="cls-1" d="M207.89,403.24c1.09-1.28.64-4.48-.94-6.78s-4.34-3.88-6.18-3.38a2.28,2.28,0,0,0-2,2.14c-.66,3.14,2.76,8.14,6.07,8.86A3.68,3.68,0,0,0,207.89,403.24Z" transform="translate(-151.73 -22.79)"/>
      <path class="cls-1" d="M224.59,396.83a3.25,3.25,0,0,0,1-3.14c-.57-3.25-5-5.94-8.4-5a2.46,2.46,0,0,0-1.83,1.38c-.64,1-.65,1.16-.29,2.49a7.48,7.48,0,0,0,5.83,4.9A5.81,5.81,0,0,0,224.59,396.83Z" transform="translate(-151.73 -22.79)"/>
      <path class="cls-1" d="M212.7,391.64c1.31-1.31,1.38-2.29.34-5.57a40.58,40.58,0,0,1-1.36-6.34l-.5-3.47-.88-1a4.67,4.67,0,0,0-4.16-1.74c-1.62.23-2.12.6-3.33,2.4a13.14,13.14,0,0,1-4.43,4.57c-3.17,1.92-3.87,2.81-4,5a6.24,6.24,0,0,0,1.41,3.88c1.44,1.59,4.35,2.39,11.33,3.14C210.52,392.92,211.62,392.74,212.7,391.64Z" transform="translate(-151.73 -22.79)"/>
      <path class="cls-1" d="M224.05,386.74c1.45-1.3,1.25-3.68-.44-5.62s-5.17-3.18-7.32-2.6a3.85,3.85,0,0,0-2.26,2.42c-.73,3.47,4.6,7.57,8.44,6.57A4.47,4.47,0,0,0,224.05,386.74Z" transform="translate(-151.73 -22.79)"/>
      <path class="cls-1" d="M230.62,353.6c2.11-3.19-1.57-9.24-5.71-9.37-2.93-.07-4,3.75-1.94,7.09C225.17,354.94,229,356.08,230.62,353.6Z" transform="translate(-151.73 -22.79)"/>
      <path class="cls-1" d="M220.52,353.62c1.09-1.28.64-4.49-.94-6.79s-4.34-3.87-6.18-3.38a2.29,2.29,0,0,0-2,2.14c-.66,3.14,2.76,8.14,6.07,8.87A3.68,3.68,0,0,0,220.52,353.62Z" transform="translate(-151.73 -22.79)"/>
      <path class="cls-1" d="M237.22,347.21a3.26,3.26,0,0,0,1.05-3.14c-.57-3.25-5-5.95-8.4-5A2.45,2.45,0,0,0,228,340.4c-.64,1-.65,1.17-.29,2.5a7.49,7.49,0,0,0,5.83,4.9A5.88,5.88,0,0,0,237.22,347.21Z" transform="translate(-151.73 -22.79)"/>
      <path class="cls-1" d="M225.33,342c1.31-1.32,1.38-2.3.34-5.58a40.19,40.19,0,0,1-1.36-6.33l-.5-3.48-.88-1a4.67,4.67,0,0,0-4.16-1.74c-1.63.23-2.12.6-3.33,2.4a13.14,13.14,0,0,1-4.43,4.57c-3.17,1.92-3.87,2.81-4,5a6.24,6.24,0,0,0,1.41,3.88c1.44,1.59,4.35,2.39,11.33,3.13C223.15,343.3,224.25,343.11,225.33,342Z" transform="translate(-151.73 -22.79)"/>
      <path class="cls-1" d="M236.68,337.12c1.45-1.3,1.25-3.69-.44-5.62s-5.17-3.18-7.32-2.6a3.83,3.83,0,0,0-2.26,2.42c-.73,3.47,4.6,7.57,8.44,6.56A4.56,4.56,0,0,0,236.68,337.12Z" transform="translate(-151.73 -22.79)"/>
    </g>
  </g>
  <g id="footprint5" class="footprint">
    <g>
      <path class="cls-1" d="M302.88,466.93c2.46-2.93-.5-9.36-4.59-10-2.9-.41-4.39,3.25-2.75,6.81C297.3,467.62,300.93,469.19,302.88,466.93Z" transform="translate(-151.73 -22.79)"/>
      <path class="cls-1" d="M292.84,465.77c1.23-1.14,1.16-4.38-.14-6.85s-3.87-4.35-5.75-4.07a2.28,2.28,0,0,0-2.21,1.9c-1,3,1.8,8.4,5,9.5A3.64,3.64,0,0,0,292.84,465.77Z" transform="translate(-151.73 -22.79)"/>
      <path class="cls-1" d="M310.16,461.34a3.21,3.21,0,0,0,1.41-3c-.18-3.29-4.3-6.49-7.75-6a2.47,2.47,0,0,0-2,1.16c-.76.92-.78,1.07-.58,2.44a7.48,7.48,0,0,0,5.23,5.54A5.82,5.82,0,0,0,310.16,461.34Z" transform="translate(-151.73 -22.79)"/>
      <path class="cls-1" d="M299,454.8c1.45-1.15,1.64-2.12,1-5.49a38.68,38.68,0,0,1-.62-6.45l-.09-3.51-.77-1.08a4.66,4.66,0,0,0-3.92-2.21c-1.65,0-2.18.35-3.59,2a13.19,13.19,0,0,1-4.93,4c-3.37,1.54-4.17,2.34-4.53,4.55a6.28,6.28,0,0,0,.95,4c1.25,1.74,4.05,2.87,10.89,4.42C296.65,455.83,297.76,455.77,299,454.8Z" transform="translate(-151.73 -22.79)"/>
      <path class="cls-1" d="M310.81,451.25c1.58-1.12,1.66-3.51.2-5.63s-4.76-3.76-7-3.43a3.85,3.85,0,0,0-2.52,2.14c-1.13,3.36,3.7,8.05,7.62,7.5A4.38,4.38,0,0,0,310.81,451.25Z" transform="translate(-151.73 -22.79)"/>
      <path class="cls-1" d="M321.17,419.1c2.46-2.92-.49-9.36-4.59-10-2.9-.41-4.38,3.26-2.74,6.82C315.6,419.8,319.23,421.37,321.17,419.1Z" transform="translate(-151.73 -22.79)"/>
      <path class="cls-1" d="M311.14,417.94c1.23-1.14,1.15-4.37-.15-6.84s-3.86-4.35-5.74-4.08a2.28,2.28,0,0,0-2.21,1.9c-1,3,1.8,8.41,5,9.51A3.7,3.7,0,0,0,311.14,417.94Z" transform="translate(-151.73 -22.79)"/>
      <path class="cls-1" d="M328.46,413.51a3.24,3.24,0,0,0,1.41-3c-.18-3.3-4.3-6.49-7.75-6a2.45,2.45,0,0,0-2,1.15c-.75.92-.78,1.08-.58,2.44a7.49,7.49,0,0,0,5.23,5.54A5.77,5.77,0,0,0,328.46,413.51Z" transform="translate(-151.73 -22.79)"/>
      <path class="cls-1" d="M317.25,407c1.46-1.16,1.64-2.12,1-5.5a39.77,39.77,0,0,1-.62-6.45l-.08-3.51-.77-1.08a4.67,4.67,0,0,0-3.93-2.21c-1.64,0-2.18.35-3.58,2a13.15,13.15,0,0,1-4.94,4c-3.37,1.53-4.16,2.34-4.52,4.54a6.27,6.27,0,0,0,.95,4c1.24,1.74,4.05,2.88,10.89,4.43C315,408,316.05,407.94,317.25,407Z" transform="translate(-151.73 -22.79)"/>
      <path class="cls-1" d="M329.1,403.43c1.59-1.12,1.66-3.52.21-5.63s-4.76-3.76-7-3.44a3.82,3.82,0,0,0-2.52,2.15c-1.13,3.36,3.69,8.05,7.62,7.49A4.45,4.45,0,0,0,329.1,403.43Z" transform="translate(-151.73 -22.79)"/>
    </g>
  </g>
  <g id="footprint6" class="footprint">
    <g>
      <path class="cls-1" d="M222.6,554.14c3.76.66,7.85-5.12,6.32-9-1.09-2.71-5-2.16-7.27,1C219.2,549.66,219.66,553.59,222.6,554.14Z" transform="translate(-151.73 -22.79)"/>
      <path class="cls-1" d="M218.57,544.88c1.6.49,4.37-1.2,5.85-3.56s1.83-5.52.64-7a2.26,2.26,0,0,0-2.74-.95c-3.15.64-6.38,5.77-5.72,9.09A3.7,3.7,0,0,0,218.57,544.88Z" transform="translate(-151.73 -22.79)"/>
      <path class="cls-1" d="M231.09,557.64a3.23,3.23,0,0,0,3.3-.28c2.75-1.81,3.45-7,1.28-9.7a2.44,2.44,0,0,0-2-1.14c-1.17-.19-1.32-.14-2.4.72a7.49,7.49,0,0,0-2.18,7.3A5.82,5.82,0,0,0,231.09,557.64Z" transform="translate(-151.73 -22.79)"/>
      <path class="cls-1" d="M231.12,544.67c1.73.68,2.66.36,5.25-1.9a40.34,40.34,0,0,1,5.27-3.77l3-1.83.55-1.21a4.65,4.65,0,0,0-.06-4.5c-.86-1.4-1.39-1.71-3.53-2.1a13.22,13.22,0,0,1-5.95-2.25c-3-2.15-4.11-2.44-6.2-1.64a6.36,6.36,0,0,0-3,2.83c-.88,2-.45,5,1.64,11.65C229.08,543.19,229.69,544.11,231.12,544.67Z" transform="translate(-151.73 -22.79)"/>
      <path class="cls-1" d="M240.13,553.15c1.77.8,3.88-.33,5-2.65s.87-6-.52-7.75a3.81,3.81,0,0,0-3.12-1.11c-3.48.71-5.11,7.24-2.67,10.35A4.63,4.63,0,0,0,240.13,553.15Z" transform="translate(-151.73 -22.79)"/>
      <path class="cls-1" d="M273.15,546c3.76.66,7.85-5.12,6.33-9-1.1-2.72-5-2.16-7.28,1C269.75,541.52,270.22,545.45,273.15,546Z" transform="translate(-151.73 -22.79)"/>
      <path class="cls-1" d="M269.12,536.74c1.61.48,4.37-1.2,5.86-3.57s1.82-5.52.64-7a2.27,2.27,0,0,0-2.75-.95c-3.14.64-6.37,5.76-5.72,9.09A3.7,3.7,0,0,0,269.12,536.74Z" transform="translate(-151.73 -22.79)"/>
      <path class="cls-1" d="M281.64,549.5a3.23,3.23,0,0,0,3.3-.28c2.76-1.81,3.46-7,1.29-9.71a2.53,2.53,0,0,0-2-1.14c-1.17-.18-1.32-.13-2.4.73a7.46,7.46,0,0,0-2.17,7.3A5.76,5.76,0,0,0,281.64,549.5Z" transform="translate(-151.73 -22.79)"/>
      <path class="cls-1" d="M281.68,536.53c1.72.68,2.65.36,5.25-1.9a39,39,0,0,1,5.27-3.77l3-1.84.55-1.2a4.65,4.65,0,0,0-.06-4.5c-.85-1.41-1.39-1.72-3.52-2.1a13.15,13.15,0,0,1-6-2.26c-3-2.14-4.11-2.43-6.2-1.63a6.25,6.25,0,0,0-3,2.83c-.88,2-.46,5,1.63,11.65C279.63,535.05,280.24,536,281.68,536.53Z" transform="translate(-151.73 -22.79)"/>
      <path class="cls-1" d="M290.69,545c1.76.81,3.87-.32,5-2.64s.86-6-.53-7.75A3.81,3.81,0,0,0,292,533.5c-3.47.71-5.11,7.23-2.66,10.35A4.43,4.43,0,0,0,290.69,545Z" transform="translate(-151.73 -22.79)"/>
    </g>
  </g>
  <g id="footprint7" class="footprint">
    <g>
      <path class="cls-1" d="M198,650.1c3.81-.36,6.22-7,3.74-10.33-1.78-2.32-5.42-.76-6.75,2.93C193.5,646.68,195,650.34,198,650.1Z" transform="translate(-151.73 -22.79)"/>
      <path class="cls-1" d="M191.63,642.23c1.68,0,3.9-2.31,4.7-5s.31-5.81-1.23-6.94a2.27,2.27,0,0,0-2.9-.19c-2.86,1.44-4.62,7.24-3.11,10.28A3.69,3.69,0,0,0,191.63,642.23Z" transform="translate(-151.73 -22.79)"/>
      <path class="cls-1" d="M207.07,651.24a3.25,3.25,0,0,0,3.11-1.15c2.19-2.47,1.49-7.64-1.32-9.7a2.5,2.5,0,0,0-2.22-.57c-1.18.13-1.31.22-2.13,1.33a7.5,7.5,0,0,0-.17,7.62A5.91,5.91,0,0,0,207.07,651.24Z" transform="translate(-151.73 -22.79)"/>
      <path class="cls-1" d="M203.69,638.71c1.84.2,2.65-.35,4.56-3.21a38.53,38.53,0,0,1,4.08-5l2.41-2.56.21-1.31a4.66,4.66,0,0,0-1.25-4.33c-1.19-1.13-1.79-1.28-3.95-1.09a13.25,13.25,0,0,1-6.34-.6c-3.48-1.28-4.61-1.26-6.41.06a6.27,6.27,0,0,0-2.15,3.52c-.34,2.12.86,4.89,4.65,10.8C201.32,637.82,202.15,638.56,203.69,638.71Z" transform="translate(-151.73 -22.79)"/>
      <path class="cls-1" d="M214.61,644.51c1.92.31,3.65-1.34,4.11-3.87s-.75-6-2.56-7.34a3.82,3.82,0,0,0-3.3-.24c-3.16,1.6-3,8.33.16,10.69A4.6,4.6,0,0,0,214.61,644.51Z" transform="translate(-151.73 -22.79)"/>
      <path class="cls-1" d="M244.57,628.89c3.8-.35,6.22-7,3.74-10.32-1.78-2.33-5.42-.76-6.75,2.93C240.11,625.47,241.59,629.14,244.57,628.89Z" transform="translate(-151.73 -22.79)"/>
      <path class="cls-1" d="M238.24,621c1.68.05,3.9-2.3,4.7-5s.31-5.8-1.23-6.93a2.27,2.27,0,0,0-2.9-.2c-2.86,1.45-4.62,7.25-3.11,10.28A3.66,3.66,0,0,0,238.24,621Z" transform="translate(-151.73 -22.79)"/>
      <path class="cls-1" d="M253.68,630a3.22,3.22,0,0,0,3.11-1.14c2.19-2.47,1.49-7.64-1.32-9.7a2.44,2.44,0,0,0-2.22-.57c-1.19.12-1.31.22-2.13,1.33a7.5,7.5,0,0,0-.17,7.62A5.83,5.83,0,0,0,253.68,630Z" transform="translate(-151.73 -22.79)"/>
      <path class="cls-1" d="M250.3,617.51c1.84.2,2.65-.36,4.56-3.22a39.91,39.91,0,0,1,4.08-5l2.41-2.56.21-1.3a4.66,4.66,0,0,0-1.25-4.33c-1.19-1.13-1.79-1.29-3.95-1.1a13,13,0,0,1-6.34-.6c-3.48-1.27-4.61-1.26-6.41.06a6.3,6.3,0,0,0-2.15,3.53c-.34,2.11.86,4.89,4.65,10.8C247.93,616.62,248.76,617.35,250.3,617.51Z" transform="translate(-151.73 -22.79)"/>
      <path class="cls-1" d="M261.22,623.3c1.92.32,3.65-1.33,4.11-3.86s-.76-6-2.56-7.34a3.83,3.83,0,0,0-3.3-.24c-3.16,1.6-3,8.32.16,10.69A4.55,4.55,0,0,0,261.22,623.3Z" transform="translate(-151.73 -22.79)"/>
    </g>
  </g>
</svg>
