<svg id="footprints" xmlns="http://www.w3.org/2000/svg" viewBox="0 0 438.34 628.46">
  <defs>
    <style>
      .cls-1 {
        fill: #666;
      }

      .cls-2, .cls-3 {
        fill: #333;
      }

      .cls-3 {
        fill-rule: evenodd;
      }
    </style>
  </defs>
  <title>footsteps</title>
  <g id="footprint1" class="footprint">
    <g>
      <path class="cls-1" d="M285,61.9c3.8.5,7.7-5.4,6-9.2-1.2-2.7-5.1-2-7.2,1.3C281.5,57.5,282.1,61.4,285,61.9Z" transform="translate(-47.08 -22.79)"/>
      <path class="cls-1" d="M280.7,52.7c1.6.4,4.3-1.3,5.7-3.7s1.7-5.6.4-7a2.29,2.29,0,0,0-2.8-.9c-3.1.7-6.2,6-5.4,9.3A4,4,0,0,0,280.7,52.7Z" transform="translate(-47.08 -22.79)"/>
      <path class="cls-1" d="M293.6,65.1a3.34,3.34,0,0,0,3.3-.4c2.7-1.9,3.2-7.1,1-9.7a2.55,2.55,0,0,0-2-1.1c-1.2-.2-1.3-.1-2.4.8a7.27,7.27,0,0,0-1.9,7.4A5.52,5.52,0,0,0,293.6,65.1Z" transform="translate(-47.08 -22.79)"/>
      <path class="cls-1" d="M293.2,52.1c1.7.6,2.7.3,5.2-2.1a45.2,45.2,0,0,1,5.1-3.9l2.9-1.9L307,43a4.73,4.73,0,0,0-.2-4.5c-.9-1.4-1.4-1.7-3.6-2a12.16,12.16,0,0,1-6-2.1c-3.1-2.1-4.2-2.3-6.3-1.4a5.85,5.85,0,0,0-2.9,2.9c-.8,2-.3,5,2,11.6C291.2,50.7,291.8,51.6,293.2,52.1Z" transform="translate(-47.08 -22.79)"/>
      <path class="cls-1" d="M302.5,60.3c1.8.8,3.9-.4,4.9-2.8s.7-6-.8-7.7a4,4,0,0,0-3.2-1c-3.4.8-4.9,7.4-2.3,10.4A5.41,5.41,0,0,0,302.5,60.3Z" transform="translate(-47.08 -22.79)"/>
      <path class="cls-1" d="M335.3,52.1c3.8.5,7.7-5.4,6-9.2-1.2-2.7-5.1-2-7.2,1.3C331.8,47.8,332.3,51.7,335.3,52.1Z" transform="translate(-47.08 -22.79)"/>
      <path class="cls-1" d="M331,43c1.6.4,4.3-1.3,5.7-3.7s1.7-5.6.4-7a2.29,2.29,0,0,0-2.8-.9c-3.1.7-6.2,6-5.4,9.3A4,4,0,0,0,331,43Z" transform="translate(-47.08 -22.79)"/>
      <path class="cls-1" d="M343.9,55.4a3.34,3.34,0,0,0,3.3-.4c2.7-1.9,3.2-7.1,1-9.7a2.55,2.55,0,0,0-2-1.1c-1.2-.2-1.3-.1-2.4.8a7.27,7.27,0,0,0-1.9,7.4A5.52,5.52,0,0,0,343.9,55.4Z" transform="translate(-47.08 -22.79)"/>
      <path class="cls-1" d="M343.5,42.4c1.7.6,2.7.3,5.2-2.1a45.2,45.2,0,0,1,5.1-3.9l2.9-1.9.5-1.2a4.73,4.73,0,0,0-.2-4.5c-.9-1.4-1.4-1.7-3.6-2a12.16,12.16,0,0,1-6-2.1c-3.1-2.1-4.2-2.3-6.3-1.4a5.85,5.85,0,0,0-2.9,2.9c-.8,2-.3,5,2,11.6C341.4,41,342.1,41.9,343.5,42.4Z" transform="translate(-47.08 -22.79)"/>
      <path class="cls-1" d="M352.8,50.6c1.8.8,3.9-.4,4.9-2.8s.7-6-.8-7.7a4,4,0,0,0-3.2-1c-3.4.8-4.9,7.4-2.3,10.4A3.38,3.38,0,0,0,352.8,50.6Z" transform="translate(-47.08 -22.79)"/>
    </g>
  </g>
  <g id="footprint2" class="footprint">
    <g>
      <path class="cls-1" d="M192.8,158.9c3.8,0,6.8-6.4,4.6-9.9-1.6-2.5-5.3-1.2-7,2.3C188.7,155.1,189.9,158.8,192.8,158.9Z" transform="translate(-47.08 -22.79)"/>
      <path class="cls-1" d="M187.2,150.5c1.7.2,4.1-1.9,5.1-4.5s.8-5.8-.6-7a2.29,2.29,0,0,0-2.9-.5c-3,1.2-5.3,6.8-4,10A4.58,4.58,0,0,0,187.2,150.5Z" transform="translate(-47.08 -22.79)"/>
      <path class="cls-1" d="M201.8,160.8a3.27,3.27,0,0,0,3.2-.9c2.4-2.3,2.2-7.5-.4-9.8a2.54,2.54,0,0,0-2.2-.8c-1.2,0-1.3.1-2.2,1.1a7.34,7.34,0,0,0-.8,7.6A5.26,5.26,0,0,0,201.8,160.8Z" transform="translate(-47.08 -22.79)"/>
      <path class="cls-1" d="M199.6,148c1.8.4,2.7-.1,4.8-2.8a38.62,38.62,0,0,1,4.5-4.6l2.6-2.3.3-1.3a4.52,4.52,0,0,0-.9-4.4c-1.1-1.2-1.7-1.4-3.8-1.4a13.13,13.13,0,0,1-6.3-1.2c-3.4-1.6-4.5-1.7-6.4-.5a6.81,6.81,0,0,0-2.5,3.3c-.5,2.1.4,4.9,3.7,11.2C197.3,146.9,198,147.7,199.6,148Z" transform="translate(-47.08 -22.79)"/>
      <path class="cls-1" d="M209.9,154.8c1.9.5,3.8-1,4.4-3.5s-.2-6.1-1.9-7.5a3.84,3.84,0,0,0-3.3-.5c-3.3,1.3-3.8,8-.8,10.7C208.9,154.3,209.6,154.7,209.9,154.8Z" transform="translate(-47.08 -22.79)"/>
      <path class="cls-1" d="M241.2,141.9c3.8,0,6.8-6.4,4.6-9.9-1.6-2.5-5.3-1.2-7,2.3C237,138.1,238.2,141.9,241.2,141.9Z" transform="translate(-47.08 -22.79)"/>
      <path class="cls-1" d="M235.6,133.5c1.7.2,4.1-1.9,5.1-4.5s.8-5.8-.6-7a2.29,2.29,0,0,0-2.9-.5c-3,1.2-5.3,6.8-4,10A3.89,3.89,0,0,0,235.6,133.5Z" transform="translate(-47.08 -22.79)"/>
      <path class="cls-1" d="M250.1,143.9a3.27,3.27,0,0,0,3.2-.9c2.4-2.3,2.2-7.5-.4-9.8a2.54,2.54,0,0,0-2.2-.8c-1.2,0-1.3.1-2.2,1.1a7.34,7.34,0,0,0-.8,7.6A6.16,6.16,0,0,0,250.1,143.9Z" transform="translate(-47.08 -22.79)"/>
      <path class="cls-1" d="M247.9,131.1c1.8.4,2.7-.1,4.8-2.8a38.62,38.62,0,0,1,4.5-4.6l2.6-2.3.3-1.3a4.52,4.52,0,0,0-.9-4.4c-1.1-1.2-1.7-1.4-3.8-1.4a13.13,13.13,0,0,1-6.3-1.2c-3.4-1.6-4.5-1.7-6.4-.5a6.81,6.81,0,0,0-2.5,3.3c-.5,2.1.4,4.9,3.7,11.2C245.6,130,246.4,130.8,247.9,131.1Z" transform="translate(-47.08 -22.79)"/>
      <path class="cls-1" d="M258.2,137.8c1.9.5,3.8-1,4.4-3.5s-.2-6.1-1.9-7.5a3.84,3.84,0,0,0-3.3-.5c-3.3,1.3-3.8,8-.8,10.7A4.65,4.65,0,0,0,258.2,137.8Z" transform="translate(-47.08 -22.79)"/>
    </g>
  </g>
  <g id="footprint3" class="footprint">
    <g>
      <path class="cls-1" d="M163.6,283.9c3.7-1.1,4.7-8.1,1.7-10.8-2.2-1.9-5.5.3-6,4.2C158.5,281.4,160.7,284.7,163.6,283.9Z" transform="translate(-47.08 -22.79)"/>
      <path class="cls-1" d="M155.8,277.4c1.7-.3,3.4-3,3.6-5.8s-.8-5.8-2.6-6.6a2.19,2.19,0,0,0-2.9.4c-2.5,2-3.1,8-1.1,10.7A4,4,0,0,0,155.8,277.4Z" transform="translate(-47.08 -22.79)"/>
      <path class="cls-1" d="M172.7,283.2a3.2,3.2,0,0,0,2.8-1.7c1.7-2.8,0-7.8-3.2-9.3a2.64,2.64,0,0,0-2.3-.1c-1.1.4-1.2.5-1.8,1.7a7.5,7.5,0,0,0,1.3,7.5A5.48,5.48,0,0,0,172.7,283.2Z" transform="translate(-47.08 -22.79)"/>
      <path class="cls-1" d="M167,271.6c1.8-.2,2.5-.9,3.9-4a53,53,0,0,1,3-5.7l1.9-3v-1.3a4.39,4.39,0,0,0-2.1-4c-1.4-.9-2-.9-4.1-.3-2.7.8-4.3,1-6.3.6-3.7-.6-4.8-.3-6.3,1.3a6.21,6.21,0,0,0-1.4,3.9c.1,2.1,1.8,4.6,6.7,9.7C164.5,271.2,165.4,271.8,167,271.6Z" transform="translate(-47.08 -22.79)"/>
      <path class="cls-1" d="M178.8,275.2c1.9-.1,3.3-2,3.3-4.6s-1.9-5.8-3.9-6.7a3.85,3.85,0,0,0-3.3.4c-2.8,2.2-1.3,8.8,2.2,10.5A6.78,6.78,0,0,0,178.8,275.2Z" transform="translate(-47.08 -22.79)"/>
      <path class="cls-1" d="M205.2,254.1c3.7-1.1,4.7-8.1,1.7-10.8-2.2-1.9-5.5.3-6,4.2C200.1,251.6,202.3,254.9,205.2,254.1Z" transform="translate(-47.08 -22.79)"/>
      <path class="cls-1" d="M197.4,247.6c1.7-.3,3.4-3,3.6-5.8s-.8-5.8-2.6-6.6a2.19,2.19,0,0,0-2.9.4c-2.5,2-3.1,8-1.1,10.7A4.64,4.64,0,0,0,197.4,247.6Z" transform="translate(-47.08 -22.79)"/>
      <path class="cls-1" d="M214.3,253.4a3.2,3.2,0,0,0,2.8-1.7c1.7-2.8,0-7.8-3.2-9.3a2.64,2.64,0,0,0-2.3-.1c-1.1.4-1.2.5-1.8,1.7a7.5,7.5,0,0,0,1.3,7.5A6.06,6.06,0,0,0,214.3,253.4Z" transform="translate(-47.08 -22.79)"/>
      <path class="cls-1" d="M208.6,241.8c1.8-.2,2.5-.9,3.9-4a53,53,0,0,1,3-5.7l1.9-3v-1.3a4.39,4.39,0,0,0-2.1-4c-1.4-.9-2-.9-4.1-.3-2.7.8-4.3,1-6.3.6-3.7-.6-4.8-.3-6.3,1.3a6.21,6.21,0,0,0-1.4,3.9c.1,2.1,1.8,4.6,6.7,9.7C206.1,241.4,207.1,241.9,208.6,241.8Z" transform="translate(-47.08 -22.79)"/>
      <path class="cls-1" d="M220.4,245.4c1.9-.1,3.3-2,3.3-4.6s-1.9-5.8-3.9-6.7a3.85,3.85,0,0,0-3.3.4c-2.8,2.2-1.3,8.8,2.2,10.5A7.93,7.93,0,0,0,220.4,245.4Z" transform="translate(-47.08 -22.79)"/>
    </g>
  </g>
  <g id="footprint4" class="footprint">
    <g>
      <path class="cls-1" d="M218,403.2c2.1-3.2-1.6-9.2-5.7-9.4-2.9-.1-4,3.7-1.9,7.1C212.5,404.6,216.3,405.7,218,403.2Z" transform="translate(-47.08 -22.79)"/>
      <path class="cls-1" d="M207.9,403.2c1.1-1.3.6-4.5-.9-6.8s-4.3-3.9-6.2-3.4c-1.3.3-1.7.8-2,2.1-.7,3.1,2.8,8.1,6.1,8.9A3.13,3.13,0,0,0,207.9,403.2Z" transform="translate(-47.08 -22.79)"/>
      <path class="cls-1" d="M224.6,396.8a3.22,3.22,0,0,0,1.1-3.1c-.6-3.3-5-5.9-8.4-5a2.37,2.37,0,0,0-1.8,1.4,2.44,2.44,0,0,0-.3,2.5,7.52,7.52,0,0,0,5.8,4.9A6.64,6.64,0,0,0,224.6,396.8Z" transform="translate(-47.08 -22.79)"/>
      <path class="cls-1" d="M212.7,391.6c1.3-1.3,1.4-2.3.3-5.6a49.2,49.2,0,0,1-1.4-6.3l-.5-3.5-.9-1a4.58,4.58,0,0,0-4.2-1.7c-1.6.2-2.1.6-3.3,2.4a15,15,0,0,1-4.4,4.6c-3.2,1.9-3.9,2.8-4,5a6.21,6.21,0,0,0,1.4,3.9c1.4,1.6,4.4,2.4,11.3,3.1C210.5,392.9,211.6,392.7,212.7,391.6Z" transform="translate(-47.08 -22.79)"/>
      <path class="cls-1" d="M224.1,386.7c1.4-1.3,1.2-3.7-.4-5.6-1.8-2-5.2-3.2-7.3-2.6a3.91,3.91,0,0,0-2.3,2.4c-.7,3.5,4.6,7.6,8.4,6.6A4.77,4.77,0,0,0,224.1,386.7Z" transform="translate(-47.08 -22.79)"/>
      <path class="cls-1" d="M230.6,353.6c2.1-3.2-1.6-9.2-5.7-9.4-2.9-.1-4,3.7-1.9,7.1C225.2,354.9,229,356.1,230.6,353.6Z" transform="translate(-47.08 -22.79)"/>
      <path class="cls-1" d="M220.5,353.6c1.1-1.3.6-4.5-.9-6.8s-4.3-3.9-6.2-3.4c-1.3.3-1.7.8-2,2.1-.7,3.1,2.8,8.1,6.1,8.9A3.4,3.4,0,0,0,220.5,353.6Z" transform="translate(-47.08 -22.79)"/>
      <path class="cls-1" d="M237.2,347.2a3.22,3.22,0,0,0,1.1-3.1c-.6-3.3-5-5.9-8.4-5a2.37,2.37,0,0,0-1.8,1.4,2.44,2.44,0,0,0-.3,2.5,7.52,7.52,0,0,0,5.8,4.9A6.64,6.64,0,0,0,237.2,347.2Z" transform="translate(-47.08 -22.79)"/>
      <path class="cls-1" d="M225.3,342c1.3-1.3,1.4-2.3.3-5.6a49.2,49.2,0,0,1-1.4-6.3l-.5-3.5-.9-1a4.58,4.58,0,0,0-4.2-1.7c-1.6.2-2.1.6-3.3,2.4a15,15,0,0,1-4.4,4.6c-3.2,1.9-3.9,2.8-4,5a6.21,6.21,0,0,0,1.4,3.9c1.4,1.6,4.4,2.4,11.3,3.1C223.2,343.3,224.2,343.1,225.3,342Z" transform="translate(-47.08 -22.79)"/>
      <path class="cls-1" d="M236.7,337.1c1.4-1.3,1.2-3.7-.4-5.6-1.8-2-5.2-3.2-7.3-2.6a3.91,3.91,0,0,0-2.3,2.4c-.7,3.5,4.6,7.6,8.4,6.6A4.77,4.77,0,0,0,236.7,337.1Z" transform="translate(-47.08 -22.79)"/>
    </g>
  </g>
  <g id="computer">
    <g>
      <path class="cls-2" d="M59.48,94.56h10a5.68,5.68,0,0,0,5.89-5.48A5.45,5.45,0,0,0,74,85.43a5.84,5.84,0,0,0-5.89-4.81,4.52,4.52,0,0,0-1.41.16,6,6,0,0,0-4.56-2,5.75,5.75,0,0,0-5.9,5.56v.25a5.39,5.39,0,0,0-2.57,4.57C53.59,92.07,56.24,94.56,59.48,94.56Zm-1.33-8A1.24,1.24,0,0,0,59,84.93a1.87,1.87,0,0,1-.08-.66A2.91,2.91,0,0,1,62,81.53a3.05,3.05,0,0,1,2.82,1.58,1.45,1.45,0,0,0,1.83.58A2.66,2.66,0,0,1,68,83.44a2.94,2.94,0,0,1,3.07,2.65,1.63,1.63,0,0,0,.5,1A2.63,2.63,0,0,1,72.51,89a2.91,2.91,0,0,1-3.07,2.74h-10A2.91,2.91,0,0,1,56.41,89,2.54,2.54,0,0,1,58.15,86.59Z" transform="translate(-47.08 -22.79)"/>
      <path class="cls-2" d="M81.3,97.55V75.64a2.76,2.76,0,0,0-2.73-2.74H50.35a2.76,2.76,0,0,0-2.74,2.74v22a2.77,2.77,0,0,0,2.74,2.74H57.9A7.14,7.14,0,0,0,56,105.26a1.4,1.4,0,0,0,1.41,1.41H71.68A1.38,1.38,0,0,0,73,105.26a7.53,7.53,0,0,0-1.91-4.89h7.72A2.63,2.63,0,0,0,81.3,97.55Zm-11.45,6.39H59.06a5.65,5.65,0,0,1,5.4-3.49h0A5.35,5.35,0,0,1,69.85,103.94Zm8.72-6.39H50.35V75.72H78.57V97.55Z" transform="translate(-47.08 -22.79)"/>
    </g>
  </g>
  <g id="food">
    <path class="cls-2" d="M439.26,209a3.64,3.64,0,0,1-2.49,2.32,3.84,3.84,0,0,1-2.73-.25,1.13,1.13,0,0,0-1.25.09,1.12,1.12,0,0,0-.5,1.16v.49a3.94,3.94,0,0,1-1,2.66,3.55,3.55,0,0,1-3.07,1.08,1.14,1.14,0,0,0-1.17.58,1.16,1.16,0,0,0,0,1.24,3.92,3.92,0,0,1,.42,2.74,3.66,3.66,0,0,1-2.24,2.58,1.29,1.29,0,0,0-.75,1.49,13.52,13.52,0,0,0,22.74,5.64A13.36,13.36,0,0,0,451,221.2h0a13.44,13.44,0,0,0-4.14-9.46,13.68,13.68,0,0,0-6.15-3.41A1.05,1.05,0,0,0,439.26,209Zm-2.15,18.25a1.63,1.63,0,0,1,.41.83,1.25,1.25,0,0,1-.33.92,1.56,1.56,0,0,1-.83.41,1.24,1.24,0,0,1-.91-.33,1.57,1.57,0,0,1-.42-.83,1.24,1.24,0,0,1,.33-.91,1.65,1.65,0,0,1,.83-.42A1.31,1.31,0,0,1,437.11,227.25Zm5.64-3.4a1.56,1.56,0,0,1,.41.83,1.23,1.23,0,0,1-.33.91,1.57,1.57,0,0,1-.83.42,1.24,1.24,0,0,1-.91-.33,1.65,1.65,0,0,1-.42-.83,1.27,1.27,0,0,1,.34-.92,1.59,1.59,0,0,1,.83-.41A1.24,1.24,0,0,1,442.75,223.85Zm-8.3-2.32a1.65,1.65,0,0,1,.42.83,1.25,1.25,0,0,1-.34.91,1.61,1.61,0,0,1-.83.42,1.25,1.25,0,0,1-.91-.34,1.52,1.52,0,0,1-.41-.83,1.24,1.24,0,0,1,.33-.91,1.56,1.56,0,0,1,.83-.41A1.32,1.32,0,0,1,434.45,221.53ZM445.07,218a1.65,1.65,0,0,1,.42.83,1.31,1.31,0,0,1-.33.92,1.63,1.63,0,0,1-.83.41,1.25,1.25,0,0,1-.92-.33A1.56,1.56,0,0,1,443,219a1.23,1.23,0,0,1,.33-.91,1.57,1.57,0,0,1,.83-.42A1.79,1.79,0,0,1,445.07,218Zm-5.72.17a1.56,1.56,0,0,1,.41.83,1.24,1.24,0,0,1-.33.91,1.65,1.65,0,0,1-.83.42,1.25,1.25,0,0,1-.91-.34,1.5,1.5,0,0,1-.42-.83,1.24,1.24,0,0,1,.33-.91,1.56,1.56,0,0,1,.83-.41A1.25,1.25,0,0,1,439.35,218.21Z" transform="translate(-47.08 -22.79)"/>
    <path class="cls-2" d="M422.42,214.31a1.55,1.55,0,0,0-1-.42,1.5,1.5,0,0,0-1,.42,1.39,1.39,0,0,0,0,2,1.5,1.5,0,0,0,1,.42,1.55,1.55,0,0,0,1-.42,1.41,1.41,0,0,0,0-2Z" transform="translate(-47.08 -22.79)"/>
    <path class="cls-2" d="M426.15,203.6a1.41,1.41,0,0,0-2,0,1.42,1.42,0,0,0,0,2,1.41,1.41,0,0,0,2,0,1.55,1.55,0,0,0,.42-1A1.38,1.38,0,0,0,426.15,203.6Z" transform="translate(-47.08 -22.79)"/>
    <path class="cls-2" d="M452,186.43h16.6l-1.66,17.42H453.62Zm9.21-2.49.42-2.91,2.49-2.32-1.17-1.25-2.9,2.66-.58,3.73h-8.38v1.66H469.3v-1.66h-8.13Z" transform="translate(-47.08 -22.79)"/>
  </g>
  <g id="databaseGameboy">
    <g id="Layer_1" data-name="Layer 1">
      <g>
        <path class="cls-2" d="M81.61,334.21c-6.08,0-11,1.78-11,4v3.32c0,2.19,5,4,11,4s11-1.79,11-4v-3.32C92.64,336,87.69,334.21,81.61,334.21Z" transform="translate(-47.08 -22.79)"/>
        <path class="cls-2" d="M81.61,347.42c-5.76,0-10.54-1.62-11-3.73v5.44c0,2.19,5,4,11,4s11-1.78,11-4v-5.44C92.15,345.8,87.45,347.42,81.61,347.42Z" transform="translate(-47.08 -22.79)"/>
        <path class="cls-2" d="M92.56,351.48c-.41,2.11-5.19,3.73-11,3.73s-10.54-1.62-11-3.73v5.43c0,2.19,5,4,11,4s11-1.78,11-4Z" transform="translate(-47.08 -22.79)"/>
      </g>
    </g>
    <path class="cls-2" d="M62.88,366.88,48,371.75a1.41,1.41,0,0,0-.89,1.78l6.08,18.73a1.42,1.42,0,0,0,1.78.9l14.84-4.87a1.41,1.41,0,0,0,.89-1.78l-6.08-18.73A1.42,1.42,0,0,0,62.88,366.88ZM49.66,373.7,63,369.32,66,378.24l-13.38,4.37ZM60,387.8l-1.54.49.49,1.54-1.79.57-.48-1.54-1.55.49-.56-1.79,1.54-.49-.49-1.54,1.79-.56.48,1.54,1.54-.49Zm3.57-.81a1.36,1.36,0,1,1,.89-1.7A1.34,1.34,0,0,1,63.53,387Zm3.73-1.21a1.36,1.36,0,1,1-.81-2.6,1.33,1.33,0,0,1,1.7.89A1.41,1.41,0,0,1,67.26,385.78Z" transform="translate(-47.08 -22.79)"/>
    <path class="cls-2" d="M380.92,566.78a1.11,1.11,0,0,0-1.13,1.14v2.35a1.14,1.14,0,0,0,2.27,0v-2.35A1.11,1.11,0,0,0,380.92,566.78Z" transform="translate(-47.08 -22.79)"/>
    <path class="cls-3" d="M389.11,588.92a7,7,0,0,0,6.9-5.84h.08a4.62,4.62,0,1,0,0-9.24V572.7h-21V582a7,7,0,0,0,7,7h7.05ZM377.44,575v7a4.62,4.62,0,0,0,4.62,4.62h7a4.62,4.62,0,0,0,4.62-4.62v-7Zm21,3.49a2.35,2.35,0,0,1-2.35,2.35v-4.62A2.24,2.24,0,0,1,398.44,578.46Z" transform="translate(-47.08 -22.79)"/>
    <path class="cls-2" d="M384.41,568a1.14,1.14,0,1,1,2.27,0v2.35a1.14,1.14,0,1,1-2.27,0Z" transform="translate(-47.08 -22.79)"/>
    <path class="cls-2" d="M390.25,566.78a1.11,1.11,0,0,0-1.14,1.14v2.35a1.14,1.14,0,0,0,2.27,0v-2.35A1.1,1.1,0,0,0,390.25,566.78Z" transform="translate(-47.08 -22.79)"/>
  </g>
  <g id="sword">
    <g>
      <path class="cls-2" d="M480.09,420.11l-2.07.5-.09-.25a.52.52,0,0,0-.33-.41,1,1,0,0,0-.5-.09l-12.28,3.49-12.61,2.07c-.17,0-.33.17-.42.25a.57.57,0,0,0-.08.5l.08.25-2.07.5a.64.64,0,0,0-.5.74l4.48,20.17a.66.66,0,0,0,.75.5l30.46-6.72a.64.64,0,0,0,.49-.75l-4.48-20.17A.77.77,0,0,0,480.09,420.11Zm-14.35,4.32,11.12-3.16,3.81,17.35-11.12,3.15Zm-12.62,2.15,11.37-1.82,3.82,17.34-11.37,1.83Zm30.79,13.86-29.13,6.48L450.63,428l1.5-.34,3.81,17.1a.66.66,0,0,0,.75.5l12.7-2.08h0l12.36-3.48a.61.61,0,0,0,.42-.75l-3.82-17.1,1.49-.33Z" transform="translate(-47.08 -22.79)"/>
      <path class="cls-2" d="M463.16,426.67l-4.48.74a.64.64,0,1,0,.25,1.25l4.48-.75h0a.64.64,0,0,0,.5-.74A.63.63,0,0,0,463.16,426.67Z" transform="translate(-47.08 -22.79)"/>
      <path class="cls-2" d="M455.61,429.16l1.08-.17h0a.65.65,0,0,0,.5-.75.64.64,0,0,0-.75-.49l-1.08.16a.64.64,0,1,0,.25,1.25Z" transform="translate(-47.08 -22.79)"/>
      <path class="cls-2" d="M463.83,429.57l-7.72,1.25a.63.63,0,1,0,.25,1.24l7.72-1.24h0a.64.64,0,0,0-.25-1.25Z" transform="translate(-47.08 -22.79)"/>
      <path class="cls-2" d="M464.41,432.48l-7.72,1.24a.64.64,0,0,0,.25,1.25l7.72-1.25h0a.63.63,0,0,0,.49-.75C465.15,432.64,464.82,432.48,464.41,432.48Z" transform="translate(-47.08 -22.79)"/>
      <path class="cls-2" d="M465.07,435.38l-7.72,1.25a.63.63,0,0,0-.49.74.64.64,0,0,0,.74.5l7.72-1.24h0a.66.66,0,0,0,.5-.75A.73.73,0,0,0,465.07,435.38Z" transform="translate(-47.08 -22.79)"/>
      <path class="cls-2" d="M477.35,432.23l-4.64,1.33a.64.64,0,0,0,.33,1.24h0l4.65-1.33a.64.64,0,0,0-.34-1.24Z" transform="translate(-47.08 -22.79)"/>
      <path class="cls-2" d="M470.88,434.05l-1,.25a.59.59,0,0,0-.42.83.6.6,0,0,0,.75.42h0l1-.25a.6.6,0,0,0,.42-.83A.61.61,0,0,0,470.88,434.05Z" transform="translate(-47.08 -22.79)"/>
      <path class="cls-2" d="M476.69,429.32l-7.47,2.16a.65.65,0,0,0,.33,1.25h0l7.47-2.16a.6.6,0,0,0,.42-.83C477.44,429.41,477,429.24,476.69,429.32Z" transform="translate(-47.08 -22.79)"/>
      <path class="cls-2" d="M476,426.34l-7.47,2.15a.65.65,0,0,0,.33,1.25h0l7.47-2.16a.59.59,0,0,0,.41-.83C476.77,426.5,476.36,426.25,476,426.34Z" transform="translate(-47.08 -22.79)"/>
      <path class="cls-2" d="M475.45,423.43,468,425.59a.64.64,0,0,0,.33,1.24h0l7.47-2.15a.59.59,0,0,0,.41-.83A.66.66,0,0,0,475.45,423.43Z" transform="translate(-47.08 -22.79)"/>
    </g>
    <path class="cls-2" d="M456.28,395.13l-.17-.33-.33-.16c-.17,0-3.74-1.17-6.31,1.32l-10,9.88c-1.33-.91-2.57-1.83-2.66-1.5l-.58.42c-.33.33,1.33,2.57,2.66,4.07l-3.74,5.06a1.25,1.25,0,0,0-1.66,0l-.41.41a1.25,1.25,0,0,0,0,1.66l1.49,1.5a1.27,1.27,0,0,0,1.66,0l.42-.42a1.27,1.27,0,0,0,0-1.66h0l5.23-3.73c1.49,1.33,3.73,3,4.06,2.65l.58-.58c.17-.16-.58-1.49-1.66-2.65l10-10C457.52,398.87,456.28,395.3,456.28,395.13Zm-12.12,14.94L443,408.91l9.29-10.29-10.37,9.21-1.08-1.08,9.71-9.71a4.91,4.91,0,0,1,4.31-1.08,4.28,4.28,0,0,1-1.07,4.15Z" transform="translate(-47.08 -22.79)"/>
  </g>
  <g id="footprint5" class="footprint">
    <g>
      <path class="cls-1" d="M302.9,466.9c2.5-2.9-.5-9.4-4.6-10-2.9-.4-4.4,3.3-2.7,6.8C297.3,467.6,300.9,469.2,302.9,466.9Z" transform="translate(-47.08 -22.79)"/>
      <path class="cls-1" d="M292.8,465.8c1.2-1.1,1.2-4.4-.1-6.8-1.3-2.6-3.9-4.3-5.7-4.1a2.25,2.25,0,0,0-2.2,1.9c-1,3,1.8,8.4,5,9.5A3.75,3.75,0,0,0,292.8,465.8Z" transform="translate(-47.08 -22.79)"/>
      <path class="cls-1" d="M310.2,461.3a3.06,3.06,0,0,0,1.4-3c-.2-3.3-4.3-6.5-7.8-6a2.31,2.31,0,0,0-2,1.2c-.8.9-.8,1.1-.6,2.4a7.4,7.4,0,0,0,5.2,5.5A5.4,5.4,0,0,0,310.2,461.3Z" transform="translate(-47.08 -22.79)"/>
      <path class="cls-1" d="M299,454.8c1.5-1.2,1.6-2.1,1-5.5a31,31,0,0,1-.6-6.4l-.1-3.5-.8-1.1a4.71,4.71,0,0,0-3.9-2.2c-1.6,0-2.2.3-3.6,2a13.31,13.31,0,0,1-4.9,4c-3.4,1.5-4.2,2.3-4.5,4.5a6.11,6.11,0,0,0,.9,4c1.2,1.7,4,2.9,10.9,4.4C296.7,455.8,297.8,455.8,299,454.8Z" transform="translate(-47.08 -22.79)"/>
      <path class="cls-1" d="M310.8,451.3c1.6-1.1,1.7-3.5.2-5.6s-4.8-3.8-7-3.4a3.75,3.75,0,0,0-2.5,2.1c-1.1,3.4,3.7,8,7.6,7.5A8,8,0,0,0,310.8,451.3Z" transform="translate(-47.08 -22.79)"/>
      <path class="cls-1" d="M321.2,419.1c2.5-2.9-.5-9.4-4.6-10-2.9-.4-4.4,3.3-2.7,6.8C315.6,419.8,319.2,421.4,321.2,419.1Z" transform="translate(-47.08 -22.79)"/>
      <path class="cls-1" d="M311.1,417.9c1.2-1.1,1.2-4.4-.1-6.8-1.3-2.6-3.9-4.3-5.7-4.1a2.25,2.25,0,0,0-2.2,1.9c-1,3,1.8,8.4,5,9.5A3.4,3.4,0,0,0,311.1,417.9Z" transform="translate(-47.08 -22.79)"/>
      <path class="cls-1" d="M328.5,413.5a3.06,3.06,0,0,0,1.4-3c-.2-3.3-4.3-6.5-7.8-6a2.31,2.31,0,0,0-2,1.2c-.8.9-.8,1.1-.6,2.4a7.4,7.4,0,0,0,5.2,5.5A6,6,0,0,0,328.5,413.5Z" transform="translate(-47.08 -22.79)"/>
      <path class="cls-1" d="M317.3,407c1.5-1.2,1.6-2.1,1-5.5a31,31,0,0,1-.6-6.4l-.1-3.5-.8-1.1a4.71,4.71,0,0,0-3.9-2.2c-1.6,0-2.2.3-3.6,2a13.31,13.31,0,0,1-4.9,4c-3.4,1.5-4.2,2.3-4.5,4.5a6.11,6.11,0,0,0,.9,4c1.2,1.7,4,2.9,10.9,4.4C314.9,408,316.1,407.9,317.3,407Z" transform="translate(-47.08 -22.79)"/>
      <path class="cls-1" d="M329.1,403.4c1.6-1.1,1.7-3.5.2-5.6s-4.8-3.8-7-3.4a3.75,3.75,0,0,0-2.5,2.1c-1.1,3.4,3.7,8,7.6,7.5A3.37,3.37,0,0,0,329.1,403.4Z" transform="translate(-47.08 -22.79)"/>
    </g>
  </g>
  <g id="footprint6" class="footprint">
    <g>
      <path class="cls-1" d="M222.6,554.1c3.8.7,7.9-5.1,6.3-9-1.1-2.7-5-2.2-7.3,1C219.2,549.7,219.7,553.6,222.6,554.1Z" transform="translate(-47.08 -22.79)"/>
      <path class="cls-1" d="M218.6,544.9c1.6.5,4.4-1.2,5.9-3.6s1.8-5.5.6-7a2.37,2.37,0,0,0-2.7-1c-3.1.6-6.4,5.8-5.7,9.1A3.34,3.34,0,0,0,218.6,544.9Z" transform="translate(-47.08 -22.79)"/>
      <path class="cls-1" d="M231.1,557.6a3.3,3.3,0,0,0,3.3-.3c2.8-1.8,3.5-7,1.3-9.7a2.19,2.19,0,0,0-2-1.1c-1.2-.2-1.3-.1-2.4.7-1.9,1.5-2.8,4.6-2.2,7.3A5.6,5.6,0,0,0,231.1,557.6Z" transform="translate(-47.08 -22.79)"/>
      <path class="cls-1" d="M231.1,544.7c1.7.7,2.7.4,5.3-1.9a40.49,40.49,0,0,1,5.3-3.8l3-1.8.5-1.2a4.49,4.49,0,0,0-.1-4.5c-.9-1.4-1.4-1.7-3.5-2.1a13.23,13.23,0,0,1-6-2.3c-3-2.1-4.1-2.4-6.2-1.6a6.27,6.27,0,0,0-3,2.8c-.9,2-.5,4.9,1.6,11.6C229.1,543.2,229.7,544.1,231.1,544.7Z" transform="translate(-47.08 -22.79)"/>
      <path class="cls-1" d="M240.1,553.1c1.8.8,3.9-.3,5-2.6s.9-6-.5-7.8a4,4,0,0,0-3.1-1.1c-3.5.7-5.1,7.2-2.7,10.4A4,4,0,0,0,240.1,553.1Z" transform="translate(-47.08 -22.79)"/>
      <path class="cls-1" d="M273.2,546c3.8.7,7.9-5.1,6.3-9-1.1-2.7-5-2.2-7.3,1C269.8,541.5,270.2,545.4,273.2,546Z" transform="translate(-47.08 -22.79)"/>
      <path class="cls-1" d="M269.1,536.7c1.6.5,4.4-1.2,5.9-3.6s1.8-5.5.6-7a2.37,2.37,0,0,0-2.7-1c-3.1.6-6.4,5.8-5.7,9.1A3.39,3.39,0,0,0,269.1,536.7Z" transform="translate(-47.08 -22.79)"/>
      <path class="cls-1" d="M281.6,549.5a3.3,3.3,0,0,0,3.3-.3c2.8-1.8,3.5-7,1.3-9.7a2.19,2.19,0,0,0-2-1.1c-1.2-.2-1.3-.1-2.4.7-1.9,1.5-2.8,4.6-2.2,7.3A6.44,6.44,0,0,0,281.6,549.5Z" transform="translate(-47.08 -22.79)"/>
      <path class="cls-1" d="M281.7,536.5c1.7.7,2.7.4,5.3-1.9a40.49,40.49,0,0,1,5.3-3.8l3-1.8.5-1.2a4.49,4.49,0,0,0-.1-4.5c-.9-1.4-1.4-1.7-3.5-2.1a13.23,13.23,0,0,1-6-2.3c-3-2.1-4.1-2.4-6.2-1.6a6.27,6.27,0,0,0-3,2.8c-.9,2-.5,4.9,1.6,11.6C279.6,535,280.2,536,281.7,536.5Z" transform="translate(-47.08 -22.79)"/>
      <path class="cls-1" d="M290.7,545c1.8.8,3.9-.3,5-2.6s.9-6-.5-7.8a4,4,0,0,0-3.1-1.1c-3.5.7-5.1,7.2-2.7,10.4A3.34,3.34,0,0,0,290.7,545Z" transform="translate(-47.08 -22.79)"/>
    </g>
  </g>
  <g id="footprint7" class="footprint">
    <g>
      <path class="cls-1" d="M198,650.1c3.8-.4,6.2-7,3.7-10.3-1.8-2.3-5.4-.8-6.7,2.9C193.5,646.7,195,650.3,198,650.1Z" transform="translate(-47.08 -22.79)"/>
      <path class="cls-1" d="M191.6,642.2c1.7,0,3.9-2.3,4.7-5s.3-5.8-1.2-6.9a2.27,2.27,0,0,0-2.9-.2c-2.9,1.4-4.6,7.2-3.1,10.3A3.45,3.45,0,0,0,191.6,642.2Z" transform="translate(-47.08 -22.79)"/>
      <path class="cls-1" d="M207.1,651.2a3.38,3.38,0,0,0,3.1-1.1c2.2-2.5,1.5-7.6-1.3-9.7a2.44,2.44,0,0,0-2.2-.6c-1.2.1-1.3.2-2.1,1.3a7.6,7.6,0,0,0-.2,7.6A5,5,0,0,0,207.1,651.2Z" transform="translate(-47.08 -22.79)"/>
      <path class="cls-1" d="M203.7,638.7c1.8.2,2.7-.4,4.6-3.2a34.77,34.77,0,0,1,4.1-5l2.4-2.6.2-1.3a4.87,4.87,0,0,0-1.2-4.3c-1.2-1.1-1.8-1.3-4-1.1a12.45,12.45,0,0,1-6.3-.6c-3.5-1.3-4.6-1.3-6.4.1a5.86,5.86,0,0,0-2.1,3.5c-.3,2.1.9,4.9,4.6,10.8C201.3,637.8,202.2,638.6,203.7,638.7Z" transform="translate(-47.08 -22.79)"/>
      <path class="cls-1" d="M214.6,644.5c1.9.3,3.7-1.3,4.1-3.9s-.8-6-2.6-7.3a3.52,3.52,0,0,0-3.3-.2c-3.2,1.6-3,8.3.2,10.7A4.34,4.34,0,0,0,214.6,644.5Z" transform="translate(-47.08 -22.79)"/>
      <path class="cls-1" d="M244.6,628.9c3.8-.4,6.2-7,3.7-10.3-1.8-2.3-5.4-.8-6.7,2.9C240.1,625.5,241.6,629.1,244.6,628.9Z" transform="translate(-47.08 -22.79)"/>
      <path class="cls-1" d="M238.2,621c1.7,0,3.9-2.3,4.7-5s.3-5.8-1.2-6.9a2.27,2.27,0,0,0-2.9-.2c-2.9,1.4-4.6,7.2-3.1,10.3A3.65,3.65,0,0,0,238.2,621Z" transform="translate(-47.08 -22.79)"/>
      <path class="cls-1" d="M253.7,630a3.38,3.38,0,0,0,3.1-1.1c2.2-2.5,1.5-7.6-1.3-9.7a2.44,2.44,0,0,0-2.2-.6c-1.2.1-1.3.2-2.1,1.3a7.6,7.6,0,0,0-.2,7.6A5,5,0,0,0,253.7,630Z" transform="translate(-47.08 -22.79)"/>
      <path class="cls-1" d="M250.3,617.5c1.8.2,2.7-.4,4.6-3.2a34.77,34.77,0,0,1,4.1-5l2.4-2.6.2-1.3a4.87,4.87,0,0,0-1.2-4.3c-1.2-1.1-1.8-1.3-4-1.1a12.45,12.45,0,0,1-6.3-.6c-3.5-1.3-4.6-1.3-6.4.1a5.86,5.86,0,0,0-2.1,3.5c-.3,2.1.9,4.9,4.6,10.8C247.9,616.6,248.8,617.4,250.3,617.5Z" transform="translate(-47.08 -22.79)"/>
      <path class="cls-1" d="M261.2,623.3c1.9.3,3.7-1.3,4.1-3.9s-.8-6-2.6-7.3a3.52,3.52,0,0,0-3.3-.2c-3.2,1.6-3,8.3.2,10.7A5.17,5.17,0,0,0,261.2,623.3Z" transform="translate(-47.08 -22.79)"/>
    </g>
  </g>
</svg>
