<?xml version="1.0" encoding="utf-8"?>
<svg version="1.1" id="Calque_1" xmlns="http://www.w3.org/2000/svg" xmlns:xlink="http://www.w3.org/1999/xlink" x="0px" y="0px"
	 viewBox="0 0 360 800" style="enable-background:new 0 0 360 800;" xml:space="preserve">
<style type="text/css">
	.st0{fill:#3F3F3E;}
	.st1{fill:#F2C54A;}
	.st2{fill:#4AEDF3;}
	.st3{fill:#8FD870;}
	.st4{fill:#F27849;}
	.st5{fill:#49E8EE;}
	.st6{fill:#EE7749;}
	.st7{fill:#8CD16E;}
	.st8{fill:#403F3E;}
	.st9{fill:#1A1714;}
	.st10{fill:#1E1915;}
	.st11{fill:#181614;}
	.st12{fill:#211C1D;}
	.st13{fill:#161B16;}
	.st14{fill:#D68398;}
	.st15{fill:#241E1F;}
	.st16{fill:#D08094;}
</style>
<g>
	<path class="st0" d="M309.1,512.9c-85.1,0-170.2,0-255.4,0c-0.3-0.2-0.6-0.5-0.8-0.7c-7.4-6.3-13.3-13.7-16.6-22.9
		c-0.3-0.9-0.7-1.7-1.1-2.5c0-127.5,0-255,0-382.6c0.3-0.1,0.6-0.2,0.8-0.3c6.1-3.8,12.5-6.9,19.2-9.5c15.4-6,31.4-9.4,47.9-10.8
		c16.8-1.5,33.5-1,50.2,1.7c1.1,0.2,2,0,3-0.4c1.9-0.8,3.9-1.6,5.9-2.3c17.5-6.3,35.7-9.3,54.2-10.1c0.4,0,0.9-0.2,1.3-0.2
		c0.6,0,1.3,0,1.9,0c0.2,0.1,0.3,0.2,0.5,0.2c3.4,0,6.8,0,10.2,0c12.9,0.4,25.6,1.8,38.1,4.9c7.1,1.8,14,4.1,21,6.2
		c-0.2,0.5-0.3,1-0.5,1.5c-0.4,0.9-0.8,1.8-1.3,2.7c0.1,0.1,0.2,0.2,0.3,0.3c3.7-4.4,8.4-7.1,14.2-7.6c5.8-0.4,10.9,1.4,15.1,5.4
		c-8.6,14.9-10,30.2-3.9,46.2c0.1,0.3,0.1,0.8,0,1.1c-1.7,4-3.3,7.9-5.1,11.9c-3.2,7.3-4.3,15.2-6.1,22.9c-0.5,2.3-1.1,4.8,0.1,7.2
		c0.1,0.2,0.1,0.4,0.1,0.6c-0.6,1.9-0.1,3.9,0,5.8c0,0.9,0.2,1.9,0.3,2.8c0.1,2.2,0.2,4.4,0.3,6.5c0,0.7-0.2,1.4-0.1,2
		c0.5,2.5,1,5,1.6,7.5c0.8,3.1,0.3,6.2-1.2,8.8c-4.1,7.4-6.6,15.2-6.8,23.7c-0.1,4.1,0.3,8.3,0.4,12.4c0.2,7.8,2,15.1,5.5,22
		c0.3,0.5,0.4,1.3,0.3,1.9c-2.2,10.6-1.2,20.9,3,30.9c0.2,0.5,0.1,1.2-0.1,1.6c-1.2,2.9-2.5,5.7-3.7,8.6c-0.6,1.4-0.9,3-1.6,4.4
		c-2.1,4.7-3.5,9.6-4.1,14.7c-0.2,2.1-0.2,4.2-0.6,6.3c-1.6,8.4-1.3,16.7,1.3,24.9c0.9,2.8,2.1,5.5,3.1,8.3c1.2,3.1,2.4,6.2,3.6,9.3
		c0.1,0.3,0.3,0.7,0.4,1c0.7,4.2,1.2,8.4,2.1,12.5c1.3,6.1,2.8,12.1,4.2,18.2c0.3,1.4,0.4,2.6-0.5,3.9c-4.1,6.1-6.8,12.7-7.9,20
		c-0.4,2.3-0.4,4.7-0.8,7c-2.7,13.4-0.7,26,6.4,37.8c0.3,0.5,0.4,1.1,0.5,1.7c0.2,2.7,0.5,5.4,0.6,8.1c0,0.6,0,1.2-0.1,1.8
		c-0.7,3.9-1.2,7.8-0.9,11.8C307.9,505.6,308.6,509.2,309.1,512.9z M103.4,264.1c0.3,0,0.7,0,0.8,0.1c0.7,1.2,1.7,1.1,2.8,0.9
		c1-0.2,1.5,0.1,1.5,1.3c0.2,7.4,5.1,13.3,12.2,14.8c0.7,0.2,1.4,0.3,2.1,0.4c-0.3,1.2-0.8,2.3-0.9,3.4c-0.4,3.9-0.7,7.9-1.1,11.8
		c-0.4,3.7,1,5.5,4.8,5.6c1.7,0.1,3.4,0,5.1,0c0.7,2.8,2,5.4,5.2,5.9c4.6,0.8,7.8-1.2,9.9-5.2c3.6,0.2,7.2,0.4,10.9,0.5
		c0.1,0.3,0.3,0.7,0.4,1.1c1.1,3.7,4.2,5.5,8,4.6c2.9-0.6,4.8-2.5,6.1-5.1c0.2-0.3,0.5-0.8,0.8-0.8c1.9-0.1,3.9,0,5.9,0
		c0.1,0.4,0.2,0.8,0.3,1.1c0.8,3.4,3.5,5.7,7,5.6c1.9-0.1,3.8-0.6,5.5-1.3c1.9-0.7,4.6-4.8,4.8-6.7c0.3-3.8-3.6-7.7-7.8-7.9
		c-4.1-0.2-7,1.8-8.9,5.3c-0.4,0.8-0.9,1-1.7,0.9c-1.6,0-3.1,0-4.7,0.1c-0.8,0.1-1.1-0.2-1.5-0.9c-1.1-2.3-2.7-4.1-5.5-4.5
		c-3.7-0.6-6.8,2.2-8,4.8c-0.2,0.3-0.6,0.8-1,0.8c-3.2-0.1-6.3-0.2-9.5-0.4c-0.3,0-0.7-0.4-0.8-0.6c-0.7-3.3-3.3-4.4-6-5.2
		c-3.3-0.9-6.4,0.7-8.4,4c-0.2,0.3-0.6,0.8-0.9,0.8c-1.9,0.1-3.9,0.2-5.9,0.2c-1.3,0-1.6-0.5-1.5-1.8c0.2-2.5,0.2-5.1,0.5-7.6
		c0.3-2.6,0.3-5.3,1.7-7.8c0.5-0.9,1-1.1,1.9-1c4.3,0.3,8.6,0.5,12.9,0.7c5.2,0.2,10.5,0.4,15.7,0.4c5.4,0.1,10.8-1,16.3-0.5
		c5.6,0.5,11.3,0.3,16.9,0.6c4.1,0.2,8.3,0.5,12.4,0c8.3-0.9,14.3-8.4,13.5-17.1c-0.7-7.9-8.3-14.1-16.4-13.5
		c-1.3,0.1-2.6,0.2-3.9,0.2c-4.9-0.2-9.9-0.6-14.8-0.8c-2.2-0.1-4.5,0-6.7-0.1c-3.9-0.2-7.8-0.5-11.7,0c-1.6,0.2-3.2,0.5-4.8,0.4
		c-5.4-0.1-10.8-0.2-16.2-0.4c-4.2-0.2-8.5-0.6-12.7-0.6c-2.5,0-5.1,0-7.5,0.6c-5.6,1.2-9.3,4.7-11.2,10.1c-0.2,0.6-0.5,1.3-1.2,0.9
		c-1.5-0.9-3.1-0.4-4.7-0.4c0.2-3.5,0.2-7,0.6-10.5c1-9.2,0.9-18.4,0.6-27.7c-0.2-5.3-0.6-10.6-0.7-15.9c-0.1-4.1,0.3-8.3,0.5-12.4
		c1.4,0,2.8,0,4.2,0c0,0.1,0.1,0.3,0.1,0.5c1.6,8.1,9,14,17.4,13.3c0.5,0,1,0.1,1.6,0.1c-0.1,0.8-0.1,1.4-0.2,2
		c-0.4,4.8-0.8,9.6-1.1,14.4c-0.2,2.7,1,3.8,3.8,3.8c2.1,0,4.1,0.1,6.2,0.2c0.8,0,1.2,0.3,1.3,1.2c0.2,1.9,0.9,3.7,2.6,4.7
		c1.4,0.9,1.6,2,1.4,3.4c-0.1,0.4-0.1,0.7-0.1,1.1c-0.1,1.9-0.3,2.1-2.3,2.3c-0.1-0.2-0.2-0.4-0.3-0.6c-0.6-1.2-1.6-1.7-2.8-1.5
		c-1.1,0.2-1.9,1.1-1.9,2.3c-0.1,1.2,0.6,2.2,1.7,2.5c1.2,0.4,2.3-0.1,3.1-1.3c0.2-0.4,0.7-0.7,1.1-0.9c1.8-0.6,2-0.9,2.1-2.8
		c0-1,0-2.1,0-3.1c2.1,0.1,2.1,0.1,2.2,1.9c0.1,1,0.1,2,0.2,3c0.1,0,0.2,0,0.3,0c0-1.6,0-3.1,0-4.7c0.5-0.1,1.1-0.2,1.7-0.3
		c0.2,1.4,0.4,2.6,0.7,3.8c0.1,0.5,0.4,1,0.7,1.4c0.2,0.5,0.6,0.9,0.7,1.4c0.2,1.2,1,2,2.1,2.1c1.2,0.2,2.2-0.4,2.6-1.4
		c0.4-1,0.1-2.3-0.7-2.9c-0.8-0.7-2.1-0.7-3-0.1c-0.3,0.2-0.6,0.5-1,0.9c-0.3-0.4-0.7-0.8-0.8-1.2c-0.3-1.2-0.5-2.4-0.6-3.5
		c0-0.4,0.3-1,0.6-1.2c1.8-1.2,2.9-2.7,3.2-4.8c0.1-0.6,0.3-0.8,0.9-0.8c2.1,0.2,4.2,0.3,6.3,0.4c0.7,0,1,0.3,1.2,1
		c0.3,2.2,1.2,4.1,3.2,5.4c0.9,0.6,1.9,1,2.9,1.4c0,1.9,0,3.9,0,5.8c1.1-1.8,0.3-3.8,0.8-5.6c0.8,0,1.5,0,2.2,0c0,0.8-0.1,1.6,0,2.4
		c0.1,0.5,0.2,1.2,0.6,1.5c0.6,0.5,0.6,1,0.6,1.7c-0.1,1.2,0.6,2.2,1.6,2.5c1.1,0.3,2.3-0.1,2.9-1c0.6-0.9,0.5-2.2-0.2-3
		c-0.7-0.9-2-1.1-3-0.6c-1.2,0.6-1.9,0.2-2-1.2c0-0.6-0.1-1.1,0-1.7c0.1-0.3,0.4-0.7,0.6-0.9c1.1-0.9,2.2-1.8,3.3-2.7
		c0.3-0.2,0.5-0.6,0.9-0.7c1.6-0.7,2.6-1.9,3-3.6c0.1-0.2,0.3-0.6,0.5-0.6c1.8-0.2,3.7-0.3,5.5-0.4c0.4,5.7,2.9,8,7.6,8.6
		c0,1.3,0,2.6,0,3.8c0,1.1,0.5,1.7,1.5,1.7c0.9,0.1,1.9,0,3,0c0.1,0.1,0.2,0.3,0.3,0.5c0.7,1.1,1.8,1.6,3,1.2
		c1.1-0.3,1.8-1.4,1.7-2.6c-0.1-1.1-0.9-2-2-2.2c-1.3-0.2-2.3,0.4-2.8,1.6c-0.2,0.7-0.5,0.9-1.2,0.9c-0.5,0-1,0-1.6,0
		c-1,0-1.5-0.4-1.4-1.5c0.1-0.9,0.2-1.8,0.1-2.6c0-0.8,0.4-1,1.1-1.2c1.4-0.4,2.9-0.8,4.1-1.5c2.8-1.8,4.5-4.4,4.2-7.8
		c-0.2-2.9-3-6-7-6.5c-4.5-0.5-8.6,0.7-10.1,5.5c-0.1,0.2-0.2,0.4-0.2,0.4c-1.7,0.1-3.3,0.1-4.8,0.2c-1,0.1-1.9,0.1-2.2-1.1
		c-0.1-0.4-0.5-0.8-0.9-1.1c-1.4-1.1-2.7-2.4-4.2-3.3c-1.2-0.7-2.6-1-4-1.1c-4-0.1-6.3,2.4-7.7,5.8c-0.3,0.9-0.7,1.1-1.6,1
		c-2-0.2-3.9-0.4-5.9-0.4c-1,0-1.3-0.4-1.5-1.3c-0.2-1.6-1-2.9-2.4-3.8c-4-2.9-9.2-0.2-10.5,3.6c-0.1,0.3-0.5,0.7-0.7,0.7
		c-2.5,0-5-0.1-7.5-0.3c-1.3-0.1-1.9-0.7-1.8-1.9c0.4-5.4,0.9-10.8,1.4-16.1c0-0.3,0.6-0.7,0.9-0.8c2.6-0.2,5.2-0.3,7.8-0.3
		c5.2-0.1,10.5-0.2,15.7-0.2c5.2,0,10.5,0,15.7,0c5-0.1,10.1-0.3,15.1-0.4c2.9-0.1,5.8,0.1,8.6-0.3c8-1.3,13.8-9.1,13.2-17.2
		c-0.7-8.4-7.5-15-15.8-15.1c-3.9-0.1-7.8,0-11.6,0c-3.8,0.1-7.6,0.4-11.4,0.4c-5.3,0.1-10.5,0-15.8,0c-5.8,0.1-11.6,0.2-17.4,0.3
		c-3.4,0.1-6.9,0.1-10.3,0.2c-7.7,0.2-14.4,6.4-15.4,14c-0.1,1.1-0.1,2.5-0.7,3c-0.7,0.6-2.1,0.2-3.3,0.3c0,0-0.1,0-0.1,0
		c0-0.2,0-0.5,0-0.7c1.2,0,2.3-0.1,3.5-0.1c0-0.1,0-0.3,0-0.4c-1.1,0-2.3,0-3.4,0c0.1-3.9,0-7.8,0.2-11.6c0.2-4,0.3-8,1-11.9
		c1.1-6.2,1.2-12.4,0.9-18.6c0-0.8-0.2-1.7-0.5-2.4c-0.2-0.4-0.9-0.8-1.3-0.7c-0.4,0.1-0.9,0.7-0.9,1.1c0.1,2,0.2,4,0.4,5.9
		c0.5,3.8,0,7.6-0.5,11.3c-0.4,3-1.1,6-1.2,9c-0.3,5.2-0.2,10.5-0.3,15.7c0,0.8-0.2,1.5-0.2,2.3c-0.7-0.2-1.4-0.3-2.1-0.6
		c-1.1-0.4-1.6-1.3-1.6-2.5c0.3-4.3,0.5-8.5,0.8-12.8c0.3-4.3,0.8-8.6,1.1-12.9c0.2-2.6,0-5.2,0.1-7.8c0.1-2.6,0.2-5.2,0.3-8
		c-0.6,0.2-1.5,0.3-1.7,0.7c-0.3,0.6-0.2,1.4-0.2,2.1c0,1.8,0.1,3.7-0.1,5.5c-0.4,5.2-0.9,10.3-1.3,15.5c-0.3,3.8-0.5,7.6-0.7,11.4
		c-0.1,1.8-0.3,3.6-0.2,5.4c0,1,0.3,2.2,0.7,3.1c0.9,1.9,2.7,2.6,4.6,3c-0.1,2.9-0.2,5.7-0.3,8.6c-0.1,2.3-0.2,4.6-0.2,6.8
		c0.2,5.4,0.7,10.8,0.8,16.3c0.2,9,0.1,18.1-0.8,27.1c-0.3,2.7-0.4,5.5-0.6,8.2c-0.7-0.1-1.3-0.3-2-0.4c-1.7-0.4-2.5-1.5-2.6-3.2
		c-0.1-1.5-0.4-3.1-0.6-4.6c-0.5-4.2-1.2-8.3-1.5-12.5c-0.5-6.1-0.8-12.1-1-18.2c-0.3-7.7-0.4-15.3-0.5-23c-0.1-4.2-0.1-8.3,0-12.5
		c0.1-6.1,0.1-12.3,0.6-18.4c0.5-6.7,0.9-13.4,0.8-20.1c0-0.6-0.4-1.2-0.5-1.8c2.4,0,4.8,0,7.2-0.1c1.2,0,2.5-0.3,3.7-0.3
		c4.1-0.1,8.1-0.2,12.2-0.3c16.2-0.1,32.5-0.1,48.7-0.2c2.9,0,5.7-0.3,8.6-0.5c4.1-0.3,8.2-0.7,12.3-1c4.2-0.3,8.4-0.5,12.7-0.8
		c6.4-0.3,12.8-0.7,19.3-0.9c5-0.1,9.9,0,14.9,0.2c4,0.2,8,0.6,11.9,0.9c2.7,0.2,5.4,0.4,8,0.1c9.6-1.1,16.2-9.4,15.6-19.3
		c-0.5-9-8.5-16.4-17.8-16.5c-2.6,0-5.3-0.4-7.9-0.5c-5-0.3-10-0.7-15.1-0.8c-5.8-0.1-11.6,0.2-17.4,0.4c-4.9,0.1-9.8,0.3-14.7,0.5
		c-4.9,0.2-9.7,0.6-14.6,0.9c-2.5,0.2-5,0.4-7.5,0.5c-4.1,0.3-8.3,0.7-12.4,0.8c-5,0.1-10.1,0-15.1,0c-10.2,0-20.4,0-30.6,0
		c-3.6,0-7.3,0-10.9,0.2c-2.9,0.1-5.7,0.5-8.6,0.7c-2.9,0.2-5.6,0.9-8.1,2.4c-11.3,6.5-12.2,21.8-1.8,30.1c0,2.1-0.2,4.2-0.1,6.3
		c0.3,8.9-0.5,17.8-1.7,26.6c-0.7,5.3-1.7,10.7-2.1,16c-1,12.2-0.6,24.4,0.1,36.5c0.2,3.9,0.8,7.8,1,11.7c0.3,5.7,0.5,11.4,0.7,17.1
		c0.3,7,0.5,14,0.7,21c0.2,6.1,0.6,12.3,0.7,18.4c0.1,4.8,0.1,9.6,0.1,14.4c0,3.9,0,7.7-0.1,11.6c0,1.2,0,2.4,0,3.6
		c0.3,4.5,0.8,9,0.8,13.5c0,3.4,0.6,6.3,2.9,8.8c1.1,1.2,2.1,2,3.8,1.9c1.9,0,3.8,0,5.6-0.1c-0.2,2.6-0.5,5.2-0.5,7.8
		c0,5.6,0,11.1,0.4,16.6c0.2,2.6,0.3,5.2,0.1,7.9c-0.1,2.3-0.3,4.6-0.3,6.9c-0.1,6,0.1,12-0.1,18c-0.2,6.9-0.6,13.8-0.9,20.7
		c-0.1,1.9-0.1,3.7,0.4,5.6c0.5,1.7,0.8,3.5,1.1,5.3c0.4,2.8,1.6,4,4.4,4.2c0.7,0,1.4,0,2.2,0c0.9,4.2,3.2,7.7,6.9,10
		c3.7,2.4,7.8,2.8,12.1,2c0,0.7,0.1,1.2,0,1.6c-1,6.1-0.6,12.3-0.6,18.4c0,3.4,1.1,3.8,3.6,4.4c3.8,0.9,7.6,1.5,11.5,0.9
		c1.1-0.2,2-0.1,2.4,1.2c0.1,0.4,0.5,0.6,0.8,0.9c4.1,4,11.1,2.9,13.9-2.1c0.2-2.5,2.1-2.2,3.7-2.4c0.6,0,1.2,0,1.8-0.1
		c4.2-0.1,8.3-0.3,12.5-0.4c0.9,0,1.2,0.2,1.3,1.1c0.1,0.7,0.3,1.3,0.5,2c1,2.8,4,5.1,6.7,5c3.1,0,5.6-1.5,8-3.1
		c1-0.7,1.5-2.2,2.1-3.4c1.3-2.6,0.9-5-1.3-6.9c-0.7-0.6-1.5-1.2-2.3-1.7c-3.1-1.7-6.3-2.1-9.4,0c-1.3,0.9-2.3,2.3-3.4,3.4
		c-0.3,0.3-0.8,0.7-1.2,0.7c-5.9,0.3-11.9,0.5-17.9,0.7c-0.3,0-0.8-0.3-1-0.6c-0.9-1.2-1.7-2.6-2.7-3.6c-4.1-4-9.5-1.9-12,2
		c-0.8,1.2-1.1,2.8-1.7,4.2c-3.7,0.6-7.5,0.4-11.2-0.5c-2-0.5-2-0.5-2-2.5c0-2.8-0.1-5.6,0-8.4c0.1-3.7,0.4-7.3,0.6-10.9
		c0.5-0.1,0.7-0.2,0.9-0.2c5.1-0.6,10.2-1.2,15.4-1.7c1.6-0.2,3.2,0,4.8,0c1,0,2,0.2,3,0.2c2.8,0,5.7-0.1,8.5-0.2
		c4.5-0.1,8.9-0.2,13.4-0.3c4.1-0.2,8.2-0.5,12.3-0.7c2.2-0.1,4.5,0,6.7-0.2c8-0.9,14-8,13.5-15.8c-0.5-8.5-7.1-14.8-15.5-14.7
		c-5.3,0.1-10.6,0.4-15.9,0.6c-4.4,0.2-8.7,0.4-13,0.5c-3,0.1-6,0.5-9,0.1c-6.6-0.9-13.1,0.1-19.7,0.7c-4.3,0.4-8.6,1.1-12.9,1.4
		c-7.1,0.5-12.9,5.4-14.3,12.4c-0.2,1.2-0.3,2.5-0.5,3.7c-0.5,0-1,0-1.4,0c-1.9-0.1-2.2-0.4-2.5-2.2c-0.1-0.6-0.2-1.2-0.3-1.8
		c-0.8-3.3-1.4-6.6-1.1-10c0.5-6,0.6-12.1,0.8-18.1c0-0.5,0.1-1,0.1-1.6c0.1-5.2,0.2-10.4,0.2-15.6c0-2.8,0-5.6,0.1-8.4
		c0-2.3,0.5-4.7,0.1-6.9c-0.7-4.4-0.7-8.8-0.6-13.3c0.1-4.3,0.5-8.6,0.7-12.9c0.8,0,1.6,0,2.4,0c0.9,0,2,0.1,2-1.2
		c0-1.2-1.1-1.1-2-1.1c-0.8,0-1.5,0-2.3,0c-0.3-10,0.7-19.9,1-29.8c0.3-9.9,0.3-19.7,0.3-29.6c0-2.3-0.4-4.6-0.3-6.9
		C102.7,276.4,103.1,270.2,103.4,264.1z M163.2,386.5c0.1,0.6,0.2,1.4,0.4,2.1c0.2,0.7,0.5,1.5,1,2.2c2.4,3.4,5.6,4.2,9.8,3
		c5.3-1.6,6.9-7.5,4.9-11.4c-1.5-2.9-5.1-5.2-7.8-4.3c-2.7,0.9-5.4,2-7.1,4.6c-0.2,0.3-0.7,0.6-1,0.6c-3.3,0.1-6.5,0.3-9.8,0.3
		c-0.3,0-0.8-0.4-1-0.7c-1.4-3-3.7-4.8-7.1-4.8c-3.2,0-5.4,1.8-6.7,4.5c-0.7,1.5-1.6,1.8-2.8,1.9c-0.9,0.1-1.8,0.1-2.8,0.2
		c-1.3,0-2.6,0.1-3.8,0c-1.5-0.1-1.8-0.4-1.7-1.9c0.1-3.5,0.4-6.9,0.4-10.4c0.1-2.7,0-5.5,0-8.4c0.4,0,1,0,1.5,0
		c4.9,0.3,9.8,0.7,14.7,0.8c3.6,0.1,7.3-0.1,10.9-0.4c3.4-0.3,6.7-0.9,10.1-1.3c2.7-0.3,5.5-0.3,8.3-0.4c2-0.1,4.1-0.1,6.1-0.1
		c2.7,0,5.5,0.1,8.2,0.2c0.6,0,1.2,0,1.8,0.1c3.3,0.3,6.7,0.8,10,0.9c7.8,0.1,14.5-6.2,15.1-13.9c0.6-8.2-4.8-15.3-12.7-16.6
		c-1.8-0.3-3.7-0.2-5.6-0.4c-5.3-0.6-10.6-1.9-16.1-1.1c-4.4,0.6-9,0.4-13.5,0.6c-3.1,0.2-6.3,0.3-9.4,0.8
		c-5.4,0.8-10.7,1.5-16.2,0.7c-2.3-0.3-4.7-0.5-7-0.6c-4.4-0.1-8.8-0.1-13.2,0c-9.2,0.1-16.4,9-14.6,18.1
		c1.5,7.7,7.8,12.8,15.6,12.7c1,0,2,0,3,0c0.1,1.6,0.2,3.1,0.2,4.5c-0.1,5.1-0.3,10.2-0.5,15.3c-0.1,1.5,0.6,2.4,1.8,2.9
		c1,0.4,2.2,0.7,3.3,0.8c2.7,0,5.5-0.2,8.3-0.3c0.1,0.2,0.2,0.5,0.3,0.8c1.4,3.2,4.6,5.2,7.5,4.5c3.1-0.7,5.4-2.3,6.6-5.4
		c0.1-0.3,0.5-0.7,0.8-0.7C156.6,386.5,159.8,386.5,163.2,386.5z M162.3,247c1.4,0,2.5-1.1,2.4-2.6c0-1.4-1.1-2.4-2.5-2.4
		c-1.4,0-2.5,1.1-2.5,2.5C159.7,246,160.8,247.1,162.3,247z M144.3,247.5c1.4,0,2.5-1,2.6-2.4c0-1.4-0.9-2.5-2.3-2.5
		c-1.4-0.1-2.6,0.9-2.6,2.3C141.9,246.3,142.9,247.5,144.3,247.5z"/>
	<path class="st1" d="M101.2,351.3c-0.2,4.3-0.6,8.6-0.7,12.9c-0.1,4.4-0.1,8.9,0.6,13.3c0.4,2.2-0.1,4.6-0.1,6.9
		c-0.1,2.8-0.1,5.6-0.1,8.4c-0.1,5.2-0.1,10.4-0.2,15.6c0,0.5-0.1,1-0.1,1.6c-0.2,6-0.3,12.1-0.8,18.1c-0.3,3.5,0.3,6.7,1.1,10
		c0.1,0.6,0.2,1.2,0.3,1.8c0.3,1.8,0.6,2.1,2.5,2.2c0.4,0,0.9,0,1.4,0c0.2-1.2,0.2-2.5,0.5-3.7c1.4-7,7.2-11.9,14.3-12.4
		c4.3-0.3,8.6-1,12.9-1.4c6.5-0.6,13.1-1.6,19.7-0.7c2.9,0.4,6,0,9-0.1c4.4-0.1,8.7-0.3,13-0.5c5.3-0.2,10.6-0.5,15.9-0.6
		c8.3-0.1,14.9,6.2,15.5,14.7c0.5,7.8-5.6,14.9-13.5,15.8c-2.2,0.3-4.5,0.1-6.7,0.2c-4.1,0.2-8.2,0.5-12.3,0.7
		c-4.5,0.2-8.9,0.2-13.4,0.3c-2.8,0.1-5.7,0.2-8.5,0.2c-1,0-2-0.2-3-0.2c-1.6,0-3.2-0.1-4.8,0c-5.1,0.5-10.2,1.1-15.4,1.7
		c-0.2,0-0.5,0.1-0.9,0.2c-0.2,3.6-0.5,7.3-0.6,10.9c-0.1,2.8,0,5.6,0,8.4c0,2,0,2,2,2.5c3.7,1,7.5,1.2,11.2,0.5
		c0.6-1.4,0.9-3,1.7-4.2c2.5-3.8,7.8-6,12-2c1.1,1,1.8,2.4,2.7,3.6c0.2,0.3,0.7,0.6,1,0.6c6-0.2,11.9-0.4,17.9-0.7
		c0.4,0,0.9-0.4,1.2-0.7c1.2-1.1,2.1-2.5,3.4-3.4c3.1-2.1,6.3-1.6,9.4,0c0.8,0.4,1.6,1.1,2.3,1.7c2.2,1.9,2.6,4.3,1.3,6.9
		c-0.6,1.2-1.1,2.7-2.1,3.4c-2.4,1.6-5,3.1-8,3.1c-2.6,0-5.7-2.2-6.7-5c-0.2-0.6-0.5-1.3-0.5-2c-0.1-0.9-0.4-1.1-1.3-1.1
		c-4.2,0.2-8.3,0.3-12.5,0.4c-0.6,0-1.2,0-1.8,0.1c-1.7,0.1-3.5-0.1-3.7,2.4c-2.8,5-9.8,6-13.9,2.1c-0.3-0.3-0.6-0.6-0.8-0.9
		c-0.4-1.3-1.3-1.4-2.4-1.2c-3.9,0.6-7.7,0-11.5-0.9c-2.5-0.6-3.6-1-3.6-4.4c0-6.1-0.5-12.3,0.6-18.4c0.1-0.5,0-0.9,0-1.6
		c-4.3,0.8-8.4,0.4-12.1-2c-3.7-2.4-6-5.8-6.9-10c-0.8,0-1.5,0-2.2,0c-2.8-0.2-4.1-1.4-4.4-4.2c-0.2-1.8-0.6-3.5-1.1-5.3
		c-0.5-1.9-0.5-3.7-0.4-5.6c0.4-6.9,0.8-13.8,0.9-20.7c0.2-6,0-12,0.1-18c0-2.3,0.2-4.6,0.3-6.9c0.2-2.6,0.1-5.2-0.1-7.9
		c-0.4-5.5-0.4-11.1-0.4-16.6c0-2.6,0.3-5.2,0.5-7.8c0.1-0.8,0.1-1.6,0.2-2.3c0-0.9,0.1-1.8,0.1-2.8c0-4.2-0.1-8.4,0.1-12.6
		c0.3-6.9,1-13.8,1.2-20.7c0.2-7,0.1-14.1,0-21.1c-0.1-5.8-0.4-11.5,0.1-17.2c0.3-3.5,0.3-6.9,0.4-10.4c0-0.8,0-1.6,0-2.3
		c0.2-2.7,0.3-5.5,0.6-8.2c0.9-9,1.1-18,0.8-27.1c-0.1-5.4-0.6-10.8-0.8-16.3c-0.1-2.3,0.1-4.6,0.2-6.8c0.1-2.9,0.2-5.7,0.3-8.6
		c0.1-0.7,0.1-1.5,0.2-2.2c0.1-0.8,0.2-1.5,0.2-2.3c0.1-5.2,0-10.5,0.3-15.7c0.2-3,0.8-6,1.2-9c0.5-3.8,0.9-7.5,0.5-11.3
		c-0.3-2-0.4-4-0.4-5.9c0-0.4,0.5-1.1,0.9-1.1c0.4-0.1,1.1,0.3,1.3,0.7c0.3,0.7,0.5,1.6,0.5,2.4c0.3,6.2,0.2,12.4-0.9,18.6
		c-0.7,3.9-0.8,7.9-1,11.9c-0.2,3.9-0.2,7.7-0.2,11.6c0,0.2,0,0.3,0,0.5c0,0.2,0,0.5,0,0.7c-0.1,0.5-0.1,1.1-0.2,1.6
		c-0.2,4.2-0.5,8.3-0.5,12.4c0.1,5.3,0.5,10.6,0.7,15.9c0.3,9.2,0.4,18.5-0.6,27.7c-0.4,3.5-0.4,7-0.6,10.5c0,0.8,0,1.5,0,2.3
		c-0.3,6.2-0.7,12.4-1,18.6c-0.1,2.3,0.3,4.6,0.3,6.9c-0.1,9.9,0,19.7-0.3,29.6c-0.3,9.9-1.3,19.9-1,29.8
		C101.3,349.8,101.3,350.6,101.2,351.3z M180.1,478.3C180.1,478.3,180.1,478.3,180.1,478.3c0,0.6,0,1.3,0.2,1.9
		c0.1,0.3,0.6,0.5,0.9,0.8c0.2-0.3,0.6-0.6,0.6-1c0-0.8,0-1.7-0.2-2.5c-0.1-0.3-0.5-0.6-0.8-0.9c-0.2,0.3-0.5,0.5-0.7,0.8
		C180,477.7,180.1,478.1,180.1,478.3z M153.1,477.6c-0.1-0.1-0.2-0.1-0.3-0.2c0-0.2,0.1-0.5,0-0.7c-0.1-0.3-0.4-0.8-0.6-0.8
		c-0.3,0-0.6,0.3-0.9,0.6c-0.2,0.2-0.2,0.5-0.2,0.8c0,0.7-0.4,1.7,0.8,1.8C152.3,479,152.7,478,153.1,477.6z M185.3,478.9
		c-0.1-0.1-0.2-0.1-0.3-0.2c0-0.6,0.1-1.2,0-1.8c0-0.3-0.5-0.7-0.7-0.7c-0.3,0.1-0.7,0.4-0.8,0.7c-0.1,0.7-0.1,1.4,0.1,2
		c0.1,0.3,0.6,0.7,0.8,0.6C184.8,479.5,185,479.1,185.3,478.9z M186.7,477.6c0.3,0.7,0.5,1.3,0.8,1.8c0.1,0.1,0.8,0,0.8-0.1
		c0.1-0.6,0.2-1.2,0.1-1.8c-0.1-0.4-0.6-0.6-0.9-0.9C187.2,476.9,187,477.3,186.7,477.6z M149.9,477.2c-0.5-0.6-0.8-1.4-1.1-1.4
		c-0.9-0.1-0.8,0.8-0.8,1.4c0,0.6-0.2,1.5,0.8,1.3C149.2,478.5,149.4,477.8,149.9,477.2z M145,476.7c-0.4,0.6-0.8,1.1-0.7,1.3
		c0.2,0.4,0.6,0.7,1,1c0.3-0.3,0.8-0.6,0.7-0.9C145.9,477.7,145.4,477.4,145,476.7z"/>
	<path class="st2" d="M163.2,386.5c-3.4,0-6.6,0-9.8,0c-0.3,0-0.7,0.4-0.8,0.7c-1.2,3-3.5,4.7-6.6,5.4c-3,0.7-6.1-1.3-7.5-4.5
		c-0.1-0.3-0.2-0.6-0.3-0.8c-2.8,0.1-5.5,0.3-8.3,0.3c-1.1,0-2.3-0.3-3.3-0.8c-1.2-0.5-1.9-1.4-1.8-2.9c0.2-5.1,0.4-10.2,0.5-15.3
		c0-1.4-0.1-2.9-0.2-4.5c-1.1,0-2,0-3,0c-7.8,0.1-14.1-5-15.6-12.7c-1.8-9,5.4-17.9,14.6-18.1c4.4-0.1,8.8-0.1,13.2,0
		c2.4,0,4.7,0.2,7,0.6c5.5,0.8,10.8,0.1,16.2-0.7c3.1-0.5,6.3-0.6,9.4-0.8c4.5-0.2,9.1,0,13.5-0.6c5.5-0.8,10.7,0.6,16.1,1.1
		c1.9,0.2,3.8,0.1,5.6,0.4c8,1.3,13.4,8.4,12.7,16.6c-0.6,7.7-7.3,14-15.1,13.9c-3.3,0-6.7-0.6-10-0.9c-0.6-0.1-1.2,0-1.8-0.1
		c-2.7-0.1-5.5-0.2-8.2-0.2c-2,0-4.1,0.1-6.1,0.1c-2.8,0.1-5.5,0.1-8.3,0.4c-3.4,0.3-6.7,1-10.1,1.3c-3.6,0.3-7.3,0.5-10.9,0.4
		c-4.9-0.1-9.8-0.5-14.7-0.8c-0.5,0-1.1,0-1.5,0c0,2.9,0.1,5.6,0,8.4c-0.1,3.5-0.3,6.9-0.4,10.4c-0.1,1.5,0.2,1.8,1.7,1.9
		c1.3,0.1,2.6,0,3.8,0c0.9,0,1.8-0.1,2.8-0.2c1.3-0.1,2.2-0.4,2.8-1.9c1.2-2.7,3.5-4.5,6.7-4.5c3.4,0,5.7,1.8,7.1,4.8
		c0.2,0.3,0.7,0.7,1,0.7c3.3,0,6.6-0.2,9.8-0.3c0.4,0,0.8-0.3,1-0.6c1.6-2.6,4.3-3.7,7.1-4.6c2.8-0.9,6.3,1.3,7.8,4.3
		c2,3.9,0.4,9.8-4.9,11.4c-4.2,1.3-7.4,0.4-9.8-3c-0.4-0.6-0.7-1.4-1-2.2C163.4,387.9,163.3,387.2,163.2,386.5z M143.8,386.1
		c0-0.4,0.1-0.8,0-1c-0.2-0.4-0.5-0.7-0.7-1c-0.3,0.3-0.7,0.6-0.8,1c-0.1,0.5-0.1,1.1,0,1.6c0.1,0.4,0.5,1.1,0.9,1.1
		c0.7,0.1,0.8-0.6,0.7-1.2C143.8,386.4,143.8,386.2,143.8,386.1z M178.2,386.2c-0.1-0.8-0.1-1.3-0.3-1.7c-0.2-0.4-0.6-0.6-0.9-0.9
		c-0.2,0.4-0.5,0.7-0.6,1.1c-0.1,0.4,0,0.9,0.2,1.3c0.2,0.4,0.6,0.7,0.9,1C177.7,386.6,178,386.3,178.2,386.2z M151.4,384.3
		c-0.5-0.5-0.9-1.1-1.2-1.1c-1.1,0.1-0.8,1.1-0.9,1.8c0,0.3,0.4,0.7,0.7,1C150.4,385.4,150.8,384.9,151.4,384.3z M170.7,385.9
		c-0.5-0.8-0.9-1.3-1.3-1.9c-0.3,0.3-0.8,0.7-0.7,1c0.1,0.7-0.2,1.8,0.9,1.9C169.9,386.9,170.2,386.4,170.7,385.9z M145.5,385.5
		c0.6,0.4,1,0.9,1.4,0.9c0.2,0,0.8-0.6,0.8-0.8c-0.1-0.6,0.1-1.6-0.9-1.5C146.4,384.1,146.1,384.8,145.5,385.5z M174,383.9
		c-0.2,0-0.3,0-0.5,0c-0.2,0.4-0.6,0.8-0.6,1.2c0,0.3,0.4,0.6,0.7,0.9c0.3-0.3,0.8-0.6,0.8-0.9C174.5,384.7,174.1,384.3,174,383.9z"
		/>
	<path class="st3" d="M104.4,195.3c0.1-0.5,0.1-1.1,0.2-1.6c0,0,0.1,0,0.1,0c1.1,0,2.5,0.3,3.3-0.3c0.6-0.5,0.6-2,0.7-3
		c1-7.6,7.7-13.8,15.4-14c3.4-0.1,6.9-0.1,10.3-0.2c5.8-0.1,11.6-0.2,17.4-0.3c5.3-0.1,10.5,0,15.8,0c3.8-0.1,7.6-0.3,11.4-0.4
		c3.9-0.1,7.8-0.1,11.6,0c8.3,0.1,15.1,6.7,15.8,15.1c0.7,8.1-5.1,15.9-13.2,17.2c-2.8,0.5-5.7,0.2-8.6,0.3
		c-5,0.1-10.1,0.3-15.1,0.4c-5.2,0.1-10.5,0-15.7,0c-5.2,0-10.5,0.1-15.7,0.2c-2.6,0.1-5.2,0.2-7.8,0.3c-0.3,0-0.9,0.5-0.9,0.8
		c-0.5,5.4-1,10.7-1.4,16.1c-0.1,1.3,0.4,1.8,1.8,1.9c2.5,0.2,5,0.2,7.5,0.3c0.2,0,0.6-0.4,0.7-0.7c1.3-3.8,6.5-6.5,10.5-3.6
		c1.4,1,2.2,2.2,2.4,3.8c0.1,0.9,0.5,1.3,1.5,1.3c2,0.1,3.9,0.2,5.9,0.4c0.8,0.1,1.2-0.1,1.6-1c1.4-3.4,3.7-5.9,7.7-5.8
		c1.3,0,2.8,0.4,4,1.1c1.5,0.9,2.9,2.1,4.2,3.3c0.4,0.3,0.8,0.7,0.9,1.1c0.4,1.3,1.2,1.2,2.2,1.1c1.5-0.1,3.1-0.2,4.8-0.2
		c0,0,0.2-0.2,0.2-0.4c1.5-4.8,5.6-6,10.1-5.5c4,0.4,6.8,3.5,7,6.5c0.2,3.4-1.4,6-4.2,7.8c-1.2,0.8-2.7,1.1-4.1,1.5
		c-0.7,0.2-1.1,0.4-1.1,1.2c0,0.9,0,1.8-0.1,2.6c-0.1,1,0.3,1.5,1.4,1.5c0.5,0,1,0,1.6,0c0.6,0,1-0.2,1.2-0.9
		c0.4-1.2,1.5-1.8,2.8-1.6c1.1,0.2,1.9,1.1,2,2.2c0.1,1.2-0.6,2.3-1.7,2.6c-1.2,0.4-2.3-0.1-3-1.2c-0.1-0.2-0.2-0.4-0.3-0.5
		c-1.1,0-2,0.1-3,0c-1-0.1-1.6-0.6-1.5-1.7c0.1-1.3,0-2.5,0-3.8c-4.7-0.6-7.2-2.9-7.6-8.6c-1.8,0.1-3.7,0.2-5.5,0.4
		c-0.2,0-0.5,0.4-0.5,0.6c-0.4,1.7-1.4,2.9-3,3.6c-0.3,0.2-0.6,0.5-0.9,0.7c-1.1,0.9-2.2,1.7-3.3,2.7c-0.3,0.2-0.6,0.6-0.6,0.9
		c-0.1,0.5-0.1,1.1,0,1.7c0.1,1.4,0.8,1.8,2,1.2c1.1-0.5,2.3-0.3,3,0.6c0.7,0.8,0.8,2.1,0.2,3c-0.6,0.9-1.8,1.3-2.9,1
		c-1.1-0.3-1.7-1.3-1.6-2.5c0.1-0.7,0-1.2-0.6-1.7c-0.4-0.3-0.5-1-0.6-1.5c-0.1-0.7,0-1.5,0-2.4c-0.8,0-1.5,0-2.2,0
		c-0.5,1.8,0.3,3.8-0.8,5.6c0-1.9,0-3.9,0-5.8c-1-0.5-2-0.9-2.9-1.4c-2-1.2-2.9-3.1-3.2-5.4c-0.1-0.7-0.4-1-1.2-1
		c-2.1-0.1-4.2-0.2-6.3-0.4c-0.6-0.1-0.8,0.2-0.9,0.8c-0.3,2.1-1.4,3.7-3.2,4.8c-0.3,0.2-0.6,0.8-0.6,1.2c0.1,1.2,0.3,2.4,0.6,3.5
		c0.1,0.4,0.5,0.7,0.8,1.2c0.4-0.4,0.7-0.7,1-0.9c0.9-0.6,2.2-0.6,3,0.1c0.8,0.7,1.1,1.9,0.7,2.9c-0.4,1-1.5,1.6-2.6,1.4
		c-1.1-0.1-1.9-1-2.1-2.1c-0.1-0.5-0.4-0.9-0.7-1.4c-0.2-0.5-0.6-0.9-0.7-1.4c-0.3-1.2-0.4-2.4-0.7-3.8c-0.6,0.1-1.1,0.2-1.7,0.3
		c0,1.6,0,3.2,0,4.7c-0.1,0-0.2,0-0.3,0c-0.1-1-0.1-2-0.2-3c-0.1-1.9-0.1-1.9-2.2-1.9c0,1,0,2.1,0,3.1c-0.1,1.9-0.3,2.2-2.1,2.8
		c-0.4,0.1-0.9,0.5-1.1,0.9c-0.7,1.2-1.8,1.6-3.1,1.3c-1.1-0.3-1.7-1.3-1.7-2.5c0.1-1.2,0.8-2.1,1.9-2.3c1.2-0.2,2.3,0.3,2.8,1.5
		c0.1,0.2,0.2,0.4,0.3,0.6c2-0.2,2.2-0.4,2.3-2.3c0-0.4,0-0.7,0.1-1.1c0.2-1.4,0-2.6-1.4-3.4c-1.6-1-2.4-2.8-2.6-4.7
		c-0.1-0.9-0.5-1.2-1.3-1.2c-2.1,0-4.1-0.2-6.2-0.2c-2.8,0-4-1.1-3.8-3.8c0.3-4.8,0.7-9.6,1.1-14.4c0.1-0.6,0.1-1.3,0.2-2
		c-0.6,0-1.1-0.2-1.6-0.1c-8.5,0.7-15.9-5.2-17.4-13.3c0-0.2-0.1-0.4-0.1-0.5C107.2,195.3,105.8,195.3,104.4,195.3z M175.1,193.9
		c0.1,0.7,0,1.6,0.2,2.4c0.1,0.4,0.5,0.7,0.7,1c0.3-0.4,0.8-0.7,0.8-1.1c-0.2-1.6-0.3-3.2-0.7-4.7c-0.5-1.9-0.9-2.2-2.9-2
		c-0.4,0-0.7,0.5-1.1,0.7c0.4,0.3,0.7,0.6,1.1,0.8c0.1,0.1,0.3,0,0.5,0c0.3,0.1,0.7,0.2,0.7,0.4c0.1,0.2-0.2,0.7-0.4,0.7
		c-0.9,0.2-1.8,0.4-2.7,0.5c-0.1-0.8-0.3-1.5-0.4-2.3c0,0,0-0.1,0-0.1c0.3-2.1,1.9-3.1,3.8-2.4c0.3,0.1,0.9,0,1-0.3
		c0.1-0.2,0-0.8-0.2-1c-0.8-0.7-1.8-0.9-2.8-0.6c-2.7,0.8-4.2,4.1-3.2,6.9c0.3,0.9,0.9,1.5,1.9,1.4
		C172.5,194.4,173.7,194.1,175.1,193.9z M146.4,189.9c-0.5-0.9-0.9-1.7-1.4-2.4c-0.3-0.4-0.7-0.6-1.1-0.9c-0.3,0.4-0.7,0.8-0.8,1.2
		c-0.2,1.9-0.3,3.7-0.4,5.6c0,0.6-0.1,1.3,0.7,1.4c0.9,0,0.8-0.7,0.8-1.3c0-1.1,0-2.2,0-3.3c0.1,0,0.2,0,0.3,0
		c0.4,0.6,0.7,1.2,1.1,1.8c0.3,0.4,0.7,0.6,1.1,0.9c0.3-0.4,0.7-0.8,0.9-1.3c0.3-0.9,0.5-1.9,0.7-2.8c0.1,0,0.2,0,0.3,0
		c0.5,1,0.9,2.1,1.5,3.1c0.2,0.3,0.7,0.4,1.1,0.6c0.1-0.4,0.4-0.9,0.3-1.2c-0.7-1.6-1.5-3.2-2.3-4.7c-0.5-0.9-1.2-0.9-1.7,0
		C147.1,187.6,146.8,188.6,146.4,189.9z M126.1,189.6c1,1.2,1.8,2.3,2.7,3.3c0.3,0.4,1.1,1,1.2,0.9c0.5-0.3,1-0.9,1.2-1.5
		c0.5-1.5,0.7-3,1.1-4.5c0.1-0.6,0.3-1.3-0.5-1.5c-0.8-0.2-0.9,0.5-1.1,1.1c-0.3,1.4-0.6,2.7-0.9,4.3c-0.5-0.5-0.8-0.9-1.1-1.3
		c-0.7-0.9-1.4-1.9-2.2-2.7c-0.3-0.3-1-0.5-1.5-0.5c-0.2,0-0.6,0.6-0.6,1c-0.2,2.3-0.4,4.7-0.5,7c0,0.4,0.5,0.7,0.7,1.1
		c0.3-0.3,0.7-0.7,0.7-1C125.7,193.4,125.9,191.6,126.1,189.6z M139.2,192.5c0.1,0.3,0.3,0.9,0.4,1.5c0.1,0.6,0.3,1.2,1,1
		c0.7-0.1,0.6-0.7,0.6-1.3c-0.2-2.1-1.4-3.7-2.5-5.4c-0.4-0.6-1-1-1.6-1.4c-0.8-0.6-1.5-0.4-1.8,0.7c-0.6,1.9-1.3,3.9-2,5.8
		c-0.2,0.6-0.4,1.2,0.4,1.4c0.3,0.1,1-0.4,1.1-0.8c0.3-0.8,0.7-1,1.5-1C137.2,192.9,138.2,192.7,139.2,192.5z M163.8,192
		c-1-1.1-1.5-1.8-2.2-2.5c-0.3-0.3-0.8-0.4-1.1-0.3c-0.2,0.1-0.4,0.6-0.5,1c-0.2,1.6-0.3,3.2-0.3,4.8c0,0.4,0.4,0.9,0.6,1.3
		c0.3-0.4,0.8-0.7,0.9-1.2c0.2-1,0.2-2,0.4-3.3c0.5,0.6,0.7,1,1,1.3c0.8,1,1.2,1,2,0c1.6-1.9,1.7-4.4,2-6.7c0-0.2-0.4-0.7-0.6-0.7
		c-0.3,0-0.7,0.3-0.9,0.5c-0.2,0.2-0.1,0.6-0.2,0.9C164.5,188.7,164.2,190.2,163.8,192z M156,192.5c-0.1-0.9-0.3-1.6-0.3-2.4
		c-0.1-1.3-0.2-2.7-0.4-4c0-0.3-0.5-0.5-0.7-0.8c-0.3,0.2-0.8,0.5-0.8,0.7c0.2,2.2,0.4,4.4,0.7,6.5c0,0.2,0.6,0.6,0.9,0.6
		C155.7,193.1,155.9,192.7,156,192.5z M166.7,231.6c0.2,0.2,0.5,0.5,0.8,0.9c0.3-0.4,0.7-0.7,0.8-1.1c0.2-0.8,0.3-1.6,0.3-2.4
		c0-0.5-0.3-1.2-0.6-1.3c-0.8-0.2-0.9,0.6-1,1.2C166.9,229.6,166.9,230.4,166.7,231.6z M146.1,230.6c-0.1-1-0.2-1.7-0.4-2.3
		c-0.1-0.3-0.6-0.5-0.9-0.8c-0.2,0.3-0.6,0.6-0.6,1c0,0.7,0.1,1.4,0.3,2c0.1,0.3,0.6,0.8,0.8,0.8
		C145.6,231.3,145.9,230.8,146.1,230.6z M143.7,229.2c0.1-0.1,0.2-0.1,0.2-0.2c-0.3-0.4-0.6-0.7-0.9-1.1c-0.3,0.3-0.7,0.6-0.9,1
		c-0.2,0.4-0.2,1-0.1,1.4c0.1,0.3,0.5,0.6,0.7,0.9c0.3-0.3,0.7-0.5,0.8-0.8C143.7,230.1,143.7,229.7,143.7,229.2z M193.2,229
		C193.2,229,193.2,229,193.2,229c0-0.3,0.1-0.6,0-0.8c-0.2-0.4-0.5-0.7-0.7-1c-0.3,0.3-0.7,0.6-0.8,1c-0.1,0.7-0.1,1.4,0,2
		c0,0.3,0.5,0.7,0.7,0.7c0.3,0,0.6-0.4,0.7-0.7C193.3,229.8,193.2,229.4,193.2,229z M196.3,229.3c-0.1-0.9-0.1-1.5-0.2-2
		c-0.1-0.3-0.5-0.5-0.8-0.7c-0.2,0.3-0.6,0.5-0.7,0.8c-0.1,0.6-0.1,1.2,0.1,1.8c0.1,0.3,0.6,0.8,0.8,0.8
		C195.8,229.9,196.1,229.5,196.3,229.3z M189.4,229.8C189.4,229.8,189.4,229.8,189.4,229.8c0-0.3,0.1-0.7-0.1-0.9
		c-0.1-0.3-0.5-0.7-0.7-0.7c-0.2,0-0.7,0.4-0.7,0.7c-0.1,0.7-0.1,1.3,0,2c0,0.2,0.5,0.5,0.7,0.5c0.3,0,0.6-0.3,0.7-0.6
		C189.4,230.5,189.4,230.1,189.4,229.8z M172.2,229.5c-0.6-0.8-1-1.4-1.4-1.9c-0.2,0.4-0.7,0.8-0.7,1.2c0,0.6-0.2,1.6,0.9,1.7
		C171.3,230.4,171.6,229.9,172.2,229.5z M146.9,229c0.6,0.4,0.9,0.6,1.2,0.9c0.3-0.5,0.7-0.9,0.8-1.4c0.1-0.3-0.4-0.7-0.7-1
		C147.9,228,147.5,228.4,146.9,229z M163.7,229.5c0.6,0.4,0.9,0.7,1.2,0.9c0.3-0.4,0.7-0.9,0.8-1.3c0.1-0.3-0.4-0.7-0.7-1
		C164.7,228.5,164.3,228.9,163.7,229.5z M155.1,181.7c-0.5-0.3-0.8-0.7-1.1-0.7c-0.3,0-0.7,0.5-0.7,0.7c0,0.3,0.4,0.7,0.7,0.7
		C154.3,182.4,154.6,182,155.1,181.7z"/>
	<path class="st4" d="M103.4,264.1c0-0.8,0-1.5,0-2.3c1.6,0.1,3.2-0.5,4.7,0.4c0.7,0.4,1-0.3,1.2-0.9c1.9-5.4,5.7-8.9,11.2-10.1
		c2.4-0.5,5-0.6,7.5-0.6c4.2,0.1,8.5,0.5,12.7,0.6c5.4,0.2,10.8,0.4,16.2,0.4c1.6,0,3.2-0.2,4.8-0.4c3.9-0.5,7.8-0.2,11.7,0
		c2.2,0.1,4.5,0,6.7,0.1c4.9,0.2,9.9,0.6,14.8,0.8c1.3,0.1,2.6-0.1,3.9-0.2c8-0.7,15.6,5.6,16.4,13.5c0.8,8.7-5.2,16.2-13.5,17.1
		c-4.2,0.5-8.3,0.2-12.4,0c-5.6-0.3-11.3-0.1-16.9-0.6c-5.5-0.5-10.8,0.6-16.3,0.5c-5.2-0.1-10.5-0.2-15.7-0.4
		c-4.3-0.2-8.6-0.4-12.9-0.7c-0.9-0.1-1.4,0.2-1.9,1c-1.3,2.5-1.3,5.2-1.7,7.8c-0.3,2.5-0.4,5.1-0.5,7.6c-0.1,1.3,0.2,1.7,1.5,1.8
		c2,0,3.9-0.1,5.9-0.2c0.3,0,0.7-0.5,0.9-0.8c2-3.2,5.1-4.9,8.4-4c2.7,0.8,5.3,1.9,6,5.2c0.1,0.3,0.5,0.6,0.8,0.6
		c3.2,0.2,6.3,0.3,9.5,0.4c0.3,0,0.8-0.4,1-0.8c1.1-2.5,4.3-5.3,8-4.8c2.8,0.4,4.4,2.2,5.5,4.5c0.4,0.8,0.7,1,1.5,0.9
		c1.6-0.1,3.1-0.1,4.7-0.1c0.8,0,1.2-0.2,1.7-0.9c1.9-3.5,4.8-5.4,8.9-5.3c4.2,0.2,8.1,4.1,7.8,7.9c-0.2,1.9-2.9,6-4.8,6.7
		c-1.8,0.7-3.7,1.2-5.5,1.3c-3.5,0.1-6.1-2.3-7-5.6c-0.1-0.3-0.2-0.7-0.3-1.1c-2,0-3.9,0-5.9,0c-0.3,0-0.7,0.5-0.8,0.8
		c-1.3,2.6-3.1,4.5-6.1,5.1c-3.8,0.8-6.9-0.9-8-4.6c-0.1-0.4-0.3-0.8-0.4-1.1c-3.6-0.2-7.2-0.4-10.9-0.5c-2.1,4-5.3,6-9.9,5.2
		c-3.3-0.6-4.5-3.1-5.2-5.9c-1.7,0-3.4,0.1-5.1,0c-3.8-0.1-5.2-1.9-4.8-5.6c0.4-3.9,0.7-7.9,1.1-11.8c0.1-1.1,0.6-2.2,0.9-3.4
		c-0.7-0.1-1.4-0.2-2.1-0.4c-7.1-1.6-12-7.4-12.2-14.8c0-1.2-0.5-1.5-1.5-1.3c-1.1,0.2-2.1,0.3-2.8-0.9
		C104.1,264,103.7,264.1,103.4,264.1z M184,268c-0.6,0.7-1,1.3-1.5,1.8c-0.3,0.3-1,0.7-1.3,0.5c-0.4-0.2-0.8-0.8-0.9-1.3
		c-0.1-0.7,0-1.5,0.1-2.3c0.4-3.4,1.7-4.5,5.1-4.3c0.3,0,0.7-0.3,0.9-0.6c0.1-0.2-0.2-0.6-0.4-0.8c-0.2-0.2-0.6-0.2-0.9-0.3
		c-3.3-0.5-5.7,1.9-6.2,5.3c-0.1,1-0.2,2.1-0.1,3.1c0,1.8,1.4,3.1,3.2,2.6c0.9-0.2,1.7-1,2.6-1.5c0.1,0.6,0.1,1.4,0.4,2.1
		c0.1,0.4,0.6,0.8,0.9,1.2c0.2-0.4,0.7-0.9,0.7-1.3c-0.3-2-0.7-4-1.2-6c-0.5-1.7-1.7-2.2-3.3-1.5c-0.3,0.1-0.5,0.6-0.6,0.9
		c0,0.2,0.5,0.6,0.7,0.6C183.5,266,183.9,266.9,184,268z M159.1,267.3c0.8,1,1.6,2,2.5,2.9c0.3,0.3,0.9,0.2,1.3,0.3
		c0-0.4,0.1-0.9-0.1-1.2c-0.6-1-1.4-1.9-2.2-2.7c-0.6-0.7-0.7-1.2-0.2-2c0.2-0.3,0-0.9,0-1.4c-0.4,0.2-1,0.3-1.2,0.6
		c-0.6,0.8-1.1,1.7-1.7,2.7c-0.2-1.5-0.4-2.8-0.6-4.1c-0.1-0.6-0.2-1.3-1-1.1c-0.3,0.1-0.5,0.9-0.5,1.3c-0.1,0.5,0.1,0.9,0.2,1.4
		c0.3,2.5,0.6,5.1,1,7.6c0.1,0.4,0.6,1,1,1c0.8,0,0.7-0.7,0.6-1.3c-0.2-1-0.2-2-0.3-2.7C158.2,268.1,158.6,267.7,159.1,267.3z
		 M135,268.5c0,1.5,0,2.9,0,4.3c0,0.3,0.5,0.6,0.7,0.9c0.3-0.3,0.7-0.6,0.7-0.9c-0.1-3.4-0.2-6.7-0.4-10.1c0-0.4-0.6-0.7-1-1.1
		c-0.2,0.4-0.6,0.8-0.5,1.3c0,1.3,0.1,2.6,0.2,4c-0.8,0.1-1.4,0.1-2.2,0.2c0-1.2,0.1-2.2,0-3.3c0-0.3-0.5-0.5-0.7-0.8
		c-0.3,0.3-0.7,0.5-0.7,0.8c0,2.5,0.1,5,0.3,7.5c0,0.3,0.5,0.5,0.8,0.8c0.2-0.3,0.6-0.7,0.7-1.1c0.1-0.7,0-1.5-0.1-2.3
		C133.6,268.7,134.1,268.6,135,268.5z M170.2,266.7c1,1.3,1.8,2.4,2.6,3.5c0.9,1.2,1.8,1.1,2.2-0.4c0.6-2.3,1-4.7,1.4-7.1
		c0.1-0.6,0-1.3-0.8-1.2c-0.3,0-0.7,0.7-0.7,1.1c-0.4,2-0.7,4-1.1,5.9c-0.1,0-0.2,0-0.3,0c-0.6-0.8-1.1-1.6-1.7-2.4
		c-0.4-0.5-0.9-1-1.4-1.2c-1.1-0.6-1.8-0.1-1.9,1.1c-0.1,1.4-0.2,2.8-0.3,4.2c0,0.6-0.2,1.4,0.7,1.3c0.3,0,0.8-0.8,0.9-1.3
		C170,269.2,170,268.1,170.2,266.7z M140.1,266.6c-0.3-2.5,0.4-3.3,2.7-2.9c0.3,0,0.6,0.2,0.8,0.2c0.5-0.1,1-0.3,1.4-0.4
		c-0.3-0.4-0.6-0.9-1-1.1c-0.6-0.3-1.3-0.3-2-0.4c-2.1-0.1-3,0.2-3.3,2.4c-0.4,2.2-0.2,4.4-0.2,6.6c0,0.4,0.5,0.9,0.8,1.1
		c1.4,0.6,2.8,1.3,4.3,1c0.3-0.1,0.6-0.5,0.9-0.7c-0.3-0.3-0.5-0.7-0.9-0.8c-0.9-0.3-2-0.4-2.9-0.7c-0.3-0.1-0.8-0.6-0.8-0.9
		c-0.3-1.5-0.2-1.6,1.4-2c0.3-0.1,0.6-0.5,0.8-0.8c-0.3-0.2-0.7-0.6-1-0.7C140.9,266.5,140.5,266.6,140.1,266.6z M126,262.4
		c-0.6,0.1-0.9,0-1.2,0.2c-3.2,1.1-4.2,5.6-1.8,8c1.4,1.3,2.3,1.4,3.9,0.3c0.9-0.6,1.8-1.3,2.5-2c0.3-0.3,0.3-0.8,0.4-1.3
		c-0.5,0-1-0.1-1.4,0.1c-0.9,0.5-1.6,1.3-2.5,1.8c-0.4,0.2-0.9,0.4-1.3,0.3c-1.1-0.4-1.8-2.1-1.5-3.1c0.7-2,1.9-2.8,3.5-2.4
		c0.3,0.1,0.9-0.1,1-0.3c0.1-0.2,0-0.8-0.3-1C127,262.7,126.4,262.6,126,262.4z M147.3,267.9c0.3,1,0.5,2.1,0.9,3
		c0.2,0.4,0.9,0.9,1.4,0.9c1.1,0.1,2.1-0.1,3.2-0.3c0.6-0.1,1.3-0.4,1-1.1c-0.1-0.3-0.9-0.5-1.3-0.4c-3,0.5-3.7,0.5-3.2-3.1
		c0.1-0.6,0.4-1.3,0.7-1.9c0.4-0.8,0.8-1.1,1.6-0.4c0.2,0.2,0.7,0,1.1-0.1c0-0.4,0-0.8-0.1-1.1c-0.9-1.3-2.6-1.2-3.5,0
		C148,264.8,147.5,266.3,147.3,267.9z M164.8,267.1c0,0.5,0,0.9,0,1.3c0,0.6,0,1.4,0.8,1.3c0.3,0,0.7-0.8,0.8-1.2
		c0.2-1.5,0.3-3.1,0.3-4.7c0-0.4-0.4-0.8-0.6-1.2c-0.3,0.3-0.8,0.6-0.9,1C165,264.9,164.9,266.1,164.8,267.1z M184.6,302.3
		c0-0.4,0.1-0.9,0-1.3c-0.1-0.3-0.5-0.6-0.7-0.9c-0.3,0.3-0.7,0.6-0.8,0.9c-0.1,0.9-0.1,1.8,0,2.6c0,0.3,0.5,0.6,0.8,0.8
		c0.2-0.3,0.6-0.6,0.7-0.9C184.7,303.1,184.6,302.7,184.6,302.3z M189.4,302.5c0.1,0.2,0.4,0.5,0.7,0.9c0.3-0.3,0.7-0.6,0.9-1
		c0.2-0.5,0.3-1.1,0.2-1.6c0-0.4-0.4-0.8-0.5-1.1c-0.3,0.3-0.8,0.6-1,0.9C189.5,301,189.5,301.6,189.4,302.5z M135.2,301.7
		c0.1,0.2,0.4,0.5,0.7,0.8c0.3-0.3,0.7-0.5,0.9-0.9c0.2-0.4,0.3-0.9,0.2-1.4c-0.1-0.4-0.4-0.7-0.6-1.1c-0.3,0.3-0.7,0.5-0.9,0.9
		C135.3,300.4,135.3,300.9,135.2,301.7z M163.8,299.9c0.2,0.8,0.3,1.5,0.5,2.1c0.1,0.2,0.6,0.5,0.9,0.4c0.2,0,0.5-0.5,0.5-0.8
		c0-0.6-0.1-1.2-0.3-1.7c-0.1-0.3-0.6-0.7-0.9-0.7C164.2,299.2,164,299.7,163.8,299.9z M139,301.3c0-0.3,0.1-0.6,0-0.8
		c-0.2-0.3-0.5-0.6-0.8-0.9c-0.2,0.3-0.6,0.6-0.7,0.9c-0.1,0.5-0.1,1,0,1.5c0.1,0.3,0.5,0.6,0.8,0.9c0.2-0.3,0.5-0.6,0.7-0.9
		C139,301.8,139,301.5,139,301.3z M140.7,300.7c0.5,0.6,0.7,1.2,1,1.2c1.2,0,0.9-1,1-1.7c0-0.4-0.4-0.8-0.7-1.1
		C141.6,299.6,141.2,300.1,140.7,300.7z M186.3,301.4c0.2,1-0.1,2,1,1.9c1.1-0.1,0.6-1,0.6-1.6c0,0,0-0.1,0-0.1
		c-0.3-0.4-0.5-0.8-0.8-1.1C186.8,300.9,186.5,301.2,186.3,301.4z M168.1,300.6c-0.5-0.6-0.8-1.4-1.1-1.4c-0.9-0.1-0.8,0.8-0.8,1.4
		c0,0.6-0.2,1.5,0.8,1.4C167.4,301.9,167.7,301.2,168.1,300.6z M163.3,300.9c-0.6-0.4-0.9-0.7-1.2-0.9c-0.3,0.5-0.7,0.9-0.8,1.4
		c-0.1,0.3,0.5,0.6,0.7,1C162.4,302,162.8,301.6,163.3,300.9z M164.5,258.9c0.5,0.4,0.8,0.8,1.1,0.7c0.3,0,0.5-0.4,0.8-0.7
		c-0.2-0.3-0.5-0.7-0.7-0.7C165.3,258.2,165,258.6,164.5,258.9z"/>
	<path class="st5" d="M99,349c-0.1,0.8-0.1,1.6-0.2,2.3c-1.9,0-3.8,0-5.6,0.1c-1.6,0-2.7-0.7-3.8-1.9c-2.2-2.6-2.9-5.4-2.9-8.8
		c0-4.5-0.5-9-0.8-13.5c-0.1-1.2,0-2.4,0-3.6c0-3.9,0.1-7.7,0.1-11.6c0-4.8,0-9.6-0.1-14.4c-0.2-6.1-0.5-12.3-0.7-18.4
		c-0.3-7-0.5-14-0.7-21c-0.2-5.7-0.4-11.4-0.7-17.1c-0.2-3.9-0.8-7.8-1-11.7c-0.7-12.2-1.1-24.4-0.1-36.5c0.5-5.4,1.4-10.7,2.1-16
		c1.2-8.8,2-17.7,1.7-26.6c-0.1-2.1,0.1-4.2,0.1-6.3c0.5-0.2,1.4-0.6,1.5-0.4c0.4,0.5,0.5,1.3,0.8,1.9c0,0.5,0,1,0,1.4
		c0.2,9.2,0,18.5-1.4,27.6c-0.5,3.4-1.3,6.7-1.7,10c-0.8,7.7-1.5,15.4-1.3,23.2c0.1,4.2-0.1,8.5,0.1,12.7c0.4,6.8,1.2,13.6,1.5,20.4
		c0.4,7.3,0.5,14.5,0.7,21.8c0.1,2.2,0,4.5,0.1,6.7c0.4,6.9,1,13.9,1.2,20.8c0.2,7.2,0.2,14.4,0.2,21.6c0,4.2,0,8.3,0,12.5
		c0,1.2,0,2.3,0.1,3.5c0.3,4.4,0.8,8.8,0.8,13.3c0,2.7,0.4,5,2.3,7c0.7,0.8,1.3,1.2,2.3,1.1C95.3,349.1,97.2,349,99,349z"/>
	<path class="st6" d="M101,261.9c0,0.8,0,1.6,0,2.3c-0.5-0.1-1-0.1-1.4-0.2c-4.4-1.3-4.9-1.8-5.4-5.3c-0.9-5.8-1.7-11.6-2.3-17.5
		c-0.5-6.2-0.7-12.4-1-18.7c-0.2-5.5-0.5-11.1-0.5-16.7c0-12.1-0.4-24.2,0.6-36.3c0.4-4.7,0.6-9.5,0.8-14.2c0.1-2.2,0.1-4.3,0-6.5
		c0-1,0.3-1.6,1.2-1.9c0.2,0.1,0.4,0.1,0.6,0.2c0.2,0.6,0.5,1.2,0.5,1.8c0.2,6.7-0.2,13.4-0.8,20.1c-0.5,6.1-0.5,12.3-0.6,18.4
		c-0.1,4.2-0.1,8.3,0,12.5c0.1,7.7,0.2,15.3,0.5,23c0.2,6.1,0.5,12.1,1,18.2c0.3,4.2,1,8.3,1.5,12.5c0.2,1.5,0.5,3.1,0.6,4.6
		c0.2,1.7,0.9,2.9,2.6,3.2C99.7,261.6,100.4,261.7,101,261.9z"/>
	<path class="st7" d="M102.2,192.6c-0.1,0.7-0.1,1.5-0.2,2.2c-1.9-0.4-3.7-1.2-4.6-3.1c-0.5-0.9-0.7-2-0.7-3.1
		c0-1.8,0.1-3.6,0.2-5.4c0.2-3.8,0.4-7.6,0.7-11.4c0.4-5.2,0.9-10.3,1.3-15.5c0.1-1.8,0-3.7,0.1-5.5c0-0.7-0.1-1.5,0.2-2.1
		c0.2-0.4,1.1-0.5,1.7-0.7c-0.1,2.7-0.2,5.3-0.3,8c-0.1,2.6,0.1,5.2-0.1,7.8c-0.3,4.3-0.7,8.6-1.1,12.9c-0.3,4.3-0.6,8.5-0.8,12.8
		c-0.1,1.2,0.5,2,1.6,2.5C100.8,192.3,101.5,192.4,102.2,192.6z M99,174.9c0.1,0,0.2,0,0.3,0c0.2-2.5,0.4-5,0.6-7.4
		c-0.1,0-0.1,0-0.2,0C99.5,169.9,99.2,172.4,99,174.9z"/>
	<path class="st3" d="M162.3,247c-1.4,0-2.5-1-2.5-2.4c0-1.4,1-2.5,2.5-2.5c1.4,0,2.4,1,2.5,2.4C164.7,245.9,163.7,247,162.3,247z"
		/>
	<path class="st3" d="M144.3,247.5c-1.4,0-2.4-1.2-2.4-2.6c0.1-1.4,1.2-2.4,2.6-2.3c1.4,0.1,2.3,1.1,2.3,2.5
		C146.9,246.5,145.8,247.6,144.3,247.5z"/>
	<path class="st5" d="M101.2,351.3c0.1-0.8,0.1-1.6,0.2-2.3c0.8,0,1.5,0,2.3,0c0.9,0,1.9-0.1,2,1.1c0,1.3-1.1,1.2-2,1.2
		C102.8,351.3,102,351.3,101.2,351.3z"/>
	<path class="st7" d="M104.6,193c0-0.2,0-0.3,0-0.5c1.1,0,2.3,0,3.4,0c0,0.1,0,0.3,0,0.4C106.9,192.9,105.8,192.9,104.6,193z"/>
	<path class="st8" d="M93.1,146.9c-0.9,0.3-1.3,0.9-1.2,1.9c0.1,2.2,0.1,4.3,0,6.5c-0.2,4.7-0.4,9.5-0.8,14.2
		c-1,12.1-0.5,24.2-0.6,36.3c0,5.6,0.2,11.1,0.5,16.7c0.3,6.2,0.4,12.5,1,18.7c0.5,5.8,1.4,11.7,2.3,17.5c0.5,3.5,1,4,5.4,5.3
		c0.5,0.1,0.9,0.2,1.4,0.2c-0.1,3.5-0.2,7-0.4,10.4c-0.5,5.8-0.2,11.5-0.1,17.2c0.1,7,0.2,14.1,0,21.1c-0.2,6.9-0.9,13.8-1.2,20.7
		c-0.2,4.2-0.1,8.4-0.1,12.6c0,0.9-0.1,1.8-0.1,2.8c-1.8,0-3.7,0.1-5.5,0.1c-1,0-1.7-0.4-2.3-1.1c-1.8-2-2.2-4.4-2.3-7
		c0-4.4-0.5-8.8-0.8-13.3c-0.1-1.2-0.1-2.3-0.1-3.5c0-4.2,0-8.3,0-12.5c0-7.2,0-14.4-0.2-21.6c-0.2-6.9-0.8-13.9-1.2-20.8
		c-0.1-2.2,0-4.5-0.1-6.7c-0.2-7.3-0.3-14.5-0.7-21.8c-0.4-6.8-1.2-13.6-1.5-20.4c-0.2-4.2,0-8.5-0.1-12.7
		c-0.2-7.8,0.5-15.5,1.3-23.2c0.4-3.4,1.1-6.7,1.7-10c1.4-9.2,1.6-18.4,1.4-27.6c0-0.5,0-1,0-1.4C90.1,145.8,91.6,146.4,93.1,146.9z
		"/>
	<path class="st9" d="M180.1,478.3c0-0.3-0.1-0.6,0-0.8c0.2-0.3,0.5-0.6,0.7-0.8c0.3,0.3,0.7,0.5,0.8,0.9c0.2,0.8,0.2,1.7,0.2,2.5
		c0,0.3-0.4,0.6-0.6,1c-0.3-0.3-0.8-0.4-0.9-0.8C180.2,479.6,180.2,479,180.1,478.3C180.1,478.3,180.1,478.3,180.1,478.3z"/>
	<path class="st10" d="M153.1,477.6c-0.4,0.5-0.8,1.4-1.1,1.4c-1.1,0-0.7-1.1-0.8-1.8c0-0.3,0-0.6,0.2-0.8c0.2-0.3,0.6-0.6,0.9-0.6
		c0.3,0,0.5,0.5,0.6,0.8c0.1,0.2,0,0.5,0,0.7C152.9,477.4,153,477.5,153.1,477.6z"/>
	<path class="st9" d="M185.3,478.9c-0.3,0.3-0.6,0.7-0.9,0.7c-0.3,0-0.8-0.3-0.8-0.6c-0.1-0.6-0.2-1.4-0.1-2c0-0.3,0.5-0.6,0.8-0.7
		c0.2,0,0.6,0.4,0.7,0.7c0.1,0.6,0,1.2,0,1.8C185.1,478.7,185.2,478.8,185.3,478.9z"/>
	<path class="st9" d="M186.7,477.6c0.3-0.4,0.5-0.7,0.8-1c0.3,0.3,0.8,0.6,0.9,0.9c0.1,0.6,0,1.2-0.1,1.8c0,0.1-0.8,0.2-0.8,0.1
		C187.2,478.9,187,478.4,186.7,477.6z"/>
	<path class="st11" d="M149.9,477.2c-0.5,0.6-0.7,1.3-1.1,1.3c-1,0.1-0.8-0.7-0.8-1.3c0-0.6-0.1-1.5,0.8-1.4
		C149.1,475.8,149.4,476.6,149.9,477.2z"/>
	<path class="st12" d="M145,476.7c0.5,0.6,0.9,1,1,1.4c0.1,0.2-0.5,0.6-0.7,0.9c-0.3-0.3-0.8-0.6-1-1
		C144.2,477.8,144.6,477.4,145,476.7z"/>
	<path class="st13" d="M143.8,386.1c0,0.1,0,0.3,0,0.5c0.1,0.6,0.1,1.2-0.7,1.2c-0.3,0-0.7-0.7-0.9-1.1c-0.1-0.5-0.1-1.1,0-1.6
		c0.1-0.4,0.5-0.7,0.8-1c0.2,0.3,0.6,0.7,0.7,1C143.9,385.4,143.8,385.7,143.8,386.1z"/>
	<path class="st13" d="M178.2,386.2c-0.1,0.2-0.4,0.5-0.7,0.8c-0.3-0.3-0.7-0.6-0.9-1c-0.2-0.4-0.3-0.9-0.2-1.3
		c0.1-0.4,0.4-0.7,0.6-1.1c0.3,0.3,0.7,0.5,0.9,0.9C178.1,384.9,178.1,385.4,178.2,386.2z"/>
	<path class="st13" d="M151.4,384.3c-0.6,0.7-1,1.2-1.4,1.7c-0.2-0.3-0.7-0.7-0.7-1c0.1-0.7-0.2-1.7,0.9-1.8
		C150.5,383.1,150.8,383.7,151.4,384.3z"/>
	<path class="st13" d="M170.7,385.9c-0.5,0.4-0.8,1-1.1,0.9c-1.2-0.1-0.9-1.2-0.9-1.9c0-0.3,0.5-0.6,0.7-1
		C169.8,384.6,170.2,385.2,170.7,385.9z"/>
	<path class="st12" d="M145.5,385.5c0.6-0.6,0.9-1.3,1.3-1.4c1-0.1,0.8,0.9,0.9,1.5c0,0.3-0.6,0.9-0.8,0.8
		C146.5,386.4,146.1,385.9,145.5,385.5z"/>
	<path class="st12" d="M174,383.9c0.2,0.4,0.5,0.8,0.4,1.1c-0.1,0.4-0.5,0.6-0.8,0.9c-0.2-0.3-0.7-0.6-0.7-0.9
		c0-0.4,0.4-0.8,0.6-1.2C173.7,383.9,173.8,383.9,174,383.9z"/>
	<path class="st13" d="M175.1,193.9c-1.4,0.2-2.6,0.5-3.8,0.5c-0.9,0.1-1.5-0.5-1.9-1.4c-1-2.8,0.5-6.1,3.2-6.9c1-0.3,2-0.1,2.8,0.6
		c0.2,0.2,0.3,0.8,0.2,1c-0.1,0.2-0.7,0.4-1,0.3c-1.9-0.7-3.5,0.3-3.8,2.4c0,0,0,0.1,0,0.1c0.1,0.8,0.3,1.5,0.4,2.3
		c0.9-0.2,1.8-0.3,2.7-0.5c0.2-0.1,0.4-0.5,0.4-0.7c-0.1-0.2-0.4-0.3-0.7-0.4c-0.1-0.1-0.4,0-0.5,0c-0.4-0.2-0.7-0.5-1.1-0.8
		c0.4-0.2,0.7-0.7,1.1-0.7c2-0.2,2.4,0,2.9,2c0.4,1.5,0.6,3.1,0.7,4.7c0,0.3-0.5,0.7-0.8,1.1c-0.3-0.3-0.7-0.7-0.7-1
		C175.2,195.5,175.2,194.7,175.1,193.9z"/>
	<path class="st13" d="M146.4,189.9c0.5-1.3,0.8-2.3,1.2-3.3c0.5-0.9,1.2-0.9,1.7,0c0.8,1.5,1.6,3.1,2.3,4.7
		c0.1,0.3-0.2,0.8-0.3,1.2c-0.4-0.2-0.9-0.3-1.1-0.6c-0.6-1-1-2.1-1.5-3.1c-0.1,0-0.2,0-0.3,0c-0.2,0.9-0.4,1.9-0.7,2.8
		c-0.2,0.5-0.6,0.9-0.9,1.3c-0.4-0.3-0.8-0.6-1.1-0.9c-0.4-0.6-0.7-1.2-1.1-1.8c-0.1,0-0.2,0-0.3,0c0,1.1,0,2.2,0,3.3
		c0,0.6,0.1,1.3-0.8,1.3c-0.9,0-0.8-0.8-0.7-1.4c0.1-1.9,0.2-3.7,0.4-5.6c0-0.4,0.5-0.8,0.8-1.2c0.4,0.3,0.8,0.5,1.1,0.9
		C145.5,188.2,145.8,189,146.4,189.9z"/>
	<path class="st13" d="M126.1,189.6c-0.2,2.1-0.3,3.9-0.5,5.7c0,0.4-0.5,0.7-0.7,1c-0.3-0.4-0.8-0.8-0.7-1.1c0.1-2.4,0.3-4.7,0.5-7
		c0-0.4,0.4-1,0.6-1c0.5,0,1.1,0.2,1.5,0.5c0.8,0.8,1.4,1.8,2.2,2.7c0.3,0.4,0.6,0.7,1.1,1.3c0.3-1.6,0.7-2.9,0.9-4.3
		c0.1-0.6,0.2-1.3,1.1-1.1c0.8,0.2,0.6,0.9,0.5,1.5c-0.3,1.5-0.6,3.1-1.1,4.5c-0.2,0.6-0.7,1.1-1.2,1.5c-0.2,0.1-0.9-0.5-1.2-0.9
		C127.9,191.9,127.1,190.8,126.1,189.6z"/>
	<path class="st13" d="M139.2,192.5c-1,0.2-2,0.4-2.9,0.4c-0.7,0.1-1.2,0.2-1.5,1c-0.1,0.3-0.8,0.8-1.1,0.8
		c-0.7-0.2-0.6-0.8-0.4-1.4c0.7-1.9,1.4-3.8,2-5.8c0.3-1.1,0.9-1.3,1.8-0.7c0.6,0.4,1.2,0.8,1.6,1.4c1.1,1.6,2.2,3.3,2.5,5.4
		c0.1,0.6,0.1,1.2-0.6,1.3c-0.7,0.1-0.9-0.4-1-1C139.5,193.4,139.3,192.9,139.2,192.5z M135.7,191.4c1.1-0.1,1.9-0.2,2.9-0.3
		c-0.6-1-1.1-1.8-1.8-2.9C136.4,189.5,136.1,190.3,135.7,191.4z"/>
	<path class="st13" d="M163.8,192c0.4-1.8,0.7-3.3,1.1-4.8c0.1-0.3,0-0.7,0.2-0.9c0.2-0.3,0.6-0.5,0.9-0.5c0.2,0,0.6,0.5,0.6,0.7
		c-0.4,2.3-0.4,4.7-2,6.7c-0.8,1-1.2,1-2,0c-0.3-0.3-0.5-0.7-1-1.3c-0.1,1.3-0.2,2.3-0.4,3.3c-0.1,0.4-0.6,0.8-0.9,1.2
		c-0.2-0.4-0.6-0.9-0.6-1.3c0-1.6,0.2-3.2,0.3-4.8c0-0.4,0.2-0.9,0.5-1c0.3-0.1,0.9,0.1,1.1,0.3C162.2,190.2,162.8,190.9,163.8,192z
		"/>
	<path class="st13" d="M156,192.5c-0.1,0.1-0.4,0.6-0.6,0.6c-0.3,0-0.8-0.3-0.9-0.6c-0.3-2.2-0.6-4.3-0.7-6.5c0-0.2,0.5-0.5,0.8-0.7
		c0.2,0.3,0.7,0.5,0.7,0.8c0.2,1.3,0.3,2.7,0.4,4C155.8,190.9,155.9,191.6,156,192.5z"/>
	<path class="st13" d="M166.7,231.6c0.1-1.2,0.2-2,0.3-2.8c0.1-0.6,0.2-1.4,1-1.2c0.3,0.1,0.6,0.8,0.6,1.3c0,0.8-0.1,1.6-0.3,2.4
		c-0.1,0.4-0.5,0.7-0.8,1.1C167.2,232.1,166.9,231.7,166.7,231.6z"/>
	<path class="st13" d="M146.1,230.6c-0.2,0.2-0.5,0.6-0.8,0.7c-0.2,0-0.7-0.4-0.8-0.8c-0.2-0.6-0.3-1.3-0.3-2c0-0.3,0.4-0.7,0.6-1
		c0.3,0.3,0.8,0.5,0.9,0.8C145.9,229,145.9,229.7,146.1,230.6z"/>
	<path class="st13" d="M143.7,229.2c0,0.4,0,0.9-0.2,1.3c-0.1,0.3-0.5,0.6-0.8,0.8c-0.2-0.3-0.6-0.6-0.7-0.9c-0.1-0.4-0.1-1,0.1-1.4
		c0.2-0.4,0.6-0.7,0.9-1c0.3,0.4,0.6,0.7,0.9,1.1C143.9,229.1,143.8,229.2,143.7,229.2z"/>
	<path class="st13" d="M193.2,229c0,0.4,0.1,0.8,0,1.2c-0.1,0.3-0.5,0.7-0.7,0.7c-0.3,0-0.7-0.4-0.7-0.7c-0.1-0.7-0.1-1.4,0-2
		c0.1-0.4,0.5-0.7,0.8-1c0.2,0.3,0.6,0.7,0.7,1C193.3,228.4,193.2,228.7,193.2,229C193.2,229,193.2,229,193.2,229z"/>
	<path class="st13" d="M196.3,229.3c-0.1,0.1-0.4,0.6-0.8,0.6c-0.3,0-0.7-0.4-0.8-0.8c-0.2-0.6-0.2-1.2-0.1-1.8
		c0-0.3,0.5-0.5,0.7-0.8c0.3,0.2,0.7,0.4,0.8,0.7C196.2,227.9,196.2,228.5,196.3,229.3z"/>
	<path class="st13" d="M189.4,229.8c0,0.3,0.1,0.7-0.1,0.9c-0.1,0.3-0.5,0.5-0.7,0.6c-0.2,0-0.6-0.3-0.7-0.5c-0.1-0.7-0.1-1.3,0-2
		c0-0.3,0.5-0.7,0.7-0.7c0.3,0,0.6,0.4,0.7,0.7C189.5,229.1,189.4,229.5,189.4,229.8C189.4,229.8,189.4,229.8,189.4,229.8z"/>
	<path class="st13" d="M172.2,229.5c-0.6,0.4-0.9,0.9-1.2,0.9c-1-0.1-0.9-1-0.9-1.7c0-0.4,0.4-0.8,0.7-1.2
		C171.2,228.2,171.6,228.7,172.2,229.5z"/>
	<path class="st12" d="M146.9,229c0.6-0.6,1-1.1,1.3-1.5c0.2,0.3,0.7,0.7,0.7,1c-0.1,0.5-0.5,0.9-0.8,1.4
		C147.8,229.7,147.5,229.4,146.9,229z"/>
	<path class="st12" d="M163.7,229.5c0.6-0.6,1-1,1.4-1.4c0.2,0.3,0.7,0.7,0.7,1c-0.1,0.5-0.5,0.9-0.8,1.3
		C164.6,230.2,164.3,229.9,163.7,229.5z"/>
	<path class="st13" d="M155.1,181.7c-0.5,0.4-0.8,0.8-1.1,0.7c-0.3,0-0.7-0.4-0.7-0.7c0-0.2,0.4-0.7,0.7-0.7
		C154.3,180.9,154.6,181.3,155.1,181.7z"/>
	<path class="st9" d="M184,268c-0.1-1.1-0.4-2-2-1.6c-0.2,0-0.7-0.4-0.7-0.6c0-0.3,0.3-0.8,0.6-0.9c1.6-0.8,2.9-0.3,3.3,1.5
		c0.5,2,0.9,4,1.2,6c0.1,0.4-0.4,0.8-0.7,1.3c-0.3-0.4-0.7-0.7-0.9-1.2c-0.2-0.7-0.3-1.5-0.4-2.1c-0.9,0.5-1.7,1.3-2.6,1.5
		c-1.8,0.5-3.2-0.8-3.2-2.6c0-1,0-2.1,0.1-3.1c0.5-3.4,2.9-5.8,6.2-5.3c0.3,0,0.7,0.1,0.9,0.3c0.2,0.2,0.5,0.7,0.4,0.8
		c-0.1,0.3-0.6,0.6-0.9,0.6c-3.4-0.2-4.7,0.9-5.1,4.3c-0.1,0.8-0.2,1.5-0.1,2.3c0.1,0.5,0.5,1.1,0.9,1.3c0.3,0.1,1-0.2,1.3-0.5
		C183,269.3,183.4,268.7,184,268z"/>
	<path class="st9" d="M159.1,267.3c-0.5,0.4-0.9,0.8-1.5,1.3c0.1,0.8,0.2,1.8,0.3,2.7c0.1,0.6,0.2,1.3-0.6,1.3c-0.3,0-0.9-0.6-1-1
		c-0.4-2.5-0.6-5.1-1-7.6c-0.1-0.5-0.3-1-0.2-1.4c0.1-0.5,0.2-1.3,0.5-1.3c0.8-0.2,0.9,0.5,1,1.1c0.2,1.3,0.4,2.6,0.6,4.1
		c0.6-1,1.1-1.9,1.7-2.7c0.3-0.3,0.8-0.4,1.2-0.6c0,0.5,0.2,1.1,0,1.4c-0.6,0.8-0.4,1.3,0.2,2c0.8,0.9,1.5,1.8,2.2,2.7
		c0.2,0.3,0.1,0.8,0.1,1.2c-0.4-0.1-1,0-1.3-0.3C160.7,269.3,160,268.3,159.1,267.3z"/>
	<path class="st11" d="M135,268.5c-0.9,0.1-1.5,0.2-2.2,0.3c0,0.8,0.2,1.5,0.1,2.3c0,0.4-0.4,0.7-0.7,1.1c-0.3-0.3-0.8-0.5-0.8-0.8
		c-0.1-2.5-0.2-5-0.3-7.5c0-0.2,0.5-0.5,0.7-0.8c0.2,0.3,0.7,0.5,0.7,0.8c0.1,1,0,2.1,0,3.3c0.8-0.1,1.4-0.1,2.2-0.2
		c-0.1-1.4-0.2-2.7-0.2-4c0-0.4,0.4-0.8,0.5-1.3c0.3,0.4,1,0.7,1,1.1c0.2,3.3,0.3,6.7,0.4,10.1c0,0.3-0.5,0.6-0.7,0.9
		c-0.3-0.3-0.7-0.6-0.7-0.9C135,271.4,135,270,135,268.5z"/>
	<path class="st9" d="M170.2,266.7c-0.1,1.4-0.1,2.5-0.3,3.6c-0.1,0.5-0.6,1.2-0.9,1.3c-0.8,0-0.7-0.7-0.7-1.3
		c0.1-1.4,0.2-2.8,0.3-4.2c0.1-1.2,0.8-1.7,1.9-1.1c0.5,0.3,1,0.8,1.4,1.2c0.6,0.8,1.1,1.6,1.7,2.4c0.1,0,0.2,0,0.3,0
		c0.3-2,0.7-4,1.1-5.9c0.1-0.4,0.5-1,0.7-1.1c0.8-0.1,0.9,0.6,0.8,1.2c-0.4,2.4-0.8,4.8-1.4,7.1c-0.4,1.5-1.2,1.5-2.2,0.4
		C171.9,269.1,171.1,268.1,170.2,266.7z"/>
	<path class="st11" d="M140.1,266.6c0.4,0,0.8-0.2,1.1-0.1c0.4,0.1,0.7,0.4,1,0.7c-0.3,0.3-0.5,0.7-0.8,0.8c-1.6,0.4-1.7,0.5-1.4,2
		c0.1,0.4,0.5,0.8,0.8,0.9c0.9,0.3,1.9,0.4,2.9,0.7c0.3,0.1,0.6,0.5,0.9,0.8c-0.3,0.2-0.6,0.7-0.9,0.7c-1.6,0.3-3-0.4-4.3-1
		c-0.4-0.2-0.8-0.7-0.8-1.1c0-2.2-0.2-4.5,0.2-6.6c0.4-2.1,1.2-2.5,3.3-2.4c0.7,0,1.4,0.1,2,0.4c0.4,0.2,0.7,0.7,1,1.1
		c-0.5,0.2-0.9,0.3-1.4,0.4c-0.3,0-0.5-0.1-0.8-0.2C140.6,263.4,139.8,264.1,140.1,266.6z"/>
	<path class="st9" d="M126,262.4c0.4,0.1,1,0.3,1.4,0.6c0.2,0.2,0.4,0.8,0.3,1c-0.1,0.2-0.7,0.4-1,0.3c-1.6-0.4-2.8,0.4-3.5,2.4
		c-0.3,1,0.5,2.7,1.5,3.1c0.4,0.1,0.9-0.1,1.3-0.3c0.9-0.6,1.6-1.3,2.5-1.8c0.3-0.2,0.9-0.1,1.4-0.1c-0.1,0.4-0.1,1-0.4,1.3
		c-0.8,0.7-1.7,1.4-2.5,2c-1.6,1.1-2.5,1-3.9-0.3c-2.4-2.4-1.4-6.8,1.8-8C125.1,262.5,125.4,262.5,126,262.4z"/>
	<path class="st9" d="M147.3,267.9c0.2-1.7,0.7-3.1,1.7-4.4c1-1.2,2.6-1.3,3.5,0c0.2,0.3,0.1,0.7,0.1,1.1c-0.4,0-0.9,0.3-1.1,0.1
		c-0.8-0.7-1.3-0.4-1.6,0.4c-0.3,0.6-0.6,1.2-0.7,1.9c-0.4,3.6,0.2,3.6,3.2,3.1c0.4-0.1,1.2,0.1,1.3,0.4c0.3,0.8-0.4,1-1,1.1
		c-1.1,0.2-2.1,0.3-3.2,0.3c-0.5,0-1.2-0.5-1.4-0.9C147.8,270,147.6,269,147.3,267.9z"/>
	<path class="st10" d="M164.8,267.1c0.1-1.1,0.1-2.3,0.4-3.5c0.1-0.4,0.6-0.7,0.9-1c0.2,0.4,0.6,0.8,0.6,1.2c0,1.6-0.1,3.1-0.3,4.7
		c-0.1,0.4-0.5,1.2-0.8,1.2c-0.8,0.1-0.8-0.7-0.8-1.3C164.9,268,164.8,267.7,164.8,267.1z"/>
	<path class="st11" d="M184.6,302.3c0,0.4,0.1,0.8,0,1.2c-0.1,0.3-0.5,0.6-0.7,0.9c-0.3-0.3-0.7-0.5-0.8-0.8c-0.1-0.9-0.1-1.8,0-2.6
		c0-0.3,0.5-0.6,0.8-0.9c0.2,0.3,0.6,0.6,0.7,0.9C184.7,301.4,184.6,301.8,184.6,302.3z"/>
	<path class="st10" d="M189.4,302.5c0.1-0.9,0.1-1.5,0.3-2c0.2-0.4,0.6-0.6,1-0.9c0.2,0.4,0.5,0.8,0.5,1.1c0,0.5,0,1.1-0.2,1.6
		c-0.2,0.4-0.6,0.7-0.9,1C189.8,303,189.5,302.7,189.4,302.5z"/>
	<path class="st10" d="M135.2,301.7c0.1-0.8,0.1-1.3,0.3-1.7c0.2-0.4,0.6-0.6,0.9-0.9c0.2,0.4,0.5,0.7,0.6,1.1c0.1,0.5,0,1-0.2,1.4
		c-0.2,0.4-0.6,0.6-0.9,0.9C135.6,302.2,135.3,301.9,135.2,301.7z"/>
	<path class="st10" d="M163.8,299.9c0.2-0.2,0.5-0.7,0.7-0.7c0.3,0,0.8,0.4,0.9,0.7c0.2,0.5,0.3,1.2,0.3,1.7c0,0.3-0.3,0.8-0.5,0.8
		c-0.3,0-0.8-0.2-0.9-0.4C164,301.4,164,300.7,163.8,299.9z"/>
	<path class="st11" d="M139,301.3c0,0.2,0.1,0.5,0,0.7c-0.2,0.3-0.5,0.6-0.7,0.9c-0.3-0.3-0.7-0.5-0.8-0.9c-0.1-0.5-0.1-1,0-1.5
		c0.1-0.3,0.5-0.6,0.7-0.9c0.3,0.3,0.6,0.5,0.8,0.9C139.1,300.6,139,301,139,301.3z"/>
	<path class="st10" d="M140.7,300.7c0.5-0.6,0.9-1.1,1.3-1.6c0.2,0.4,0.7,0.8,0.7,1.1c-0.1,0.7,0.2,1.7-1,1.7
		C141.4,301.9,141.2,301.3,140.7,300.7z"/>
	<path class="st9" d="M186.3,301.4c0.2-0.2,0.5-0.6,0.9-0.9c0.3,0.4,0.5,0.8,0.8,1.1c0,0,0,0.1,0,0.1c0,0.6,0.4,1.5-0.6,1.6
		C186.2,303.4,186.5,302.4,186.3,301.4z"/>
	<path class="st11" d="M168.1,300.6c-0.5,0.6-0.8,1.3-1.1,1.3c-1,0.1-0.8-0.8-0.8-1.4c0-0.6-0.1-1.5,0.8-1.4
		C167.4,299.2,167.7,300,168.1,300.6z"/>
	<path class="st10" d="M163.3,300.9c-0.6,0.6-0.9,1-1.3,1.4c-0.3-0.3-0.8-0.7-0.7-1c0.1-0.5,0.5-0.9,0.8-1.4
		C162.4,300.3,162.8,300.5,163.3,300.9z"/>
	<path class="st11" d="M164.5,258.9c0.5-0.3,0.8-0.7,1.1-0.7c0.3,0,0.5,0.5,0.7,0.7c-0.3,0.2-0.5,0.7-0.8,0.7
		C165.3,259.7,165,259.3,164.5,258.9z"/>
	<path class="st8" d="M99,174.9c0.2-2.5,0.5-5,0.7-7.4c0.1,0,0.1,0,0.2,0c-0.2,2.5-0.4,5-0.6,7.4C99.2,174.9,99.1,174.9,99,174.9z"
		/>
	<path class="st7" d="M135.7,191.4c0.4-1.1,0.7-1.9,1.1-3.1c0.7,1.1,1.2,1.9,1.8,2.9C137.6,191.2,136.8,191.3,135.7,191.4z"/>
</g>
<g id="pink">
	<path class="st14" d="M86.3,143.8c-10.4-8.3-9.5-23.6,1.8-30.1c2.5-1.4,5.2-2.2,8.1-2.4c2.9-0.2,5.7-0.6,8.6-0.7
		c3.6-0.2,7.3-0.2,10.9-0.2c10.2,0,20.4,0,30.6,0c5,0,10.1,0.1,15.1,0c4.1-0.1,8.3-0.5,12.4-0.8c2.5-0.2,5-0.4,7.5-0.5
		c4.9-0.3,9.7-0.7,14.6-0.9c4.9-0.2,9.8-0.4,14.7-0.5c5.8-0.2,11.6-0.5,17.4-0.4c5,0,10,0.5,15.1,0.8c2.6,0.2,5.3,0.5,7.9,0.5
		c9.3,0.1,17.3,7.5,17.8,16.5c0.6,9.9-6.1,18.2-15.6,19.3c-2.6,0.3-5.3,0.1-8-0.1c-4-0.2-8-0.7-11.9-0.9c-4.9-0.2-9.9-0.3-14.9-0.2
		c-6.4,0.2-12.8,0.5-19.3,0.9c-4.2,0.2-8.5,0.5-12.7,0.8c-4.1,0.3-8.2,0.7-12.3,1c-2.9,0.2-5.7,0.4-8.6,0.5
		c-16.2,0.1-32.5,0.1-48.7,0.2c-4.1,0-8.1,0.1-12.2,0.3c-1.2,0-2.5,0.3-3.7,0.3c-2.4,0.1-4.8,0.1-7.2,0.1c-0.2-0.1-0.4-0.1-0.6-0.2
		c-1.5-0.5-3.1-1.1-4.6-1.6c-0.2-0.7-0.4-1.4-0.8-1.9C87.6,143.2,86.8,143.6,86.3,143.8z M143.6,126c0.1,0.1,0.2,0.2,0.3,0.3
		c0,1.9-0.1,3.8-0.1,5.7c0,0.2,0.2,0.4,0.4,0.6c0.1-0.2,0.4-0.4,0.4-0.6c0.1-0.4,0-0.8,0-1.2c-0.2-1.2-0.2-2.4,0.9-3.3
		c0.4-0.3,0.6-0.8,0.9-1.3c0.4-0.6,0.2-1.1-0.2-1.6c-0.8-0.7-1.5-1-2.3-0.1c-0.7,0.8-1.7,1.3-2,2.4c0.1,0.1,0.2,0.2,0.3,0.3
		C142.5,126.9,143,126.5,143.6,126z M177.1,126.2c0.8,0.3,1.5,0.7,2.3,1c0.2,0.1,0.5-0.1,0.8-0.1c-0.2-0.2-0.3-0.5-0.5-0.6
		c-1-0.5-1.9-0.8-2.9-1.3c0-0.1,0-0.2,0-0.3c1.5-0.4,3-0.9,4.7-1.4c-0.8,1.6-0.9,5.2-0.2,6.5c0.1,0.2,0.4,0.3,0.6,0.5
		c0.1-0.2,0.2-0.5,0.1-0.7c-0.1-1.4-0.3-2.8-0.4-4.1c0-0.5,0.2-0.9,0.3-1.4c1,0.1,1.5,0.5,1.7,1.3c0.1,0.5,0.2,1,0.4,1.5
		c0.2,0.6,0.5,1.2,0.8,1.7c0.4-0.5,0.8-1,1.1-1.6c0.5-1.1,0.9-2.2,1.3-3.4c0.2,0,0.3,0,0.5-0.1c0.8,1.4,1.6,2.9,2.4,4.3
		c0.2,0.3,0.5,0.4,0.7,0.6c0-0.3,0.2-0.7,0-0.9c-0.7-1.4-1.5-2.8-2.3-4c-1-1.4-1.7-1.2-2.3,0.4c-0.4,0.9-0.7,1.8-1.1,3
		c-0.7-1.6-0.4-3.5-2.6-3.8c0.3-0.2,0.5-0.2,0.5-0.3c0.3-0.2,0.5-0.4,0.8-0.6c-0.3-0.1-0.7-0.3-1-0.2c-2.2,0.6-4.5,1.2-6.7,1.9
		c-0.3,0.1-0.6,0.4-0.9,0.7c0.3,0.3,0.5,0.6,0.8,0.8c0.2,0.1,0.4,0.2,0.7,0.3c-1.1,1.2-0.6,2.5-0.2,4c-1.6-0.1-3.1-0.2-4.7-0.2
		c0.2-1.2,0.5-2,0.5-2.9c0-0.7,0-1.6-0.5-2c-0.8-0.8-1.9-1.2-3-0.5c0.5,2-0.5,4,0.3,5.9c0.2,0,0.3,0,0.5,0c0.1-1.8,0.2-3.6,0.3-5.4
		c1.5,0.2,1.8,0.9,1.6,2c-0.1,0.8-0.3,1.7-0.3,2.5c0,0.4,0.4,1,0.8,1c1,0.2,2.1,0.3,3.2,0.4c1.4,0.1,2.8-0.2,4.1,0.8
		c0.3,0.2,0.9,0,1.4-0.1c0-0.1,0-0.3,0-0.4c-0.2-0.1-0.5-0.1-0.7-0.2c-2.1-0.7-3.3-1.4-2.8-3.9C177,126.7,177,126.4,177.1,126.2z
		 M120.4,128.4c0.4-1.7,0.8-1.9,2.7-2c0.6,0,0.9,0.2,1.1,0.8c0.5,1.5,0.6,3,0.4,4.5c0,0.3,0.2,0.6,0.3,0.9c0.2-0.3,0.5-0.5,0.5-0.8
		c0-1.4-0.1-2.8-0.2-4.1c0-0.1,0.1-0.1,0.1-0.3c0.3,0,0.6,0.1,0.9,0.1c-0.1,1-0.2,2-0.2,2.9c0,1,0.4,2,1.5,2.2
		c1.3,0.3,2.7,0.3,4,0.4c0.2,0,0.4-0.3,0.6-0.4c-0.2-0.1-0.3-0.3-0.5-0.4c-1.1-0.1-2.1-0.2-3.2-0.4c-1.2-0.2-1.6-0.7-1.5-1.9
		c0.1-0.8,0.2-1.7,0.2-2.5c0-0.3-0.3-0.8-0.4-0.8c-1,0-1.8-0.5-2.7-0.8c-1.6-0.4-3.4-0.5-4.3,1.3c-0.3-0.1-0.6-0.2-0.9-0.4
		c0,0.3-0.1,0.6,0,0.9c0.2,1.1,0.4,2.2,0.5,3.3c0.3,2.3,0.3,2.4,2.7,2.6c0.4,0,0.7-0.2,1.1-0.3c-0.3-0.2-0.7-0.5-1-0.5
		c-1.7-0.1-1.8-0.2-1.9-1.9c0-0.5,0-0.9-0.1-1.6c1,0.3,1.8,0.6,2.7,0.9c0.2,0.1,0.5-0.2,0.8-0.2c-0.2-0.2-0.3-0.4-0.5-0.5
		C122.2,129,121.3,128.7,120.4,128.4z M205.5,128.4c0.2-0.6,0.3-0.9,0.4-1.2c0.2-1.1,0.4-2.2,0.5-3.3c0.1-1.3,0.7-2,1.9-2.2
		c1.8-0.3,3.7-0.6,5.5-1c0.5-0.1,1.1-0.3,1.6-0.4c0-0.1,0-0.2-0.1-0.4c-0.1-0.1-0.3-0.2-0.4-0.2c-2.7,0.5-5.4,1-8.1,1.6
		c-0.5,0.1-1,0.8-1.1,1.3c-0.4,1.3-0.5,2.7-0.8,4.2c-0.5-0.4-0.8-0.7-1.2-1c-1-0.8-2.1-1.6-3.1-2.4c-0.7-0.5-1.2-0.3-1.1,0.5
		c0.1,1.6,0.3,3.1,0.5,4.7c0,0.2,0.4,0.3,0.6,0.4c0.1-0.2,0.2-0.4,0.2-0.6c0-0.4-0.2-0.7-0.2-1.1c-0.1-1-0.3-2-0.4-3.1
		c0.1,0,0.2-0.1,0.4-0.1C202.2,125.6,203.8,126.9,205.5,128.4z M191,124.5c2.7,0.1,2.2,2.1,2.6,3.6c0.1,0.2,0.1,0.5,0.2,0.7
		c0.7,1.8,3,2.5,4.5,1.2c0.3-0.3,0.4-0.7,0.6-1c-0.4,0.1-0.9,0.2-1.2,0.4c-1,0.7-2.6,0.5-3-0.7c-0.4-1-0.5-2.2-0.8-3.4
		c1.3,0.3,2.4,0.5,3.5,0.7c0.3,0,0.6-0.3,0.9-0.4c-0.3-0.2-0.5-0.4-0.8-0.4c-1-0.2-2.1-0.4-3.2-0.6c-0.2-0.1-0.5-0.3-0.5-0.5
		c0-0.2,0.2-0.5,0.4-0.6c0.8-0.3,1.6-0.6,2.5-0.9c0.4-0.2,0.9-0.3,1.5-0.5C197.1,121.1,192.4,122.8,191,124.5z M150.1,131.2
		c0.3-0.8,0.4-1.3,0.6-1.8c0.3-1,0.8-1.9,1-2.9c0.3-1.4,0-1.7-1.4-1.4c-1.1,0.2-2.1,0.5-3.1,0.8c0.3,2.3,0.6,4.5,0.9,6.8
		c0.2,0,0.4,0,0.5,0c0.1-2,0-4-0.5-6.1c0.9-0.2,1.8-0.4,3-0.7c-0.3,0.8-0.4,1.2-0.6,1.7c-0.3,0.9-0.7,1.8-1,2.7
		c-0.2,0.7-0.4,1.6,0.8,1.8c1.6,0.2,3.2,0.3,4.9,0.3c0.3,0,0.6-0.3,0.9-0.5c-0.1-0.1-0.1-0.1-0.2-0.2
		C154,131.5,152.1,131.4,150.1,131.2z M112.9,127c0.1-0.1,0.2-0.1,0.3-0.2c1.1,0.8,2.3,1.5,3.3,2.5c1,1,0.7,2.5-0.5,3.3
		c-0.8,0.5-1.7,1-2.6,1.5c-0.4,0.2-0.8,0.5-1.2,0.7c0,0.1,0.1,0.2,0.1,0.4c0.3,0,0.6,0.1,0.8,0c1.5-0.8,2.9-1.6,4.3-2.6
		c0.3-0.2,0.5-1,0.5-1.4c-0.2-2.3-3.3-5.1-5.9-5.3c0,0.4-0.1,0.9-0.1,1.2c0.3,1.4,0.7,2.7,1,4.1c0.1,0.3,0.4,0.5,0.6,0.7
		c0.1-0.3,0.2-0.6,0.1-0.9C113.5,129.5,113.2,128.3,112.9,127z M106.2,125.5c-0.6-1.1-1.2-1.7-2.3-1.5c-1.8,0.4-3.3,1.1-4.1,3.1
		c-0.5,1.3-0.3,2.4,0.1,3.5c0.9,2.6,1,2.9,4,2.9c-0.4-0.4-0.8-0.7-1.3-0.8c-0.8-0.1-1.3-0.4-1.4-1.2c-0.1-1.1,0-2.3,0-3.4
		C101.1,125.8,103.8,124,106.2,125.5z M110.3,127c-1.6-0.2-3.3,0.4-4.9,1.1c-0.7,0.3-0.8,3.1-0.3,3.6c1.1,1.1,2.8,1.2,4.1,0.2
		c0.5-0.3,0.9-0.8,1.3-1.2c0.6-0.5,0.6-1.1,0.3-1.8C110.6,128.5,110.5,127.9,110.3,127z M162.5,127.5c0.1,0.2,0.3,0.8,0.5,1.3
		c0.2,0.5,0.3,0.9,0.5,1.3c0.1,0.2,0.4,0.3,0.6,0.4c0-0.2,0.2-0.5,0.1-0.7c-0.1-0.3-0.2-0.7-0.3-1c-0.3-0.9-0.2-1.5,0.6-2.2
		c0.8-0.7,1.3-1.7,1.8-2.6c0.1-0.2-0.1-0.9-0.2-0.9c-1.5-0.3-3-0.4-4.3,0.5c-0.2,0.1-0.2,0.4-0.4,0.8c0.6-0.1,0.9-0.2,1.4-0.2
		C162.7,125.3,162.6,126.2,162.5,127.5z M157,130.7c0.7-0.2,1.6-0.5,2.3-0.9c0.1-0.1-0.3-1.2-0.6-1.7c-0.3-0.4-0.8-0.9-1.3-1.1
		c-1.8-0.6-2.9,0.5-4.1,1.5c-0.7,0.6-0.5,1.2,0.3,1.4C154.6,130.3,155.8,130.5,157,130.7z M210.7,125.3c0,0-0.1,0-0.1,0
		c0.1,1.3,0.1,2.6,0.2,3.8c0.1,0.7,1.5,1.1,1.9,0.6c0.1-0.1-0.1-0.6-0.1-0.6c-1.4,0-1.1-1.1-1.1-1.9c0-1.6,0.1-3.2,0.1-4.8
		c0-0.3-0.3-0.6-0.4-0.9c-0.1,0.3-0.4,0.6-0.4,1C210.7,123.4,210.7,124.3,210.7,125.3z"/>
	<path class="st12" d="M176.6,126c-0.2-0.1-0.5-0.1-0.7-0.3c-0.3-0.2-0.5-0.5-0.8-0.8c0.3-0.2,0.6-0.6,0.9-0.7
		c2.2-0.7,4.4-1.3,6.7-1.9c0.3-0.1,0.7,0.1,1,0.2c-0.3,0.2-0.5,0.4-0.8,0.6c-0.1,0.1-0.2,0.1-0.5,0.3c2.2,0.3,1.9,2.2,2.6,3.8
		c0.4-1.2,0.8-2.1,1.1-3c0.6-1.6,1.4-1.8,2.3-0.4c0.9,1.3,1.6,2.7,2.3,4c0.1,0.2,0,0.6,0,0.9c-0.2-0.2-0.6-0.4-0.7-0.6
		c-0.8-1.4-1.6-2.9-2.4-4.3c-0.2,0-0.3,0-0.5,0.1c-0.4,1.1-0.8,2.3-1.3,3.4c-0.3,0.6-0.7,1.1-1.1,1.6c-0.3-0.6-0.6-1.2-0.8-1.7
		c-0.2-0.5-0.3-1-0.4-1.5c-0.1-0.9-0.6-1.2-1.7-1.3c-0.1,0.4-0.4,0.9-0.3,1.4c0.1,1.4,0.3,2.8,0.4,4.1c0,0.2-0.1,0.5-0.1,0.7
		c-0.2-0.2-0.5-0.3-0.6-0.5c-0.7-1.4-0.6-4.9,0.2-6.5c-1.7,0.5-3.2,0.9-4.7,1.4c0,0.1,0,0.2,0,0.3c1,0.4,1.9,0.8,2.9,1.3
		c0.2,0.1,0.4,0.4,0.5,0.6c-0.3,0-0.6,0.2-0.8,0.1c-0.8-0.3-1.6-0.6-2.3-1C176.9,126.1,176.8,126.1,176.6,126z"/>
	<path class="st12" d="M120.4,128.4c0.9,0.3,1.8,0.6,2.6,1c0.2,0.1,0.4,0.3,0.5,0.5c-0.3,0.1-0.6,0.3-0.8,0.2
		c-0.9-0.2-1.7-0.5-2.7-0.9c0,0.6,0,1.1,0.1,1.6c0.1,1.7,0.2,1.8,1.9,1.9c0.4,0,0.7,0.3,1,0.5c-0.4,0.1-0.8,0.3-1.1,0.3
		c-2.3-0.2-2.4-0.3-2.7-2.6c-0.1-1.1-0.4-2.2-0.5-3.3c0-0.3,0-0.6,0-0.9c0.3,0.1,0.6,0.2,0.9,0.4c0.9-1.8,2.7-1.8,4.3-1.3
		c0.9,0.2,1.7,0.7,2.7,0.8c0.2,0,0.4,0.5,0.4,0.8c0,0.8-0.1,1.7-0.2,2.5c-0.1,1.3,0.3,1.8,1.5,1.9c1.1,0.1,2.1,0.2,3.2,0.4
		c0.2,0,0.3,0.2,0.5,0.4c-0.2,0.1-0.4,0.4-0.6,0.4c-1.4-0.1-2.7-0.1-4-0.4c-1.1-0.2-1.5-1.2-1.5-2.2c0-0.9,0.1-1.8,0.2-2.9
		c-0.3,0-0.6-0.1-0.9-0.1c-0.1,0.2-0.1,0.2-0.1,0.3c0.1,1.4,0.1,2.8,0.2,4.1c0,0.3-0.3,0.5-0.5,0.8c-0.1-0.3-0.4-0.6-0.3-0.9
		c0.2-1.5,0.2-3-0.4-4.5c-0.2-0.6-0.5-0.8-1.1-0.8C121.2,126.5,120.8,126.7,120.4,128.4z"/>
	<path class="st12" d="M205.5,128.4c-1.8-1.5-3.3-2.8-4.9-4.1c-0.1,0-0.2,0.1-0.4,0.1c0.1,1,0.2,2,0.4,3.1c0,0.4,0.2,0.7,0.2,1.1
		c0,0.2-0.1,0.4-0.2,0.6c-0.2-0.1-0.5-0.3-0.6-0.4c-0.2-1.6-0.4-3.1-0.5-4.7c-0.1-0.9,0.5-1.1,1.1-0.5c1.1,0.8,2.1,1.6,3.1,2.4
		c0.4,0.3,0.7,0.6,1.2,1c0.3-1.5,0.4-2.9,0.8-4.2c0.1-0.5,0.6-1.2,1.1-1.3c2.7-0.6,5.4-1.1,8.1-1.6c0.1,0,0.3,0.1,0.4,0.2
		c0,0.1,0,0.2,0.1,0.4c-0.5,0.1-1.1,0.3-1.6,0.4c-1.8,0.3-3.7,0.7-5.5,1c-1.3,0.2-1.8,0.9-1.9,2.2c-0.1,1.1-0.3,2.2-0.5,3.3
		C205.9,127.5,205.7,127.8,205.5,128.4z"/>
	<path class="st15" d="M176.6,126c0.1,0.1,0.3,0.1,0.4,0.2c0,0.2,0,0.5-0.1,0.7c-0.5,2.6,0.7,3.2,2.8,3.9c0.2,0.1,0.5,0.1,0.7,0.2
		c0,0.1,0,0.3,0,0.4c-0.5,0-1.1,0.3-1.4,0.1c-1.3-1-2.7-0.7-4.1-0.8c-1.1,0-2.2-0.1-3.2-0.4c-0.3-0.1-0.8-0.7-0.8-1
		c0-0.8,0.1-1.7,0.3-2.5c0.2-1.1-0.1-1.9-1.6-2c-0.1,1.8-0.2,3.6-0.3,5.4c-0.2,0-0.3,0-0.5,0c-0.8-1.9,0.2-4-0.3-5.9
		c1.2-0.7,2.3-0.3,3,0.5c0.4,0.4,0.5,1.3,0.5,2c0,0.9-0.3,1.7-0.5,2.9c1.6,0.1,3.1,0.2,4.7,0.2C176,128.5,175.6,127.2,176.6,126z"/>
	<path class="st12" d="M191,124.5c1.4-1.7,6.1-3.4,7.3-2.5c-0.6,0.2-1,0.4-1.5,0.5c-0.8,0.3-1.7,0.6-2.5,0.9
		c-0.2,0.1-0.5,0.4-0.4,0.6c0,0.2,0.3,0.4,0.5,0.5c1,0.2,2.1,0.4,3.2,0.6c0.3,0.1,0.6,0.3,0.8,0.4c-0.3,0.1-0.7,0.4-0.9,0.4
		c-1.1-0.1-2.2-0.4-3.5-0.7c0.3,1.2,0.4,2.3,0.8,3.4c0.4,1.1,2,1.4,3,0.7c0.3-0.2,0.8-0.3,1.2-0.4c-0.2,0.3-0.3,0.8-0.6,1
		c-1.5,1.3-3.8,0.6-4.5-1.2c-0.1-0.2-0.1-0.5-0.2-0.7C193.3,126.6,193.7,124.6,191,124.5z"/>
	<path class="st10" d="M150.1,131.2c2,0.1,3.9,0.3,5.8,0.4c0.1,0.1,0.1,0.1,0.2,0.2c-0.3,0.2-0.6,0.5-0.9,0.5
		c-1.6-0.1-3.3-0.2-4.9-0.3c-1.1-0.1-0.9-1-0.8-1.8c0.2-0.9,0.6-1.8,1-2.7c0.2-0.4,0.3-0.9,0.6-1.7c-1.1,0.3-2,0.5-3,0.7
		c0.5,2.1,0.6,4.1,0.5,6.1c-0.2,0-0.4,0-0.5,0c-0.3-2.2-0.6-4.5-0.9-6.8c1-0.2,2-0.6,3.1-0.8c1.4-0.3,1.7,0,1.4,1.4
		c-0.2,1-0.6,2-1,2.9C150.5,129.9,150.3,130.4,150.1,131.2z"/>
	<path class="st15" d="M112.9,127c0.3,1.3,0.6,2.5,0.9,3.8c0.1,0.3-0.1,0.6-0.1,0.9c-0.2-0.2-0.6-0.4-0.6-0.7
		c-0.4-1.3-0.7-2.7-1-4.1c-0.1-0.4,0-0.8,0.1-1.2c2.6,0.2,5.7,3,5.9,5.3c0,0.5-0.1,1.2-0.5,1.4c-1.4,0.9-2.8,1.8-4.3,2.6
		c-0.2,0.1-0.6,0-0.8,0c0-0.1-0.1-0.2-0.1-0.4c0.4-0.2,0.8-0.5,1.2-0.7c0.9-0.5,1.7-1,2.6-1.5c1.2-0.8,1.5-2.3,0.5-3.3
		c-1-1-2.2-1.7-3.3-2.5C113.1,126.9,113,126.9,112.9,127z"/>
	<path class="st15" d="M106.2,125.5c-2.3-1.6-5,0.3-4.9,2.5c0,1.1-0.1,2.3,0,3.4c0,0.8,0.6,1.1,1.4,1.2c0.5,0.1,0.9,0.4,1.3,0.8
		c-3,0-3.1-0.3-4-2.9c-0.4-1.1-0.5-2.2-0.1-3.5c0.7-2,2.3-2.6,4.1-3.1C105,123.8,105.6,124.5,106.2,125.5z"/>
	<path class="st12" d="M110.3,127c0.2,0.9,0.3,1.4,0.5,1.9c0.4,0.7,0.3,1.3-0.3,1.8c-0.4,0.4-0.9,0.8-1.3,1.2
		c-1.3,0.9-3,0.8-4.1-0.2c-0.5-0.5-0.4-3.3,0.3-3.6C107,127.4,108.7,126.8,110.3,127z M109.3,127.8c-1.1,0.3-2.1,0.5-3,0.9
		c-0.7,0.3-0.9,2.1-0.3,2.6c1,0.8,1.9,0.6,3.2-0.4c1-0.7,1.1-1.4,0.4-2.4C109.5,128.3,109.5,128.1,109.3,127.8z"/>
	<path class="st15" d="M162.5,127.5c0.1-1.3,0.2-2.3,0.3-3.4c-0.5,0.1-0.9,0.1-1.4,0.2c0.2-0.4,0.2-0.7,0.4-0.8
		c1.3-0.9,2.8-0.8,4.3-0.5c0.1,0,0.4,0.7,0.2,0.9c-0.5,0.9-1,2-1.8,2.6c-0.8,0.7-0.9,1.3-0.6,2.2c0.1,0.3,0.3,0.7,0.3,1
		c0,0.2-0.1,0.5-0.1,0.7c-0.2-0.1-0.5-0.2-0.6-0.4c-0.2-0.4-0.3-0.9-0.5-1.3C162.7,128.3,162.6,127.7,162.5,127.5z M163.7,126
		c0.1,0,0.1,0.1,0.2,0.1c0.5-0.7,1-1.4,1.6-2.2c-0.8,0-1.3,0-1.8,0C163.7,124.6,163.7,125.3,163.7,126z"/>
	<path class="st12" d="M143.6,126c-0.5,0.4-1,0.9-1.5,1.3c-0.1-0.1-0.2-0.2-0.3-0.3c0.3-1.1,1.3-1.7,2-2.4c0.8-0.9,1.6-0.6,2.3,0.1
		c0.5,0.5,0.7,1,0.2,1.6c-0.3,0.4-0.5,0.9-0.9,1.3c-1.1,0.9-1.1,2-0.9,3.3c0.1,0.4,0.1,0.8,0,1.2c0,0.2-0.3,0.4-0.4,0.6
		c-0.1-0.2-0.4-0.4-0.4-0.6c0-1.9,0.1-3.8,0.1-5.7c0.1-0.2,0.1-0.4,0.2-0.6c1-0.3,0.7,0.5,0.7,1.3c0.4-0.7,0.7-1.1,1-1.5
		c-0.4-0.3-0.6-0.5-0.9-0.7c-0.2,0.2-0.4,0.3-0.5,0.4c-0.1,0.1-0.2,0.3-0.4,0.5C143.8,125.8,143.7,125.9,143.6,126z"/>
	<path class="st12" d="M157,130.7c-1.3-0.3-2.4-0.4-3.4-0.7c-0.8-0.2-1-0.7-0.3-1.4c1.2-1,2.4-2.1,4.1-1.5c0.5,0.2,1,0.6,1.3,1.1
		c0.3,0.5,0.7,1.6,0.6,1.7C158.6,130.3,157.7,130.5,157,130.7z M158.5,129.8c-1.8-2.4-2.8-2.5-4.5-0.3
		C155.5,129.6,156.8,129.7,158.5,129.8z"/>
	<path class="st12" d="M210.7,125.3c0-1,0-1.9,0-2.9c0-0.3,0.3-0.7,0.4-1c0.2,0.3,0.4,0.6,0.4,0.9c0,1.6-0.1,3.2-0.1,4.8
		c0,0.8-0.3,1.9,1.1,1.9c0.1,0,0.2,0.5,0.1,0.6c-0.4,0.5-1.8,0.1-1.9-0.6c-0.1-1.3-0.1-2.5-0.2-3.8
		C210.6,125.3,210.7,125.3,210.7,125.3z"/>
	<path class="st16" d="M109.3,127.8c0.2,0.4,0.2,0.6,0.3,0.7c0.7,0.9,0.6,1.7-0.4,2.4c-1.3,1-2.2,1.1-3.2,0.4
		c-0.6-0.5-0.5-2.3,0.3-2.6C107.2,128.3,108.2,128.1,109.3,127.8z"/>
	<path class="st16" d="M163.7,126c0-0.7,0-1.4,0-2.1c0.5,0,1,0,1.8,0c-0.6,0.8-1.1,1.5-1.6,2.2C163.8,126.1,163.8,126,163.7,126z"/>
	<path class="st16" d="M143.9,125.7c0.1-0.2,0.2-0.3,0.4-0.5c0.1-0.1,0.3-0.2,0.5-0.4c0.3,0.2,0.6,0.4,0.9,0.7
		c-0.3,0.4-0.6,0.9-1,1.5C144.7,126.3,145,125.5,143.9,125.7C144,125.8,143.9,125.7,143.9,125.7z"/>
	<path class="st14" d="M143.6,126c0.1-0.1,0.2-0.2,0.4-0.3c0,0,0.1,0.1,0.1,0.1c-0.1,0.2-0.1,0.4-0.2,0.6
		C143.7,126.2,143.6,126.1,143.6,126z"/>
	<path class="st16" d="M158.5,129.8c-1.7-0.1-3-0.2-4.5-0.3C155.7,127.3,156.7,127.4,158.5,129.8z"/>
</g>
</svg>
