<?xml version="1.0" encoding="utf-8"?>
<!-- Generator: Adobe Illustrator 23.0.2, SVG Export Plug-In . SVG Version: 6.00 Build 0)  -->
<svg version="1.1" xmlns="http://www.w3.org/2000/svg" xmlns:xlink="http://www.w3.org/1999/xlink" x="0px" y="0px"
	 viewBox="0 0 85 623" style="enable-background:new 0 0 85 623;" xml:space="preserve">
<style type="text/css">
	.st0{enable-background:new    ;}
	.st1{fill-rule:evenodd;clip-rule:evenodd;fill:#303237;}
	.st2{fill-rule:evenodd;clip-rule:evenodd;fill:#121212;}
	.st3{fill:#CB00AC;}
</style>
<g id="fatCloud2" class="st0">
	<g id="fatCloud2_1_">
		<g>
			<path class="st1" d="M243.3,456.4c0,0,7.8-22.9-4.9-21c0,0,0.1-7.9-6.1-3.2c0,0,0.1-3.4-2.3-1.2c0,0,1.4-26.5-22.1-20.5
				c0,0-11.4,5.3-10.8,18.5c0.3,1.2,0.3,2.8,0.3,2.8c-0.2-1-0.3-1.9-0.3-2.8c-0.3-1.2-1-2-2.3-0.6c0,0,4.7-14.4-3.2-13
				c0,0-4.1-3.7-2.9,1.8c0,0-1.2-2.8-2.8-2.1c-0.7,0.6-1.1,1-1.1,1c0.4-0.5,0.8-0.8,1.1-1c3-2.6,10.2-9.8,3.4-11.6
				c0,0-4.4-15.2-12.6-4.7c0,0,9.3-40.6-38.7-12.6c0,0-23.4-15.7-24.5,6.1c0,0-46.9-6.7-27.9,15.7c0,0-14.5-6.7-7.2,7.8
				c0,0-33.5-25.7-42.4-12.3c0,0-13.9,20,3.4,27.3c0,0-14-4.4-12.9,8.4c0,0-23.4,1.8-32.9,5.3c-1.2,0.4-2.1,0.9-2.8,1.4
				c-6.2,4.5-12.3,9.5-12.3,9.5s-3.3,3.4,5,6.7l141.2,1.8c0,0,135.2,1.9,151.3,0.8C292.1,463.6,247.1,456.5,243.3,456.4z"/>
		</g>
	</g>
</g>
<g id="fatCloud1" class="st0">
	<g id="fatCloud1_1_">
		<g>
			<path class="st1" d="M163.9,260.7c-11-35.8-24.4-21.2-24.4-21.2s-7.7-17.1-18.3-3.3c0,0-24.8-31.8-49.5,0c0,0-6.5,10.1-1.3,17.4
				c-0.6-0.8-7.6-11.1-16.2-5.2c0,0-5.7,3.2,0,7.3c0,0-10.2,0.4-5.7,9c4.5,8.5,7.7,0.8,7.7,0.8s3.2,15.9,11.4,11.8
				c0,0-15.8,10.2-13.8,18.3c0,0-6.9-20.8-20.3-16.3c-13.4,4.5-9.7,19.6-1.2,22.4c0,0-8.5-3.3-11,5.3c0,0,0.4-13-11.4-8.5
				s-5.3,8.1-5.3,8.1s-9.3-1.6-7.7,3.3c0,0-20.7-8.6-26.4,12.2c-5.7,20.8,11.8,18.7,11.8,18.7s-11.1,4.2-13.4,9
				c-0.2,1.4-0.4,2.4-0.4,2.4c-0.2-0.8,0-1.6,0.4-2.4c0.5-4.2,0.8-12.3-5.3-10.2c0,0-8.5-4.9-15.8,6.9c0,0-15.9-17.9-34.5-4.1
				c-18.7,13.8,1.2,15.9,1.2,15.9s-18.7,4.5-17.1,8.1c1.6,3.7,44.3,8.5,44.3,8.5s-3.7,17.9,15,5.3c0,0,20.7,28.9,33.3-10.6
				c0,0,37,24.4,33.7-17.9l75.9,0.8c0,0,17.1,13.8,17.9-13.8c0,0,8.1,8.6,12.2-4.9c4.1-13.4-9.3-7.3-9.3-7.3s13.4-11,4.1-16.7
				c0,0,22.3-3.7,5.7-16.7C130.2,293.3,174.9,296.5,163.9,260.7z"/>
		</g>
	</g>
</g>
<g id="cloud03" class="st0">
	<g id="cloud03_1_">
		<g>
			<path class="st1" d="M83.9,159.1c0,0-0.1-4.2-5.1-1.6c0,0,3-9.3-5.6-8.2c0,0-10.8-11-17.9,8.6c0,0-22.6-2.4-17.7,13.1
				c0,0.1,0,0.1,0,0.1c0,0,0-0.1,0-0.1c-0.2-0.5-0.9-2.2-3.3-1.5c0,0-2.8,1.8-0.5,3.8c0,0-7.2-3.4-9.1,3.3c0,0-0.3-2.7-1.7-1.4
				c-1.1,1-0.2,1.6,0.3,1.8c0.1,0,0.2,0.1,0.2,0.1s-0.1,0-0.2-0.1c-0.5-0.2-1.9-0.5-1.3,1.7c0,0-2.4-4-3.2-0.7s1.7,1.4,1.7,1.4
				s-0.9,1.8,0.1,2c0.6-0.1,0.9-0.2,0.9-0.2c-0.4,0.2-0.7,0.2-0.9,0.2c-1.5,0.3-4.6,1.2-6.4,3.1c0,0,0.8-6.3-2.9-5.7
				c0,0-6-0.6-4.1,4.5c0,0,0.5,2.3,2.6,2.2c0.3-0.1,0.5-0.1,0.5-0.1c-0.2,0-0.4,0.1-0.5,0.1c-0.8,0.1-2.3,0.4-3.2,1
				c0,0,0.4-2-1.4-1.2c0,0-0.9,1.1,0.7,1.7c0,0-2.5-0.1-3.8,1.6s63.4,1.2,63.4,1.2s11.8,0.4,11.1-3.3c0,0,6-1.2,3.3-7.2
				c-2.8-6-7-0.6-7-0.6s0.3-2.7-1.4-2.3c-0.5,0.1-0.9,0.2-1.2,0.4c-0.5,0.4-1,0.6-1,0.6s0.3-0.3,1-0.6c1.1-0.8,2.8-2.5,1.8-5.1
				c0,0-0.4-1.1-1.3-1.7c-1-0.3-1.7-0.5-1.7-0.5c0.7,0,1.3,0.2,1.7,0.5c3.2,0.9,9.9,2,12-3.1c0,0,0.6-1.1-1.2-3c0,0-0.5-1.6-2.2-1.8
				c-0.9,0.1-1.5,0.2-1.5,0.2c0.6-0.2,1.1-0.2,1.5-0.2C81.1,161.5,84.7,160.7,83.9,159.1z"/>
		</g>
	</g>
</g>
<g id="Tour1_1_" class="st0">
	<g id="Tour1">
		<g>
			<path class="st2" d="M85,598.4c-0.5-0.7-1.2-1-1.2-1c1.2,1.6-0.4,2.3-0.4,2.3c-2.4-0.9-0.9-5.4-0.9-5.4c-1.5-1.4-2.2,1.2-2.2,1.2
				c-0.6-1.3-1.4,0-1.4,0l0.6-1.7l-2.5-1.9l-1.2,1c-1.1-3-1.8-1.8-1.8-1.8c-0.6-0.3-0.6,1.2-0.6,1.2c-1.7-2.8-3.9,0.7-3.9,0.7
				l0.9-2.8l-2.1-1.2l-2.4,2.3c-1.4-0.8-1.2,2.2-1.2,2.2l-1.4-0.4c0.6-6-6.3-4.3-6.3-4.3l0.1-5.9c1-5,10.3-11,10.3-11l-0.2-0.8
				l-0.9-0.2l0.1-1l-2.2,0.1c-1.3-1.4,0.3-22.2,0.3-22.2l0.6-0.3c-0.2-4.5,3.2-24.3,3.2-24.3l-1.4-0.1c0.3-0.3,0.8-2.2,0.8-2.2
				l1.5-0.1v-2l-0.8-0.3v-3.1l1.7-1l-0.2-1.7l-1.4,1.1l-0.2-2.1l1.9-1.3l-0.4-1.4l-1.6,1.4c-0.1-0.6-0.3-1.4-0.3-1.4l1.8-1.9
				l-0.3-0.6l-1.9,1.5c-0.5-3.1-2.7-6.1-2.7-6.1c0.6,0.1,3.9-3,3.9-3l-0.2-1.8l-1.4-0.5c-0.9,2.6-8.8,7-8.8,7
				c0.5-2.7-1.9-1.4-1.9-1.4c-0.5-0.8,0.9-14.1,0.9-14.1l3.9-0.6l0.1-1.1c-4.4-2.4-4.5-12.4-4.5-12.4h-0.6l-0.1-4.9
				c1.1-1.4-0.5-1.7-0.5-1.7c-1.4,1,0,1.7,0,1.7v4.7l-0.8,0.1l-0.7-1.2l-7,0.6l0.2-9.3l1.6-0.1l0.2-2.1l-2.1,0.1
				c-0.6-1.8,1.2-11.3,1.2-11.3c3-8.6,24.8-19.9,24.8-19.9l2.2-8.6h-1l-0.9,3l-1.3-0.4c-0.8-1.5,1-9,1-9c-2.1,0.3-3.9-0.5-3.9-0.5
				c1.2-0.2,0.9-1.1,0.9-1.1l-0.7-0.2c-0.7-1.5,0.9-7.6,0.9-7.6c0.7-0.1,0.7-1.7,0.7-1.7c-0.4-3.7-3.9-5.4-3.9-5.4l1.9-2.6
				c0.7-0.4-0.1-1.2-0.1-1.2l-1.3-0.4c0.2-10.6,5.9-10.1,5.9-10.1l0.2-1l-1.1-0.8l0.4-3.9l0.5,0l-0.2-1.1c-0.4,0-1.2-1-1.2-1
				l0.4-7.9c0.8,0,1.7-1.5,1.7-1.5l0.8,0.8l0.4-0.6l-1-1.1c-11-11.3-11.8-20.2-11.8-20.2l0.9-0.4l-0.2-0.4l-1,0.1l-0.4-1l1-0.3
				c-1-1.1-1-4.5-1-4.5l-1.9-0.1c-1.5-0.9-3.8-9.9-3.8-9.9l-1,0c-0.1-0.5-0.8-0.8-0.8-0.8l0.8-0.5l-0.7-0.3
				c-0.5-0.5-0.6-3.5-0.6-3.5l-0.6,0.1c0.1,0.9-0.3,3.6-0.3,3.6l-0.7,0.3c0,0,1.9,0.2,1.3,0.2c-0.6,0-0.8,0.8-0.8,0.8l-0.9-0.1
				c-7.8,21.1-12.9,24.7-12.9,24.7l0.4-9.8c5.1-2.9,4.5-6.9,4.5-6.9c1-0.7,0-1.2,0-1.2l0.6-17.6l1.8-0.1l0-1l-1.9,0
				c-0.1-2.1,0.9-2.6,0.9-2.6H46c0-1.6,1.1-1.3,1.1-1.3l0.1-1c-1.3-0.9-3.1-7.6-3.1-7.6c-0.4-0.9,2.4-4,2.4-4l1.1-0.5l0.6-4.6
				c-1.5-0.4-1.3-0.8-1.3-0.8c-0.7-1.2,1.6-17.3,1.6-17.3l0.2,0.1c0.5-0.2-0.1-1.3-0.1-1.3c-8.7-0.6-11.7-3.9-11.7-3.9l0.2-2.3
				c-0.1-0.5,9.9-0.9,9.9-0.9l0.1-1.6l-9.1,0.2v-0.2l-1.1,0l-0.1-1.3l0.5-0.1l-0.2-2.1h-0.4l-0.1-2.4c-0.3-0.7,3.5-4.4,3.5-4.4
				l0.2,0.1l0.1-0.3l0.5,0.1l-0.2,1.3l0.2,0l0.2-1.1l1,0.6l-0.2,1.2h0.2l0.2-1.2l0.8,0.6l-0.1,1.3l0.2,0.1l0.1-1.2l0.2,0.1l0.1-0.3
				l-0.2-0.1l0.1-0.9l-0.1-0.2v-0.6l-0.2-0.1l-0.2,1.4l-0.7-0.6l0.1-1.3l-0.2,0l-0.1,1.2l-1-0.6l0.4-1.4l-0.1-0.1l-0.4,1.4l-0.3-0.2
				l0.1-0.1l0-0.1l-0.2,0.1l-0.4-0.4l0.2-1.3l-0.2-0.1l-0.2,1.2l-0.7-0.7l0.3-1.2l-0.3,0l-0.2,0.9l-0.2-0.1l-0.2,0.3l0.2,0.2l-0.3,1
				l0.3,0l0.3-0.9l0.8,0.8l-0.2,0.6l0.2,0l0.1-0.5L40,258l-3.5,3.8l-0.4-5.9c1.6-0.1,0.9-2.2,0.9-2.2h-0.9l0.1-2.8
				c2.9,0.3,2.5-1.4,2.5-1.4l0.6-0.3c-0.5-0.6-0.7-2.7-0.7-2.7c-0.1,0.7-1.6,2.2-1.6,2.2l0.6,0.4c-1.5,0.2-1.2-0.1-1.2-0.1
				c-0.3-0.8,0.7-2.9,0.7-2.9l1-3.4l-0.4-1.8l2.5-1.3c0.9-1.3-1.3-2.2-1.3-2.2l-1.3,0.5c-0.2-1,0-8.8,0-8.8l0.2-0.1
				c0.8-0.7,0-1.6,0-1.6c-2.3-3.3-4.1-8.2-4.1-8.2c2.4-10,25.2-17.8,25.2-17.8l10.1-1.2c1.4,0.2,4.2-0.6,4.2-0.6l3.8-3.9
				c0.5,0,0.7-1.1,0.7-1.1h-1.2c-0.8-0.7,0.4-1.1,0.4-1.1v-2.6h0.3l-0.7-1.5l-0.5,1.4l0.5,0.1v1.2l-6.7-0.6l0.1-4.4
				c0-1.7,2.1-2.4,2.1-2.4c1.2-0.2,0.8-1.4,0.8-1.4l0.6-0.3V183l-1.1-0.3c-2.4-7.7-9.2-7.2-9.2-7.2c-3.4-0.9-31.2,0-31.2,0
				c-3.9-4.6-6.7-4-6.7-4c-0.2-0.4-0.8-0.8-0.8-0.8c-0.3-0.8-0.8-0.7-0.8-0.7l-0.3-5.3c0,0.7-0.4,5.3-0.4,5.3
				c-0.8,0-0.7,0.7-0.7,0.7c-0.5,0.1-0.9,0.7-0.9,0.7c-7,0.2-8.4,5.7-8.4,5.7c-5.9,3.3-4.6,10.8-4.6,10.8c-1.1,0.1-0.7,1.4-0.7,1.4
				l1.2,0.8c0.4,0.8,0.4,4,0.4,4l-1,0.5L8.2,197l0.5,0.1c-1.5,0.2-1.2,3.3-1.2,3.3H8c0.3,2.8,8,3.6,8,3.6l0.2,3.5
				c0,0.5-0.7,1.3-0.7,1.3l0.6,0l0.2,1.8c0,0.5-0.5,1.2-0.5,1.2h0.3l-0.1,5.7c0.1,1.4-4.6,9.5-4.6,9.5c-1.4,0.6,0,1.7,0,1.7l0.2,5.9
				c-0.7,2.4-1.8,3-1.8,3l0,0.6l1.2-0.1c0.1,0.4,0.1,2.6,0.1,2.6l-0.9,0.1v0.7l0.3,0.1l0,0l0.3,0.1l-0.3-0.1l0,1.3h0.8
				c0.4,0.6,0.2,3.1,0.2,3.1l0.5,0v1.3l0.5,0.2l-0.2,6.1c-1.1-0.1-0.7,0.9-0.7,0.9c-0.6-0.2-0.1,1.2-0.1,1.2l-0.6-0.1v0.3h0.9l0,0.6
				c-1.2,4.4-5.3,8.2-5.3,8.2c-0.2,0.2,0,0.5,0,0.5H7l0.4,1.1l1.1-0.2l0.3,8.2L8,275.2l0.2,2l0.6-0.1l0.2,1.9
				c1.3-0.5,2.2,0.8,2.2,0.8l0.3,2.5l-0.8,0.3l0.4,1.7l0.4,0.1l0.3,3h-0.5l0.1,1.4l0.3,0.3v1.4v0.6h-0.1l-0.2,1.8l0.4,0.1l0.2,0.8
				l-0.7-0.1l0.1,1.1c-0.3,1.4,0.8,1.1,0.8,1.1l0,0.3l-0.2,0.1l0.3,1.7l0.4,2.7c0,0-0.6-0.4-0.5,0.9s0.5,0.9,0.5,0.9l0.2,0.5h-0.9
				l0.3,0.2l0,2.5l-0.1,0l-0.1,0.3l-0.3,0l0,0.2l0.9,0l0,0.6h-0.5c-0.4-0.1,0-0.3,0-0.3c-0.5,0.1-0.2,0.5-0.2,0.5l0.7,0
				c-0.3,0,0,10,0,10l-0.5,0l0.1,1.6l0.2,0c-0.1,1,0.3,1.2,0.3,1.2c0,0.4,0.4,0.4,0.4,0.4l0.1,5.5c0,1.4-1.2,3.5-1.2,3.5l0,0.3h0.6
				l0.2,1.5l-2,1.8l-1.7-2.3L8.9,331l1.3,2.4l2.4,7.9c-3.2-0.1-3.9,2.2-3.9,2.2l0.1,28.8c0.1,1.9,1.5,3.3,1.5,3.3l0,1l0.8,0
				c1.4,1.4,1,1.9,1,1.9l1,0c0.1,1.1,0.8,1.9,0.8,1.9l-0.2,4.8l-0.5,0.3l0.1,0.8l0.5,0.3l-0.2,6.1c-0.9,1.3-0.4,2.9-0.4,2.9l-5,0.1
				l0.1,0.5l5.3-0.1l0,4.1l-0.4,2.3h-0.4l0,0.4l0.4,0v2.5c0,0.8-0.3,1.1-0.3,1.1c0,2.2,0.3,2.1,0.3,2.1l0,0.3
				c-1.1,0.2-1.2,1.3-1.2,1.3h-0.1v0.1l-0.2,0c-0.1,0.1,0,0.2,0,0.2H12l-1.8,0.6l-0.1-0.3l0,0l0.1,0.3l-0.4,0.1l0,0.1l0.4-0.1
				l0.1,0.2l-0.3,0.1l0,0l0.3,0l0,0.1l-0.3,0.1l0,0l0.3,0l0,0.1l-0.3,0.1l0,0l0.2-0.1l0.1,0.1l-0.3,0.1l0,0l0.2-0.1l0.1,0.1l0,0
				l-0.1-0.1l0.3-0.1l0,0l-0.3,0.1l-0.1-0.1l0.3-0.1l0,0l-0.3,0.1l0-0.1l0.3-0.1l0,0l-0.3,0.1l-0.1-0.1l0.4-0.1l0,0l-0.4,0.1
				l-0.1-0.2l1.8-0.6l0.4,2.5c-0.1,0.2-0.5,0.3-0.5,0.3l0.1,1.9h0.5c0.4,0.9,0.8,0.9,0.8,0.9l-0.5,0.1c0,0-0.3,0.1,0,0.3
				c0.3,0.2,0.3,0.6,0.3,0.6l-0.3,0v0.5l0.2,0.2c-1.1,1.7-0.4,5.3-0.4,5.3l-0.3,0l-2.6,0c-0.3,0.1,0,0.4,0,0.4h2.5l0.7,0.8l0.9-0.5
				c0,1.8,1,2.9,1,2.9l0.1,3.1c-2,1.5-0.7,3.1-0.7,3.1c-0.3,0.6,0.2,1.3,0.2,1.3l1.2-0.1l0,5.1c-1.1,0.9-1.1,2.9-1.1,2.9H16l0.1,9.8
				l-0.8,0l0,1.5l0.7,0.1v9.5c1,3-7.6,18.3-7.6,18.3l0.6,0.9l0.1,0.2l1,0c0,0,0,8.1,0,9c0,0.8-1.1,1.4-1.1,1.4l0.3,0.5l0.2,11.5
				L9,505.5c-0.3,0.1-0.1,2.1-0.1,2.1c0.3,0.2,1.6,0.3,1.6,0.3l-0.1,3.8c1.4,2.2,3.1,1.5,3.1,1.7c0,0.2,0.4,0.4,0.4,0.4
				c2.1,0,1.9,0.5,1.9,0.5l0.3,4.3l-0.4,0.1l0.1,1l0.3,0l-0.2,5.3l-1.2,0.5l0.4,3.4l0.9,0.8l0.9,21.4l-0.5,6.9l0.3,0.5
				c-0.9-0.5-0.6,0.4-0.6,0.4s-1.1,0.9-1.3,2.6c-0.2,1.7,0.4,2,0.4,2l0.2,20.5c-1.8-1-2.5,2-2.5,2c-1.1-0.3-1.2,1.1-1.2,1.1
				c-0.7-0.6-1.4,0-1.4,0c-0.7-0.5-0.9,0.1-0.9,0.1c-2.1-0.8-1.8,2.1-1.8,2.1c-0.7,0-0.4,0.6-0.4,0.6c-0.4-0.2-0.4,0.3-0.4,0.3
				c-0.7-0.8-1.5,0-1.5,0c-1.6-0.3-3.7,0.6-5.1,1.3V623h85V598.4z"/>
		</g>
	</g>
</g>
<g id="cloud02" class="st0">
	<g id="cloud_x5F_02_1_">
		<g>
			<path class="st1" d="M68.9,67.8c0,0,2.9-2.1,1.2-3.4c-1.7-1.3-5-2.3-7,0.8c0,0,1.6-3-1-1.7c0,0,4-2.9,1.1-5.3c0,0,1.2-2.4-1.6-1
				c0,0-3.8-5.7-9-0.7c0,0-1.3-1.8-3,0c0,0-2.3,0.9-0.7,2c0,0-3.2,0.2-2.8,3.2c0,0-3.4-3.8-6-2s-4.1,5.7,0.3,10.6
				c0,0-1.4-0.4-1.5,1.2c0,0-2.8-5.7-6.3-3.8c0,0-2.2,2.6-0.8,4.7c0,0-4-2.8-6.1,0.3c0,0,0-1.2-0.7-0.3c0,0-0.7-4-3.9-1.5
				c0,0-5.5-2.9-6.7,2.4c0,0-3.3-2.2-4.9,0.7c0,0-6.3,1.3-6.7,2.7c-0.4,1.3,32.7,0.1,34.1,0.1c0,0-0.5,1.5,2,0.9
				c0,0-1.1,5.3,8.2,3.1c0,0-0.3,3.7,3.8,2.1c0,0,3.7-1.9,0.8-4.6c0,0,0.9,0.5,1.6-0.6c0,0,0.3-0.9-0.2-1.2c-0.3,0-0.5-0.1-0.5-0.1
				c0.2,0,0.4,0,0.5,0.1c0.7,0,2.2-0.2,3.7-1.9c0,0-1.3,2.2,1.3,2.2c0,0,2-1.1,0.6-2.3c-0.4-0.2-0.6-0.4-0.6-0.4
				c0.2,0.1,0.4,0.3,0.6,0.4c0.7,0.4,2.1,0.8,3.2-0.8c0,0,2.8,5.1,6.7,0.9c0,0,1.4-2.1-0.2-3.3c0,0,2.8-0.2,1-1.2
				C69.7,69.7,71.7,66.4,68.9,67.8z"/>
		</g>
	</g>
</g>
<g id="cloud01" class="st0">
	<g id="cloud01_1_">
		<g>
			<path class="st1" d="M76.9,38.5c0,0,2.2-6.4-1.4-5.9c0,0,0-2.2-1.7-0.9c0,0,0-1-0.7-0.3c0,0,0.4-7.4-6.2-5.7c0,0-3.2,1.5-3,5.2
				c0.1,0.3,0.1,0.8,0.1,0.8c0-0.3-0.1-0.5-0.1-0.8c-0.1-0.3-0.3-0.6-0.7-0.2c0,0,1.3-4-0.9-3.6c0,0-1.1-1-0.8,0.5
				c0,0-0.3-0.8-0.8-0.6c-0.2,0.2-0.3,0.3-0.3,0.3c0.1-0.1,0.2-0.2,0.3-0.3c0.8-0.7,2.9-2.8,1-3.3c0,0-1.2-4.3-3.5-1.3
				c0,0,2.6-11.4-10.8-3.5c0,0-6.6-4.4-6.9,1.7c0,0-13.1-1.9-7.8,4.4c0,0-4.1-1.9-2,2.2c0,0-9.4-7.2-11.9-3.4c0,0-3.9,5.6,0.9,7.7
				c0,0-3.9-1.2-3.6,2.4c0,0-6.6,0.5-9.2,1.5c-0.3,0.1-0.6,0.3-0.8,0.4c-1.7,1.2-3.4,2.7-3.4,2.7S1.7,39.1,4,40.1l39.6,0.5
				c0,0,37.9,0.5,42.4,0.2C90.5,40.5,77.9,38.5,76.9,38.5z"/>
		</g>
	</g>
</g>
<g id="tourelleWindow03" class="st0">
	<g id="tourelleWindow03_1_">
		<g>
			<path class="st3" d="M66.3,366.4l-0.1,8l4.3,2.5l0.4-8.6C70.2,365.6,66.3,366.4,66.3,366.4z"/>
		</g>
	</g>
</g>
<g id="tourelleWindow02" class="st0">
	<g id="tourelleWindow02_1_">
		<g>
			<path class="st3" d="M63.7,366.3c0,0-2.1-3.8-7.8-3.6c0,0-5.8-0.6-5.2,3l0,6.2l13.2,1.8L63.7,366.3z"/>
		</g>
	</g>
</g>
<g id="tourelleWindow01" class="st0">
	<g id="tourelleWindow01_1_">
		<g>
			<path class="st3" d="M47.3,363.8c0,0-2.2-1.6-5.5-1.5c0,0-4,1.4-4,2.6l0.2,8l9.6-1.1L47.3,363.8z"/>
		</g>
	</g>
</g>
<g id="entrance" class="st0">
	<g id="entrance_1_">
		<g>
			<path class="st3" d="M50.6,574.5c-0.2-0.5-1.4-1.2-1.4-1.2c-3,1-7.3,8.9-7.3,8.9l-0.7,8.4l9.2,0.6
				C50.5,591.1,50.8,575,50.6,574.5z"/>
		</g>
	</g>
</g>
<g id="verriereWindow04" class="st0">
	<g id="verriereWindow04_1_">
		<g>
			<path class="st3" d="M44.9,185.6c-5.3,0.3-4.1,8.5-4.1,8.5l8.1-0.2C48.6,185,44.9,185.6,44.9,185.6z"/>
		</g>
	</g>
</g>
<g id="verriereWindow05" class="st0">
	<g id="verriereWindow05_1_">
		<g>
			<path class="st3" d="M54.7,185.4c-5.3,0.1-4.4,8.4-4.4,8.4l8.1,0.1C58.5,185,54.7,185.4,54.7,185.4z"/>
		</g>
	</g>
</g>
<g id="verriereWindow06" class="st0">
	<g id="verriereWindow06_1_">
		<g>
			<path class="st3" d="M64.2,185.4c-5.3,0.1-4.4,8.4-4.4,8.4l8.1,0.1C68,185,64.2,185.4,64.2,185.4z"/>
		</g>
	</g>
</g>
<g id="verriereWindow01" class="st0">
	<g id="verriereWindow01_1_">
		<g>
			<path class="st3" d="M16.2,185.8c-5.3,0.3-4.1,8.5-4.1,8.5l8.1-0.2C20,185.2,16.2,185.8,16.2,185.8z"/>
		</g>
	</g>
</g>
<g id="verriereWindow02" class="st0">
	<g id="verriereWindow02_1_">
		<g>
			<path class="st3" d="M26,185.6c-5.3,0.1-4.4,8.4-4.4,8.4l8.1,0.1C29.8,185.2,26,185.6,26,185.6z"/>
		</g>
	</g>
</g>
<g id="verriereWindow03" class="st0">
	<g id="verriereWindow03_1_">
		<g>
			<path class="st3" d="M35.6,185.6c-5.3,0.1-4.4,8.4-4.4,8.4l8.1,0.1C39.3,185.2,35.6,185.6,35.6,185.6z"/>
		</g>
	</g>
</g>
<g id="rdcWindowPart01" class="st0">
	<g id="rdcWindowPart01_1_">
		<g>
			<polygon class="st3" points="55.1,530.9 55,542.4 60.3,542.2 60.3,530.8 			"/>
		</g>
	</g>
</g>
<g id="rdcWindowPart02" class="st0">
	<g id="rdcWindowPart02_1_">
		<g>
			<path class="st3" d="M58.1,527.6c0,0-2.5,0-2.7,2.3l4.8-0.1C60.3,529.8,60.4,527.8,58.1,527.6z"/>
		</g>
	</g>
</g>
</svg>
