<?xml version="1.0" encoding="utf-8"?>
<!-- Generator: Adobe Illustrator 23.0.2, SVG Export Plug-In . SVG Version: 6.00 Build 0)  -->
<svg version="1.1" xmlns="http://www.w3.org/2000/svg" xmlns:xlink="http://www.w3.org/1999/xlink" x="0px" y="0px"
	 viewBox="0 0 85 732.8" style="enable-background:new 0 0 85 732.8;" xml:space="preserve">
<style type="text/css">
	.st0{enable-background:new    ;}
	.st1{fill-rule:evenodd;clip-rule:evenodd;fill:#010101;}
</style>
<g id="Calque_42_xA0_Image_1_">
</g>
<g id="Fond_1_1_" class="st0">
	<g id="Fond_1_3_">
		<g>
			<path class="st1" d="M85.5,711c0.2-2.3-1.8-3.2-1.8-3.2c1.2,1.6-0.4,2.3-0.4,2.3c-2.4-0.9-0.9-5.4-0.9-5.4
				c-1.5-1.4-2.2,1.2-2.2,1.2c-0.6-1.3-1.4,0-1.4,0l0.6-1.7l-2.5-1.9l-1.2,1c-1.1-3-1.8-1.8-1.8-1.8c-0.6-0.3-0.6,1.2-0.6,1.2
				c-1.7-2.8-3.9,0.7-3.9,0.7l0.9-2.8l-2.1-1.2l-2.4,2.3c-1.4-0.8-1.2,2.2-1.2,2.2l-1.4-0.4c0.6-6-6.3-4.3-6.3-4.3l0.1-5.9
				c1-5,10.3-11,10.3-11l-0.2-0.8l-0.9-0.2l0.1-1l-2.2,0.1c-1.3-1.4,0.3-22.2,0.3-22.2l0.6-0.3c-0.2-4.5,3.2-24.3,3.2-24.3l-1.4-0.1
				c0.3-0.3,0.8-2.2,0.8-2.2l1.5-0.1v-2l-0.8-0.3v-3.1l1.7-1l-0.2-1.7l-1.4,1.1l-0.2-2.1l1.9-1.3l-0.4-1.4l-1.6,1.4
				c-0.1-0.6-0.3-1.4-0.3-1.4l1.8-1.9l-0.3-0.6l-1.9,1.5c-0.5-3.1-2.7-6.1-2.7-6.1c0.6,0.1,3.9-3,3.9-3l-0.2-1.8l-1.4-0.5
				c-0.9,2.6-8.8,7-8.8,7c0.5-2.7-1.9-1.4-1.9-1.4c-0.5-0.8,0.9-14.1,0.9-14.1l3.9-0.6l0.1-1.1c-4.4-2.4-4.5-12.4-4.5-12.4h-0.6
				L56,579c1.1-1.4-0.5-1.7-0.5-1.7c-1.4,1,0,1.7,0,1.7v4.7l-0.8,0.1l-0.7-1.2l-7,0.6l0.2-9.3l1.6-0.1l0.2-2.1l-2.1,0.1
				c-0.6-1.8,1.2-11.3,1.2-11.3c3-8.6,24.8-19.9,24.8-19.9l2.2-8.6h-1l-0.9,3l-1.3-0.4c-0.8-1.5,1-9,1-9c-2.1,0.3-3.9-0.5-3.9-0.5
				c1.2-0.2,0.9-1.1,0.9-1.1l-0.7-0.2c-0.7-1.5,0.9-7.6,0.9-7.6c0.7-0.1,0.7-1.7,0.7-1.7c-0.4-3.7-3.9-5.4-3.9-5.4l1.9-2.6
				c0.7-0.4-0.1-1.2-0.1-1.2l-1.3-0.4c0.2-10.6,5.9-10.1,5.9-10.1l0.2-1l-1.1-0.8l0.4-3.9l0.5,0l-0.2-1.1c-0.4,0-1.2-1-1.2-1
				l0.4-7.9c0.8,0,1.7-1.5,1.7-1.5l0.8,0.8l0.4-0.6l-1-1.1c-11-11.3-11.8-20.2-11.8-20.2l0.9-0.4l-0.2-0.4l-1,0.1l-0.4-1l1-0.3
				c-1-1.1-1-4.5-1-4.5l-1.9-0.1c-1.5-0.9-3.8-9.9-3.8-9.9l-1,0c-0.1-0.5-0.8-0.8-0.8-0.8l0.8-0.5l-0.7-0.3
				c-0.5-0.5-0.6-3.5-0.6-3.5l-0.6,0.1c0.1,0.9-0.3,3.6-0.3,3.6l-0.7,0.3c0,0,1.9,0.2,1.3,0.2c-0.6,0-0.8,0.8-0.8,0.8l-0.9-0.1
				C43.9,461.4,38.8,465,38.8,465l0.4-9.8c5.1-2.9,4.5-6.9,4.5-6.9c1-0.7,0-1.2,0-1.2l0.6-17.6l1.8-0.1l0-1l-1.9,0
				c-0.1-2.1,0.9-2.6,0.9-2.6h0.7c0-1.6,1.1-1.3,1.1-1.3l0.1-1c-1.3-0.9-3.1-7.6-3.1-7.6c-0.4-0.9,2.4-4,2.4-4l1.1-0.5l0.6-4.6
				c-1.5-0.4-1.3-0.8-1.3-0.8c-0.7-1.2,1.6-17.3,1.6-17.3l0.2,0.1c0.5-0.2-0.1-1.3-0.1-1.3c-8.7-0.6-11.7-3.9-11.7-3.9l0.2-2.3
				c-0.1-0.5,9.9-0.9,9.9-0.9L47,379l-9.1,0.2v-0.2l-1.1,0l-0.1-1.3l0.5-0.1l-0.2-2.1h-0.4l-0.1-2.4c-0.3-0.7,3.5-4.4,3.5-4.4
				l0.2,0.1l0.1-0.3l0.5,0.1l-0.2,1.3l0.2,0l0.2-1.1l1,0.6l-0.2,1.2h0.2l0.2-1.2l0.8,0.6l-0.1,1.3l0.2,0.1l0.1-1.2l0.2,0.1l0.1-0.3
				l-0.2-0.1l0.1-0.9l-0.1-0.2v-0.6l-0.2-0.1l-0.2,1.4l-0.7-0.6l0.1-1.3l-0.2,0l-0.1,1.2l-1-0.6l0.4-1.4l-0.1-0.1l-0.4,1.4l-0.3-0.2
				l0.1-0.1l0-0.1l-0.2,0.1l-0.4-0.4l0.2-1.3l-0.2-0.1l-0.2,1.2l-0.7-0.7l0.3-1.2l-0.3,0l-0.2,0.9l-0.2-0.1l-0.2,0.3l0.2,0.2l-0.3,1
				l0.3,0l0.3-0.9l0.8,0.8l-0.2,0.6l0.2,0l0.1-0.5l0.3,0.4l-3.5,3.8l-0.4-5.9c1.6-0.1,0.9-2.2,0.9-2.2H36l0.1-2.8
				c2.9,0.3,2.5-1.4,2.5-1.4l0.6-0.3c-0.5-0.6-0.7-2.7-0.7-2.7c-0.1,0.7-1.6,2.2-1.6,2.2l0.6,0.4c-1.5,0.2-1.2-0.1-1.2-0.1
				c-0.3-0.8,0.7-2.9,0.7-2.9l1-3.4l-0.4-1.8l2.5-1.3c0.9-1.3-1.3-2.2-1.3-2.2l-1.3,0.5c-0.2-1,0-8.8,0-8.8l0.2-0.1
				c0.8-0.7,0-1.6,0-1.6c-2.3-3.3-4.1-8.2-4.1-8.2c2.4-10,25.2-17.8,25.2-17.8l10.1-1.2c1.4,0.2,4.2-0.6,4.2-0.6l3.8-3.9
				c0.5,0,0.7-1.1,0.7-1.1h-1.2c-0.8-0.7,0.4-1.1,0.4-1.1v-2.6h0.3l-0.7-1.5l-0.5,1.4l0.5,0.1v1.2l-6.7-0.6l0.1-4.4
				c0-1.7,2.1-2.4,2.1-2.4c1.2-0.2,0.8-1.4,0.8-1.4l0.6-0.3v-0.4l-1.1-0.3c-2.4-7.7-9.2-7.2-9.2-7.2c-3.4-0.9-31.2,0-31.2,0
				c-3.9-4.6-6.7-4-6.7-4c-0.2-0.4-0.8-0.8-0.8-0.8c-0.3-0.8-0.8-0.7-0.8-0.7l-0.3-5.3c0,0.7-0.4,5.3-0.4,5.3
				c-0.8,0-0.7,0.7-0.7,0.7c-0.5,0.1-0.9,0.7-0.9,0.7c-7,0.2-8.4,5.7-8.4,5.7c-5.9,3.3-4.6,10.8-4.6,10.8c-1.1,0.1-0.7,1.4-0.7,1.4
				l1.2,0.8c0.4,0.8,0.4,4,0.4,4l-1,0.5l-0.1,2.4l0.5,0.1c-1.5,0.2-1.2,3.3-1.2,3.3h0.4c0.3,2.8,8,3.6,8,3.6l0.2,3.5
				c0,0.5-0.7,1.3-0.7,1.3l0.6,0l0.2,1.8c0,0.5-0.5,1.2-0.5,1.2H16l-0.1,5.7c0.1,1.4-4.6,9.5-4.6,9.5c-1.4,0.6,0,1.7,0,1.7l0.2,5.9
				c-0.7,2.4-1.8,3-1.8,3l0,0.6l1.2-0.1c0.1,0.4,0.1,2.6,0.1,2.6l-0.9,0.1v0.7l0.3,0.1l0,0l0.3,0.1l-0.3-0.1l0,1.3h0.8
				c0.4,0.6,0.2,3.1,0.2,3.1l0.5,0v1.3l0.5,0.2l-0.2,6.1c-1.1-0.1-0.7,0.9-0.7,0.9c-0.6-0.2-0.1,1.2-0.1,1.2l-0.6-0.1v0.3h0.9l0,0.6
				c-1.2,4.4-5.3,8.2-5.3,8.2c-0.2,0.2,0,0.5,0,0.5h0.4l0.4,1.1l1.1-0.2l0.3,8.2l-0.8,0.8l0.2,2l0.6-0.1l0.2,1.9
				c1.3-0.5,2.2,0.8,2.2,0.8l0.3,2.5l-0.8,0.3l0.4,1.7l0.4,0.1l0.3,3h-0.5l0.1,1.4l0.3,0.3v2h-0.1l-0.2,1.8l0.4,0.1l0.2,0.8
				l-0.7-0.1l0.1,1.1c-0.3,1.4,0.8,1.1,0.8,1.1l0,0.3l-0.2,0.1l0.3,1.7l0.4,2.7c0,0-0.6-0.4-0.5,0.9c0,1.3,0.5,0.9,0.5,0.9l0.2,0.5
				h-0.9l0.3,0.2l0,2.5l-0.1,0l-0.1,0.3l-0.3,0l0,0.2l0.9,0l0,0.6H12c-0.4-0.1,0-0.3,0-0.3c-0.5,0.1-0.2,0.5-0.2,0.5l0.7,0
				c-0.3,0,0,10,0,10l-0.5,0l0.1,1.6l0.2,0c-0.1,1,0.3,1.2,0.3,1.2c0,0.4,0.4,0.4,0.4,0.4l0.1,5.5c0,1.4-1.2,3.5-1.2,3.5l0,0.3h0.6
				l0.2,1.5l-2,1.8l-1.7-2.3l-0.3,0.3l1.3,2.4l2.4,7.9c-3.2-0.1-3.9,2.2-3.9,2.2l0.1,28.8c0.1,1.9,1.5,3.3,1.5,3.3l0,1l0.8,0
				c1.4,1.4,1,1.9,1,1.9l1,0c0.1,1.1,0.8,1.9,0.8,1.9l-0.2,4.8l-0.5,0.3l0.1,0.8l0.5,0.3l-0.2,6.1c-0.9,1.3-0.4,2.9-0.4,2.9l-5,0.1
				l0.1,0.5l5.3-0.1l0,4.1l-0.4,2.3h-0.4l0,0.4l0.4,0v2.5c0,0.8-0.3,1.1-0.3,1.1c0,2.2,0.3,2.1,0.3,2.1l0,0.3
				c-1.1,0.2-1.2,1.3-1.2,1.3h-0.1v0.1l-0.2,0c-0.1,0.1,0,0.2,0,0.2h0.2l-1.8,0.6l-0.1-0.3l0,0l0.1,0.3L9.6,522l0,0.1l0.4-0.1
				l0.1,0.2l-0.3,0.1l0,0l0.3,0l0,0.1l-0.3,0.1l0,0l0.3,0l0,0.1l-0.3,0.1l0,0l0.2-0.1l0.1,0.1l-0.3,0.1l0,0l0.2-0.1l0.1,0.1l0,0
				l-0.1-0.1l0.3-0.1l0,0l-0.3,0.1l-0.1-0.1l0.3-0.1l0,0l-0.3,0.1l0-0.1l0.3-0.1l0,0l-0.3,0.1l-0.1-0.1l0.4-0.1l0,0l-0.4,0.1
				l-0.1-0.2l1.8-0.6l0.4,2.5c-0.1,0.2-0.5,0.3-0.5,0.3l0.1,1.9h0.5c0.4,0.9,0.8,0.9,0.8,0.9l-0.5,0.1c0,0-0.3,0.1,0,0.3
				c0.3,0.2,0.3,0.6,0.3,0.6l-0.3,0v0.5l0.2,0.2c-1.1,1.7-0.4,5.3-0.4,5.3l-0.3,0l-2.6,0c-0.3,0.1,0,0.4,0,0.4h2.5l0.7,0.8l0.9-0.5
				c0,1.8,1,2.9,1,2.9l0.1,3.1c-2,1.5-0.7,3.1-0.7,3.1c-0.3,0.6,0.2,1.3,0.2,1.3l1.2-0.1l0,5.1c-1.1,0.9-1.1,2.9-1.1,2.9h1.4
				l0.1,9.8l-0.8,0l0,1.5l0.7,0.1v9.5c1,3-7.6,18.3-7.6,18.3l0.6,0.9l0.1,0.2l1,0c0,0,0,8.1,0,9c0,0.8-1.1,1.4-1.1,1.4l0.3,0.5
				l0.2,11.5l-0.6,0.1C8.6,616,8.7,618,8.7,618c0.3,0.2,1.6,0.3,1.6,0.3l-0.1,3.8c1.4,2.2,3.1,1.5,3.1,1.7c0,0.2,0.4,0.4,0.4,0.4
				c2.1,0,1.9,0.5,1.9,0.5l0.3,4.3l-0.4,0.1l0.1,1l0.3,0l-0.2,5.3l-1.2,0.5l0.4,3.4l0.9,0.8l0.9,21.4l-0.5,6.9l0.3,0.5
				c-0.9-0.5-0.6,0.4-0.6,0.4s-1.1,0.9-1.3,2.6c-0.2,1.7,0.4,2,0.4,2l0.2,20.5c-1.8-1-2.5,2-2.5,2c-1.1-0.3-1.2,1.1-1.2,1.1
				c-0.7-0.6-1.4,0-1.4,0c-0.7-0.5-0.9,0.1-0.9,0.1c-2.1-0.8-1.8,2.1-1.8,2.1c-0.7,0-0.4,0.6-0.4,0.6c-0.4-0.2-0.4,0.3-0.4,0.3
				c-0.7-0.8-1.5,0-1.5,0c-2.8-0.5-6.9,2.4-6.9,2.4l-0.1,6.7c-2,0.6-1.2,2.9-1.2,2.9l-4.6,1.6l-16.5-0.2l-4.4,11.1l2,12.3l16.2,3.2
				l99.3,1c0,0,2.2-8.3,2.8-12.8C92.1,724.4,85.5,711,85.5,711z"/>
		</g>
	</g>
</g>
</svg>
